<svg width="150" height="150" viewBox="0 0 150 150" fill="none" xmlns="http://www.w3.org/2000/svg">
<g clip-path="url(#clip0_222_11342)">
<path d="M86.6755 39.8154H95.4805V43.2786H86.6755V39.8154Z" fill="#CEBC9E"/>
<path d="M46.6743 69.1893L49.7737 67.1455L49.8206 43.9836L46.6706 41.9061L58.9668 41.9024L55.7962 43.993L55.7531 67.0686L58.9631 69.193L46.6743 69.1893V69.1893ZM66.9843 69.1668L67.0331 43.8749L64.0556 41.9061H67.0387L90.1143 41.8799C92.5425 41.8799 94.4437 42.6824 95.9268 44.3343C97.4155 45.9421 98.2221 48.0648 98.1768 50.2555C98.2065 52.478 97.3894 54.6286 95.8912 56.2705C94.3912 57.958 92.5031 58.7736 90.1256 58.7736H87.285L97.5768 69.1593H89.2106L75.6918 54.0993H88.9312C89.383 54.1079 89.8312 54.0178 90.2444 53.8351C90.6577 53.6524 91.026 53.3817 91.3237 53.0418C91.9069 52.3759 92.231 51.5225 92.2369 50.6374C92.2427 49.7523 91.9299 48.8946 91.3556 48.2211C91.0677 47.8826 90.707 47.6135 90.3005 47.434C89.894 47.2544 89.4522 47.1691 89.0081 47.1843H73.0706L73.0312 67.1699L76.05 69.163L66.9843 69.1668ZM102.812 69.1705L102.859 44.0249L99.6525 41.9043L130.8 41.8874L129.186 47.1936L108.851 47.1974L108.838 53.0361L129.156 53.0305L127.271 59.2311L126.847 57.8099H108.808L108.797 63.8549L130.755 63.8511L129.139 69.1705H102.812V69.1705ZM14.4881 83.4786V43.9461L11.4131 41.9061H42.2362L40.6181 47.2124H20.4675V53.0999H38.9156L37.0631 59.2499L36.6487 57.8605H20.4562L20.475 62.4411C20.475 62.4411 20.4168 72.5286 19.8262 74.8705C18.9637 78.2849 14.4881 83.4786 14.4881 83.4786Z" fill="#66201E" stroke="#CEBC9E" stroke-width="22.34" stroke-miterlimit="10"/>
<path d="M46.6631 69.169L49.7625 67.1252L49.8094 43.9652L46.6594 41.8859L58.9556 41.8821L55.785 43.9727L55.7419 67.0484L58.9519 69.1727L46.6631 69.169V69.169ZM66.9731 69.1465L67.0219 43.8584L64.0444 41.8896H67.0275L90.1031 41.8652C92.5312 41.8652 94.4325 42.6659 95.9156 44.3177C97.4043 45.9255 98.2109 48.0483 98.1656 50.239C98.1972 52.4597 97.382 54.6091 95.8856 56.2502C94.3856 57.9377 92.4975 58.7534 90.12 58.7534H87.2737L97.5656 69.139H89.1994L75.6806 54.0809H88.92C89.3713 54.0902 89.8192 54.0009 90.2325 53.8193C90.6457 53.6376 91.0143 53.3679 91.3125 53.029C91.8957 52.3631 92.2198 51.5097 92.2257 50.6246C92.2315 49.7395 91.9187 48.8818 91.3444 48.2084C91.056 47.8704 90.6953 47.6017 90.2889 47.4222C89.8825 47.2427 89.4409 47.157 88.9969 47.1715H73.0594L73.02 67.1571L76.0387 69.1521L66.9731 69.1465ZM102.799 69.1502L102.847 44.0046L99.6412 41.884L130.789 41.8671L129.174 47.1734L108.84 47.179L108.827 53.0159L129.144 53.0121L127.26 59.2109L126.836 57.7915H108.797L108.784 63.8346L130.744 63.8309L129.127 69.1502H102.799V69.1502ZM14.4769 83.4584V43.9259L11.4019 41.8859H42.225L40.6087 47.1921H20.4562V53.0815H38.9044L37.0519 59.2221L36.6375 57.8309H20.4375L20.4562 62.4115C20.4562 62.4115 20.3981 72.5009 19.8094 74.8427C18.9525 78.2665 14.4769 83.4584 14.4769 83.4584Z" fill="#66201E" stroke="#231F20" stroke-width="8.93" stroke-miterlimit="10"/>
<path d="M46.6817 69.1739L49.783 67.1301L49.828 43.9701L46.6799 41.8926L58.9742 41.887L55.8055 43.9776L55.7605 67.0551L58.9724 69.1776L46.6817 69.1739V69.1739ZM66.9936 69.1532L67.0424 43.8632L64.063 41.8945H67.048L90.1236 41.8701C92.5517 41.8701 94.453 42.6707 95.9361 44.3226C97.4247 45.9312 98.2313 48.0545 98.1861 50.2457C98.2148 52.4675 97.3977 54.6171 95.9005 56.2589C94.4005 57.9464 92.5124 58.7639 90.1349 58.7639H87.2943L97.5861 69.1476H89.2199L75.7011 54.0876H88.9405C89.3922 54.0963 89.8404 54.0061 90.2537 53.8235C90.667 53.6408 91.0353 53.37 91.333 53.0301C91.9163 52.364 92.2405 51.5102 92.2464 50.6248C92.2522 49.7394 91.9393 48.8814 91.3649 48.2076C91.0765 47.8696 90.7158 47.6009 90.3094 47.4214C89.903 47.2419 89.4614 47.1562 89.0174 47.1707H73.0799L73.0424 67.1582L76.0611 69.1514L66.9936 69.1532ZM102.819 69.1551L102.868 44.0095L99.6599 41.8907L130.807 41.8739L129.193 47.1801L108.861 47.1839L108.847 53.0207L129.165 53.017L127.281 59.2176L126.857 57.7964H108.817L108.804 63.8414L130.764 63.8357L129.148 69.1551H102.819V69.1551ZM14.4974 83.4632V43.9307L11.4224 41.8907H42.2436L40.6274 47.1989H20.4767V53.0864H38.9249L37.0724 59.227L36.658 57.8357H20.4636L20.4824 62.4182C20.4824 62.4182 20.4261 72.5057 19.8355 74.8476C18.973 78.2714 14.4974 83.4632 14.4974 83.4632V83.4632Z" fill="#66201E" stroke="white" stroke-width="3.35" stroke-miterlimit="10"/>
<path d="M19.022 74.9582C18.3751 77.2364 15.2251 81.397 15.2251 81.397V55.4339H37.4495L36.9507 57.0989H19.7213C19.7213 57.0989 19.7701 61.0926 19.7082 63.6614C19.5995 68.0901 19.5413 73.1245 19.022 74.9582V74.9582ZM56.5351 68.4464L49.1176 68.4482L50.5238 67.5239V55.4264L55.0238 55.4339L55.0182 67.4414L56.5351 68.4464V68.4464ZM73.5789 68.4126L67.7289 68.4145L67.7307 55.4395L72.3001 55.4339L72.2982 67.5689L73.5789 68.4126ZM89.5332 68.4126L77.9082 55.4339H95.6926C95.2693 56.0636 94.7083 56.5887 94.052 56.9695C92.6888 57.7457 92.4732 57.7814 91.8751 57.9614C91.5338 58.0645 85.6613 58.0326 85.6613 58.0326L95.8126 68.4145L89.5332 68.4126ZM128.599 68.4145L103.573 68.4351V55.417L127.661 55.4339L127.172 57.0501L108.062 57.0445L108.06 64.5782L129.763 64.5764L128.599 68.4145Z" fill="#552A28"/>
<path d="M32.6637 27.6L32.675 21.87L32 21.4237H37.8931C38.1399 21.4146 38.3856 21.4602 38.6126 21.5575C38.8395 21.6548 39.0421 21.8012 39.2056 21.9862C39.5436 22.3505 39.7265 22.832 39.7156 23.3287C39.7232 23.8325 39.5381 24.3201 39.1981 24.6919C39.0354 24.8778 38.8329 25.0249 38.6058 25.1223C38.3786 25.2196 38.1325 25.2648 37.8856 25.2544H37.2575L39.59 27.6075H37.6944L34.6325 24.1894H37.6325C37.7351 24.1912 37.8369 24.1707 37.9308 24.1293C38.0247 24.0879 38.1085 24.0265 38.1762 23.9494C38.307 23.7973 38.379 23.6034 38.379 23.4028C38.379 23.2022 38.307 23.0083 38.1762 22.8562C38.1104 22.7802 38.0285 22.7196 37.9364 22.6791C37.8443 22.6386 37.7443 22.619 37.6437 22.6219H34.0362V27.15L34.7262 27.6019L32.6637 27.6ZM105.972 21.6937L105.971 27.1312L106.67 27.5944H104.602L104.577 18L110.307 25.8787L110.326 21.885L109.617 21.4181H110.328V21.4125H111.701L111.779 29.8294L105.972 21.6937ZM71.4144 27.5775L71.4256 21.8812L70.6981 21.3994L77.7556 21.3956L77.39 22.5994H72.7831L72.7794 23.9213H77.3844L76.9569 25.3256L76.8612 25.005H72.7737L72.77 26.3737H77.7462L77.3806 27.5775H71.4144V27.5775ZM56.7406 27.5344L56.7462 24.9487L52.2856 24.9506L52.28 27.5344H50.2194L50.9281 27.0675L50.9375 21.8269L50.2194 21.3525L52.2931 21.3488L52.2894 23.7431L56.7481 23.745L56.7537 21.3488L58.7956 21.3506L58.1056 21.8044L58.0962 27.0731L58.7956 27.5344H56.7406V27.5344ZM89.8269 27.5869L90.53 27.1219L90.5412 21.8756L89.8269 21.405L92.6131 21.4031L91.895 21.8775L91.8856 27.105L92.6131 27.5869H89.8269V27.5869Z" fill="#CEBC9E"/>
<path d="M28.3518 72.4482C28.5899 72.7089 30.3581 74.8145 32.4149 75.5532C36.4424 76.9989 40.1024 77.1282 44.2537 76.7589C47.8762 76.4382 51.4837 75.8851 55.1062 75.5832C60.1518 75.1614 64.8562 76.172 69.2587 78.9095C71.8462 80.522 74.8406 83.3701 76.3106 83.0345C77.2218 82.8301 77.1731 81.722 76.5656 80.7845C74.3962 77.4507 70.4437 77.5276 70.4437 77.5276C70.4437 77.5276 75.4012 74.3401 85.1737 85.9539C89.2387 90.7876 96.4237 90.1201 103.039 89.1939C104.762 88.9539 120.486 86.1376 120.069 94.8714C119.736 101.88 106.92 100.729 103.686 94.1701C103.686 94.1701 115.123 98.9795 114.711 93.8964C114.542 91.8339 111.336 89.102 101.362 92.8539C80.188 100.821 73.7062 97.4289 73.7062 97.4289C73.7062 97.4289 85.3012 96.8851 85.5187 93.0376C85.7999 88.2526 68.0024 94.8207 58.6556 92.0776C52.3124 90.212 49.1249 83.4976 48.8493 82.9689C49.3256 83.237 57.4743 88.1832 62.1356 86.3326C63.0562 85.9576 63.3562 85.2076 62.7299 84.4051C62.2593 83.8032 61.5862 83.4676 60.9431 83.072C56.3606 80.2951 51.2793 79.712 46.1043 80.012C43.0143 80.1995 39.9862 80.102 36.9768 79.4926C29.3849 77.9551 28.3518 72.4482 28.3518 72.4482V72.4482Z" fill="#CEBC9E" stroke="#CEBC9E" stroke-width="15.64" stroke-miterlimit="10"/>
<path d="M119.548 109.76C118.965 109.807 118.236 109.648 117.99 110.388C117.784 111.015 118.215 111.513 118.553 112.023C120.128 114.403 122.362 117.444 127.781 120.197C132.026 122.366 138.135 122.752 138.135 122.752C138.135 122.752 127.569 125.565 122.76 124.415C115.836 122.771 110.771 118.466 106.157 113.403C102.594 109.498 99.2681 105.324 94.5131 102.729C92.28 101.505 89.8325 100.721 87.3037 100.419C90.885 98.1803 94.2731 97.2316 98.0944 97.8428C100.888 98.2892 103.614 99.0894 106.206 100.224C110.124 101.942 122.687 104.617 122.454 94.6141C122.226 84.8209 109.517 86.2572 105.848 86.8422C101.413 87.5509 96.8644 88.7172 92.4694 87.4666C85.5881 85.4997 81.8438 78.8134 81.8438 78.8134C81.8438 78.8134 85.0837 79.9384 86.1975 80.2478C90.2362 81.3541 94.0556 80.6509 98.1019 79.9497C102.866 79.1247 107.597 78.0747 112.376 77.3697C116.021 76.8278 119.747 76.7528 123.369 77.5422C128.482 78.6541 138.099 85.5391 138.225 93.2453C138.435 106.254 124.429 109.365 119.548 109.76V109.76Z" fill="#CEBC9E" stroke="#CEBC9E" stroke-width="15.64" stroke-miterlimit="10"/>
<path d="M28.7212 72.0391C28.9612 72.2997 30.7274 74.4053 32.7862 75.1441C36.8137 76.5897 40.4737 76.7172 44.6249 76.3497C48.2474 76.0291 51.8549 75.4741 55.4774 75.1722C60.5231 74.7522 65.2274 75.7628 69.6281 78.5003C72.2174 80.1128 75.2099 82.961 76.6818 82.6253C77.5931 82.4191 77.5443 81.3128 76.9368 80.3753C74.7656 77.0434 70.8131 77.1203 70.8131 77.1203C70.8131 77.1203 75.7724 73.9328 85.5449 85.5466C89.6099 90.3803 96.7949 89.7128 103.41 88.7866C105.131 88.5447 120.847 85.7303 120.441 94.4641C120.107 101.473 107.291 100.322 104.057 93.7628C104.057 93.7628 115.494 98.5722 115.082 93.4891C114.911 91.4266 111.707 88.6928 101.732 92.4466C80.5593 100.413 74.0774 97.0216 74.0774 97.0216C74.0774 97.0216 85.6724 96.4778 85.8899 92.6303C86.1693 87.8453 68.3737 94.4135 59.0268 91.6685C52.6874 89.8122 49.4849 83.0885 49.2206 82.5597C49.6968 82.8278 57.8456 87.7741 62.5049 85.9216C63.4274 85.556 63.7274 84.7966 63.0993 83.996C62.6287 83.3941 61.9574 83.0584 61.3143 82.6628C56.7299 79.8859 51.6506 79.3028 46.4756 79.6028C43.3856 79.7903 40.3574 79.6928 37.3481 79.0834C29.7562 77.5459 28.7212 72.0391 28.7212 72.0391V72.0391Z" fill="white" stroke="#66201E" stroke-width="3.65" stroke-miterlimit="10"/>
<path d="M119.919 109.35C119.336 109.396 118.607 109.239 118.361 109.98C118.155 110.604 118.584 111.105 118.924 111.615C120.499 113.994 122.736 117.035 128.153 119.788C132.399 121.957 138.508 122.343 138.508 122.343C138.508 122.343 127.943 125.156 123.133 124.006C116.207 122.362 111.133 118.057 106.53 112.995C102.968 109.087 99.6413 104.915 94.8863 102.32C92.6525 101.098 90.2054 100.313 87.6769 100.01C91.2582 97.7714 94.6444 96.8227 98.4676 97.4339C101.261 97.8803 103.987 98.6805 106.579 99.8151C110.498 101.533 123.06 104.208 122.828 94.2051C122.599 84.4101 109.89 85.8483 106.221 86.4333C101.786 87.1402 97.2376 88.3083 92.8426 87.0576C85.967 85.087 82.2207 78.4045 82.2207 78.4045C82.2207 78.4045 85.4626 79.5295 86.5763 79.8389C90.6132 80.9451 94.4345 80.2402 98.4807 79.5408C103.245 78.7139 107.974 77.6658 112.755 76.9589C116.4 76.4189 120.126 76.3439 123.748 77.1333C128.861 78.2452 138.478 85.1301 138.604 92.8345C138.806 105.845 124.8 108.956 119.919 109.35V109.35Z" fill="white" stroke="#66201E" stroke-width="3.65" stroke-miterlimit="10"/>
<path d="M63.9955 86.1994C63.9955 86.1994 63.9449 87.3525 62.8837 87.8644C60.6543 88.9425 56.8462 87.7819 56.9099 88.2488C57.0674 89.3888 62.7112 91.5057 70.438 90.7163C72.9289 90.4489 75.4329 90.3237 77.938 90.3413C77.938 90.3413 75.733 90.5457 72.6618 90.915C67.3912 91.5507 63.6037 91.8807 59.9793 90.8813C54.193 89.2857 51.6205 84.8082 51.6205 84.8082C51.6205 84.8082 55.9012 87.0375 58.3912 87.375C62.2743 87.8775 63.9955 86.1994 63.9955 86.1994V86.1994ZM73.8224 82.7382C73.8224 82.7382 68.263 78.3638 64.3237 77.2144C57.3093 75.165 48.7405 77.3438 44.1318 77.2744C40.7118 77.6494 35.7299 77.4207 31.8787 75.5869C32.1937 76.1494 38.2049 79.2263 47.4412 77.8369C50.3455 77.4 61.3387 76.7644 67.1287 79.2638C69.4143 80.25 73.8224 82.7382 73.8224 82.7382V82.7382ZM92.338 94.7513C91.7137 95.1619 87.2155 96.045 86.0868 96.2513C83.7674 96.6657 82.1962 97.0275 79.288 97.0969C80.6192 96.8699 81.9316 96.544 83.2143 96.1219C85.3087 95.3813 86.158 94.0332 86.158 94.0332C86.1828 94.3821 86.1389 94.7325 86.0287 95.0644C85.9424 95.2969 85.708 95.5463 85.8974 95.7C86.038 95.8125 86.233 95.7432 86.7562 95.6532C89.0774 95.25 92.2893 94.7944 92.338 94.7513V94.7513ZM84.9805 86.2857C84.9805 86.2857 79.2355 80.8125 79.2187 81.6282C79.2018 82.4438 77.9737 83.2613 77.9343 83.1282C77.9343 83.1282 78.793 82.1907 78.208 80.7619C77.8743 79.9388 76.5205 78.6207 76.5205 78.6207C76.5205 78.6207 77.6174 79.1475 80.038 81.1088C82.7568 83.3232 84.9805 86.2857 84.9805 86.2857V86.2857ZM115.712 95.1469C115.712 95.1469 115.524 96.2382 115.076 96.6675C114.326 97.4175 112.815 97.0763 113.046 97.4682C113.638 98.4732 116.332 97.6144 117.064 97.3088C118.521 96.6957 119.484 95.2782 119.484 95.2782C119.484 95.2782 118.461 99.1613 112.444 98.3307C110.171 98.0065 108.048 97.0071 106.35 95.4619C106.35 95.4619 109.678 96.5869 112.191 96.7069C114.99 96.8307 115.712 95.1469 115.712 95.1469V95.1469ZM110.128 88.8619C109.249 89.0082 101.773 90.825 99.238 91.0238C94.1568 91.4213 90.8343 89.8782 90.463 89.6663C93.9505 90.3525 96.748 90.4557 100.646 89.9288C104.224 89.4375 106.699 88.8619 110.128 88.8619V88.8619ZM101.97 79.7944C101.97 79.7944 100.095 81.7819 97.5637 82.2432C94.0762 82.8769 91.318 82.7082 91.4568 83.28C91.7118 84.3375 93.9262 85.4907 98.8593 85.2675C101.848 85.1325 106.584 83.7113 110.346 83.6963C115.901 83.6719 118.455 86.2313 118.455 86.2313C118.455 86.2313 116.541 84.6413 109.864 85.0369C104.773 85.3388 98.938 87.2682 94.078 86.3625C89.0774 85.425 84.5737 80.175 84.5737 80.175C86.536 80.9172 88.6095 81.3229 90.7068 81.375C94.5192 81.4164 98.3161 80.8835 101.97 79.7944V79.7944ZM105.013 100.181C105.013 100.181 99.0768 99.3132 96.4687 99.7219C94.5824 100.018 98.0624 101.303 100.937 104.409C102.802 106.429 110.312 114.131 115.8 117.645C124.776 123.403 132.937 122.505 132.937 122.505C132.937 122.505 130.532 123.473 125.957 123.24C123.452 123.114 120.682 122.07 118.241 120.743C116.597 119.848 112.491 117.594 109.644 114.643C106.5 111.375 102 106.331 100.219 104.751C95.1843 100.303 90.2812 99.6113 90.2812 99.6113C90.2812 99.6113 94.3705 97.0875 100.05 98.58C103.792 99.5625 105.013 100.181 105.013 100.181ZM128.01 106.211C128.01 106.211 136.099 100.909 136.382 94.7738C136.768 86.3757 130.5 81.6188 130.5 81.6188C130.5 81.6188 139.312 87.6057 137.499 95.8932C135.859 103.397 128.01 106.211 128.01 106.211Z" fill="#CEBC9E"/>
</g>
<defs>
<clipPath id="clip0_222_11342">
<rect width="150" height="150" fill="white"/>
</clipPath>
</defs>
</svg>
