<svg width="150" height="150" viewBox="0 0 150 150" fill="none" xmlns="http://www.w3.org/2000/svg">
<path d="M53.0152 59.9443C53.0152 59.9443 51.4026 65.2862 53.9475 68.7634C41.2229 71.3839 31.5471 77.7589 31.0683 78.1117C30.9423 83.3527 32.6306 90.7859 36.259 97.2617C39.8874 103.737 46.6907 110.012 54.6279 114.572L56.4421 115.605L61.7587 111.624C62.9178 113.464 65.3116 115.505 67.6549 117.016C69.9983 118.528 74.181 120.267 79.7497 120.594C80.9591 120.67 82.5466 120.191 83.882 119.511C85.9155 118.496 87.6841 117.021 89.0475 115.202C91.668 111.7 93.3058 107.366 94.0114 104.166C96.8839 102.931 102.276 98.2948 104.04 94.6159C104.04 94.6159 106.106 95.3215 108.827 98.1436C109.256 97.4884 112.078 90.8615 109.281 84.537C109.548 83.3113 109.692 82.062 109.709 80.8078V79.7495L109.054 78.9432C108.802 78.6408 106.534 76.2722 101.596 74.0045L101.646 73.3493C99.8068 69.6453 93.7342 66.7476 88.9719 64.9586C83.1513 62.7916 74.5086 60.4987 70.1243 61.0278C69.8975 61.7082 69.5699 62.5397 69.5699 62.5397C61.7083 60.3475 53.0152 59.9443 53.0152 59.9443Z" fill="#B5B8BB"/>
<path d="M150 42.3819H121.25L121.703 40.7189L122.711 36.9141H32.0763L30.4132 43.1378C29.3583 42.7808 28.2513 42.6019 27.1376 42.6087H0L13.8082 51.6545L7.6852 74.181L14.3877 79.9008H118.705C119.968 79.8511 121.22 79.648 122.434 79.2961C123.533 78.9187 124.576 78.3931 125.533 77.7338C126.485 77.0627 127.334 76.2563 128.053 75.3401C128.844 74.3084 129.433 73.1374 129.792 71.888L131.732 64.606V64.3036C131.856 63.5543 131.882 62.7918 131.807 62.0359C131.762 61.5925 131.678 61.154 131.556 60.7256L132.891 60.2468L134.075 55.9129C134.458 54.5451 134.603 53.1218 134.504 51.7049L150 42.3819Z" fill="#B5B8BB"/>
<path fill-rule="evenodd" clip-rule="evenodd" d="M131.026 49.8653C131.53 50.8732 131.883 52.511 131.203 55.1567L130.447 57.9284L126.642 59.2387L127.549 59.9694L127.625 60.0198L127.7 60.0702C128.348 60.6506 128.76 61.4486 128.859 62.3128C128.904 62.8337 128.888 63.3581 128.809 63.875V64.1018L126.944 71.1067C126.706 71.9701 126.294 72.7759 125.735 73.4752C125.203 74.1584 124.575 74.761 123.87 75.2642C123.149 75.7679 122.36 76.1666 121.527 76.4485C120.668 76.7456 119.765 76.8988 118.856 76.9021H15.5215L11.1119 73.1225L17.3105 50.344L10.2048 45.6321H27.1375C28.0341 45.6161 28.9249 45.7789 29.758 46.1109C30.5428 46.4339 31.2479 46.924 31.8242 47.5471L32.2273 48.0763L34.4195 39.9375H118.806L116.84 47.2195L117.117 47.018C117.836 46.5098 118.625 46.1107 119.461 45.8337C120.328 45.5343 121.239 45.3811 122.157 45.3801H139.089L131.026 49.8653Z" fill="black"/>
<path fill-rule="evenodd" clip-rule="evenodd" d="M26.1297 51.5032C26.0508 51.4244 25.9561 51.3635 25.8518 51.3244C25.7475 51.2853 25.6361 51.2689 25.5249 51.2764H24.2398L22.3752 58.2057H23.6351C23.9086 58.2115 24.1757 58.1225 24.391 57.9537C24.6038 57.8237 24.7575 57.6158 24.8194 57.3742L26.2556 52.1079C26.2938 52.0055 26.3022 51.8944 26.2799 51.7874C26.2576 51.6804 26.2055 51.5818 26.1297 51.5032ZM29.4557 57.5506C29.2988 58.1699 29.0062 58.7465 28.599 59.2388C28.1907 59.7686 27.7068 60.2355 27.1627 60.6246C26.5842 61.0148 25.9574 61.3282 25.2981 61.5569C24.6401 61.776 23.9507 61.8866 23.2572 61.8845H21.3673L18.6964 71.7367H14.0349L20.2839 48.6055H20.2587L18.6712 47.5472H27.1123C27.7511 47.5399 28.385 47.6598 28.977 47.9C29.4974 48.0997 29.9635 48.4191 30.3376 48.8323C30.6896 49.2248 30.9328 49.7026 31.0431 50.2181C31.1643 50.7765 31.147 51.3561 30.9927 51.9063L29.4557 57.5506Z" fill="#FCFDFB"/>
<path fill-rule="evenodd" clip-rule="evenodd" d="M36.1079 56.5685L35.3772 59.8189H38.5521L39.3584 56.5685H36.1079ZM40.2151 71.7373H35.478L37.5694 63.6993H34.3693L32.3535 71.7373H27.6416L30.5645 60.852L29.0023 59.8189H30.8417L32.1519 54.9558C32.1519 54.9558 34.1929 52.8896 36.3095 52.8896H45.2546L40.2151 71.7373Z" fill="#FCFDFB"/>
<path fill-rule="evenodd" clip-rule="evenodd" d="M55.6609 71.7373H50.7978L50.8986 71.2837L54.779 56.5685H51.5537L47.6481 71.2837L47.5222 71.7625H42.8354L47.5726 53.9227L45.9851 52.8896H52.5112L51.9317 55.0314C51.9317 55.0314 53.9979 52.8896 55.7617 52.8896H60.6752L55.7869 71.2585L55.6609 71.7373Z" fill="#FCFDFB"/>
<path fill-rule="evenodd" clip-rule="evenodd" d="M72.7196 56.4425V56.5685H69.2675L65.2359 71.7373H60.5996L64.606 56.5685H61.2295L61.7083 54.855C61.7083 54.855 63.5729 52.8896 65.5131 52.8896H73.6771L72.7196 56.4425Z" fill="#FCFDFB"/>
<path fill-rule="evenodd" clip-rule="evenodd" d="M82.849 71.7373H78.1623L80.1529 63.8505H77.7087L75.5166 71.7373H70.8298L73.7275 60.852L72.1653 59.8189H74.0047L75.5921 53.9227L74.0047 52.8896H80.556L78.7922 59.8189H81.2616L82.8994 53.9479L81.312 52.8896H87.8381L82.849 71.7373Z" fill="#FCFDFB"/>
<path fill-rule="evenodd" clip-rule="evenodd" d="M99.3029 56.5685H94.1626L93.2303 59.9953H98.3454L97.3879 63.5481L97.2619 64.0269H92.1468L91.1389 68.0585H96.3548L95.2713 71.7625H85.4443L88.3168 61.0536L86.7294 60.0205H88.594L90.2066 53.9227L88.6192 52.8896H100.286L100.16 53.3684L99.3029 56.5685Z" fill="#FCFDFB"/>
<path fill-rule="evenodd" clip-rule="evenodd" d="M108.122 56.8206C108.038 56.7412 107.939 56.68 107.831 56.641C107.722 56.6019 107.607 56.5859 107.492 56.5938H106.232L104.569 62.6412H105.854C106.123 62.6435 106.387 62.5644 106.61 62.4144C106.823 62.2844 106.977 62.0764 107.039 61.8348L108.248 57.4001C108.272 57.3003 108.273 57.1963 108.251 57.0959C108.23 56.9955 108.185 56.9014 108.122 56.8206ZM111.977 61.5073C111.739 62.3863 111.259 63.1808 110.591 63.8002C109.906 64.4882 109.081 65.021 108.172 65.3625L110.087 71.7374H105.199L103.813 66.1688L102.201 71.7122H97.5139L102.251 53.9229L100.664 52.8898H109.105C109.743 52.8851 110.377 53.0049 110.969 53.2425C111.486 53.4359 111.945 53.7566 112.305 54.1748C112.658 54.5601 112.91 55.0279 113.036 55.5355C113.148 56.1045 113.122 56.692 112.96 57.2489L111.977 61.5073Z" fill="#FCFDFB"/>
<path fill-rule="evenodd" clip-rule="evenodd" d="M127.398 48.3789L127.625 48.6057C127.972 49.0014 128.215 49.4779 128.33 49.9915C128.451 50.55 128.434 51.1296 128.28 51.6798L127.801 53.4436L122.636 55.2326L123.492 52.0577C123.526 51.9587 123.531 51.8526 123.509 51.7506C123.487 51.6486 123.438 51.5545 123.366 51.4782C123.291 51.3935 123.197 51.3269 123.093 51.2833C122.988 51.2397 122.875 51.2202 122.762 51.2262H122.434C122.161 51.2204 121.893 51.3094 121.678 51.4782C121.465 51.6082 121.312 51.8161 121.25 52.0577L120.444 55.0058C120.405 55.2225 120.405 55.4442 120.444 55.6609C120.488 55.8659 120.584 56.0565 120.721 56.2153L125.055 59.5917C125.357 59.8372 125.555 60.1884 125.609 60.5744C125.641 60.9446 125.624 61.3174 125.559 61.6831L123.971 67.6297C123.794 68.2411 123.503 68.8137 123.114 69.3179C122.691 69.8424 122.199 70.3084 121.653 70.7038C121.072 71.0891 120.445 71.4021 119.788 71.6361C119.131 71.8569 118.441 71.9676 117.747 71.9636H116.236C115.59 71.9784 114.948 71.8671 114.346 71.6361C113.846 71.412 113.393 71.0957 113.01 70.7038C112.663 70.3081 112.42 69.8316 112.305 69.3179C112.184 68.7595 112.201 68.1799 112.355 67.6297L113.388 63.7997L118.554 62.0359L117.143 67.2517C117.103 67.3499 117.094 67.4575 117.117 67.5608C117.139 67.6641 117.192 67.7583 117.269 67.8313C117.342 67.9191 117.435 67.9878 117.54 68.0317C117.645 68.0756 117.76 68.0933 117.873 68.0833H118.201C118.466 68.0853 118.724 67.9964 118.932 67.8313C119.15 67.7022 119.312 67.4952 119.385 67.2517L120.569 62.8926C120.609 62.6342 120.626 62.3728 120.62 62.1115C120.595 61.8673 120.478 61.6418 120.292 61.4815L116.059 58.0547C115.782 57.7898 115.575 57.461 115.454 57.0972C115.381 56.6671 115.415 56.2254 115.555 55.8121L116.664 51.6798C116.831 51.0643 117.123 50.4897 117.521 49.9915C117.938 49.4611 118.43 48.9943 118.982 48.6057C119.549 48.211 120.168 47.8972 120.821 47.6734C121.488 47.4525 122.186 47.3418 122.888 47.3458H129.489L127.398 48.3789Z" fill="#FCFDFB"/>
<path fill-rule="evenodd" clip-rule="evenodd" d="M121.275 72.7705C120.868 73.0005 120.437 73.1863 119.99 73.3249C119.337 73.5657 118.645 73.6852 117.949 73.6776H116.311L117.596 74.8367H118.755C119.45 74.8298 120.139 74.7107 120.796 74.4839C121.359 74.3096 121.894 74.055 122.384 73.728L121.275 72.7705ZM37.7708 73.6524L39.1063 74.8367H43.6418L42.3063 73.6524H37.7708ZM45.0781 73.6524L46.4135 74.8367H51.0498L49.7144 73.6524H45.0781ZM16.1011 73.6524L17.4365 74.8367H22.1736L20.8382 73.6524H16.1011ZM29.7833 73.6524L31.1187 74.8367H35.881L34.5456 73.6524H29.7833ZM62.7666 73.6524L64.1021 74.8367H68.688L67.3525 73.6524H62.7666ZM53.0152 73.6524L54.3507 74.8367H59.1886L57.8531 73.6524H53.0152ZM73.1228 73.6524L74.4582 74.8367H79.0693L77.7591 73.6524H73.1228ZM107.366 73.6524L108.701 74.8367H113.413L112.103 73.6524H107.366ZM99.7564 73.6524L101.067 74.8367H105.653L104.317 73.6524H99.7564ZM87.7624 73.6524L89.0979 74.8367H98.7485L97.413 73.6524H87.7624ZM80.4048 73.6524L81.7402 74.8367H86.4522L85.1419 73.6524H80.4048Z" fill="#0093D0"/>
<path fill-rule="evenodd" clip-rule="evenodd" d="M43.4908 50.0923C43.4644 50.1561 43.4185 50.21 43.3597 50.2462C43.3008 50.2824 43.2321 50.2991 43.1632 50.2939H41.6262C41.4498 50.2939 41.3742 50.2183 41.3994 50.0923L41.5254 47.2954H41.5002L40.1647 50.0923C40.1355 50.154 40.089 50.2059 40.0308 50.2416C39.9727 50.2774 39.9054 50.2956 39.8371 50.2939H38.3001C38.1237 50.2939 38.0481 50.2183 38.0733 50.0923L38.1993 42.4071C38.2245 42.2811 38.3001 42.2307 38.4765 42.2307H40.3411C40.4923 42.2307 40.5679 42.2811 40.5679 42.4071L39.9631 46.9426H40.0387L41.9033 42.4071C41.9336 42.3479 41.9811 42.2994 42.0396 42.2679C42.0981 42.2364 42.1649 42.2234 42.2309 42.2307H43.4908C43.6419 42.2307 43.7175 42.2811 43.6923 42.4071L43.1632 46.9426H43.2388L45.053 42.4071C45.0754 42.3474 45.1177 42.2972 45.1728 42.2651C45.2279 42.233 45.2924 42.2208 45.3554 42.2307H47.2452C47.3964 42.2307 47.472 42.2811 47.3964 42.4071L43.4908 50.0923ZM55.1068 43.7677C55.073 43.7287 55.0298 43.6989 54.9813 43.6813C54.9328 43.6636 54.8805 43.6587 54.8296 43.6669H54.2752L53.6957 45.8339H54.2752C54.3824 45.8238 54.4858 45.7894 54.5776 45.7331C54.6646 45.6778 54.7344 45.5992 54.7792 45.5064L55.1823 43.9945C55.1823 43.8937 55.1823 43.8181 55.1068 43.7677ZM56.795 45.5819C56.6828 45.9347 56.4624 46.2433 56.165 46.4639C55.8487 46.737 55.4801 46.9428 55.0816 47.0686L55.9383 50.0923C55.9383 50.2183 55.8627 50.2939 55.7115 50.2939H54.1241L53.9477 50.2435L53.8469 50.0923L53.2422 47.6229L52.587 50.0923C52.5606 50.1561 52.5148 50.21 52.4559 50.2462C52.3971 50.2824 52.3283 50.2991 52.2594 50.2939H50.7224C50.5712 50.2939 50.4956 50.2183 50.546 50.0923L52.5618 42.4071C52.6122 42.2811 52.6878 42.2307 52.8642 42.2307H55.4847C55.7585 42.2295 56.0307 42.272 56.291 42.3567C56.5162 42.4402 56.722 42.5688 56.8958 42.7346C57.0512 42.8779 57.1644 43.0608 57.2233 43.2638C57.2983 43.4757 57.2983 43.707 57.2233 43.9189L56.795 45.5819ZM65.7149 43.6669C65.6778 43.6324 65.6341 43.6057 65.5865 43.5884C65.5389 43.5711 65.4883 43.5635 65.4377 43.5662H65.2865C65.1765 43.5596 65.0682 43.5957 64.9841 43.6669C64.9358 43.6874 64.8926 43.7183 64.8577 43.7576C64.8228 43.7968 64.7972 43.8433 64.7826 43.8937L63.5479 48.6308C63.5375 48.6699 63.5366 48.7109 63.5454 48.7504C63.5542 48.7898 63.5723 48.8266 63.5983 48.8576C63.68 48.9122 63.7773 48.9387 63.8754 48.9332H64.0266L64.329 48.8576C64.416 48.8022 64.4858 48.7237 64.5306 48.6308L65.7652 43.8937C65.7781 43.8549 65.7802 43.8133 65.7713 43.7734C65.7624 43.7335 65.7429 43.6967 65.7149 43.6669ZM66.5464 48.6812C66.4798 48.9234 66.3592 49.1474 66.1936 49.3364C66.0237 49.5529 65.8194 49.7402 65.5889 49.8907C65.3396 50.0487 65.0677 50.1676 64.7826 50.2435C64.4982 50.3365 64.1997 50.3791 63.9006 50.3694H63.2455C62.9628 50.3809 62.6806 50.3381 62.414 50.2435C62.1864 50.1776 61.9787 50.0564 61.8093 49.8907C61.6573 49.7348 61.545 49.5447 61.4817 49.3364C61.4312 49.1209 61.4312 48.8967 61.4817 48.6812L62.7668 43.8181C62.8279 43.5738 62.9492 43.3486 63.1195 43.163C63.2969 42.9607 63.5002 42.7828 63.7243 42.6339C63.9779 42.4779 64.2484 42.3511 64.5306 42.2559C64.8177 42.1751 65.1142 42.1328 65.4125 42.1299H66.0676C66.3495 42.1309 66.6296 42.1733 66.8991 42.2559C67.1211 42.3459 67.3257 42.4738 67.5039 42.6339C67.664 42.7807 67.7796 42.9696 67.8375 43.179C67.8954 43.3884 67.8933 43.6099 67.8314 43.8181L66.5464 48.6812ZM78.0868 44.6244C78.0616 44.7504 77.9608 44.826 77.7844 44.8764L76.1466 45.0528C75.9954 45.1032 75.9198 45.0528 75.9702 44.9268L76.2474 43.8937C76.2474 43.7929 76.2474 43.7173 76.1718 43.6669C76.138 43.6279 76.0948 43.5981 76.0463 43.5805C75.9978 43.5628 75.9456 43.5579 75.8946 43.5662H75.7686C75.651 43.5605 75.5351 43.5961 75.441 43.6669C75.3963 43.6889 75.3572 43.7207 75.3267 43.76C75.2961 43.7993 75.2749 43.845 75.2647 43.8937L74.0048 48.6308C73.995 48.6719 73.9969 48.7149 74.0103 48.755C74.0236 48.7951 74.0479 48.8306 74.0804 48.8576C74.1526 48.9122 74.242 48.939 74.3324 48.9332H74.4835C74.5972 48.9348 74.7096 48.9088 74.8111 48.8576C74.8929 48.8031 74.9548 48.7235 74.9875 48.6308L75.4158 47.0182C75.4217 46.9913 75.433 46.9659 75.449 46.9435C75.4651 46.9211 75.4855 46.9023 75.5091 46.8881C75.5327 46.8739 75.559 46.8648 75.5863 46.8611C75.6136 46.8575 75.6413 46.8595 75.6678 46.867L77.2301 47.0434C77.256 47.046 77.281 47.0543 77.3034 47.0677C77.3257 47.0812 77.3448 47.0994 77.3592 47.1211C77.3737 47.1427 77.3832 47.1674 77.387 47.1931C77.3908 47.2189 77.3888 47.2452 77.3812 47.2702L77.0033 48.6812C76.9476 48.9277 76.8256 49.1542 76.6505 49.3364C76.4932 49.5643 76.2865 49.7538 76.0458 49.8907C75.8055 50.0484 75.5419 50.1675 75.2647 50.2435C74.9712 50.3346 74.6648 50.3771 74.3576 50.3694H73.7024C73.4198 50.3809 73.1375 50.3381 72.8709 50.2435C72.6531 50.1721 72.4548 50.0514 72.2914 49.8907C72.1228 49.7438 72.0003 49.5513 71.9386 49.3364C71.8881 49.1209 71.8881 48.8967 71.9386 48.6812L73.2237 43.8181C73.306 43.5825 73.4251 43.3614 73.5764 43.163C73.7569 42.9543 73.9696 42.7756 74.2064 42.6339C74.4511 42.4779 74.7133 42.3511 74.9875 42.2559C75.275 42.1771 75.5713 42.1347 75.8694 42.1299H76.5497C76.8235 42.1287 77.0957 42.1712 77.356 42.2559C77.5813 42.3394 77.787 42.468 77.9608 42.6339C78.1162 42.7771 78.2294 42.9601 78.2883 43.163C78.3633 43.375 78.3633 43.6062 78.2883 43.8181L78.0868 44.6244ZM84.6381 48.7064H86.7799C86.9562 48.7064 87.0066 48.782 86.9814 48.908L86.6791 50.0923C86.6573 50.1541 86.6161 50.2072 86.5616 50.2436C86.507 50.2799 86.4421 50.2976 86.3767 50.2939H82.4207C82.2443 50.2939 82.1939 50.2183 82.2191 50.0923L84.2601 42.4071C84.2853 42.2811 84.3861 42.2307 84.5373 42.2307H86.0995C86.2507 42.2307 86.3263 42.2811 86.3011 42.4071L85.4696 45.5064L86.8555 45.0024L87.3594 46.4387L85.016 47.2702L84.6381 48.7064ZM95.8509 44.2969L94.7422 47.2702H95.5486L96.0021 44.2969H95.8509ZM96.884 50.2939H95.2966C95.1454 50.2939 95.0698 50.2183 95.0698 50.0923L95.2966 48.782H94.2131L93.7091 50.0923C93.6874 50.1541 93.6462 50.2072 93.5916 50.2436C93.5371 50.2799 93.4722 50.2976 93.4068 50.2939H91.8193C91.6682 50.2939 91.5926 50.2183 91.6682 50.0923L94.9942 42.4071C95.0245 42.3479 95.072 42.2994 95.1305 42.2679C95.189 42.2364 95.2557 42.2234 95.3218 42.2307H97.6399C97.7911 42.2307 97.8667 42.2811 97.8667 42.4071L97.136 50.0923C97.136 50.2183 97.0352 50.2939 96.884 50.2939ZM113.111 42.4071L109.18 50.0923C109.154 50.1561 109.108 50.21 109.049 50.2462C108.99 50.2824 108.922 50.2991 108.853 50.2939H107.341C107.165 50.2939 107.089 50.2183 107.089 50.0923L107.24 47.2954H107.215L105.854 50.0923C105.828 50.1561 105.782 50.21 105.723 50.2462C105.664 50.2824 105.596 50.2991 105.527 50.2939H103.99C103.838 50.2939 103.763 50.2183 103.763 50.0923L103.914 42.4071C103.914 42.2811 104.015 42.2307 104.166 42.2307H106.056C106.207 42.2307 106.283 42.2811 106.257 42.4071L105.678 46.9426H105.753L107.618 42.4071C107.641 42.3474 107.683 42.2972 107.738 42.2651C107.793 42.233 107.857 42.2208 107.92 42.2307H109.206C109.357 42.2307 109.407 42.2811 109.407 42.4071L108.878 46.9426H108.954L110.743 42.4071C110.775 42.3501 110.823 42.3034 110.881 42.2722C110.939 42.241 111.005 42.2267 111.07 42.2307H112.96C113.111 42.2307 113.162 42.2811 113.111 42.4071Z" fill="#0093D0"/>
<path fill-rule="evenodd" clip-rule="evenodd" d="M107.593 93.407C107.114 92.5503 106.308 91.8952 105.502 91.3913C105.575 91.7054 105.584 92.0312 105.527 92.3487C104.962 91.5864 104.206 90.9867 103.335 90.6101C102.957 91.9204 101.772 93.2811 100.009 94.0118C97.136 99.152 92.8776 100.513 91.1642 102.755C90.6855 105.275 89.2492 109.785 86.5783 113.414C83.9074 117.042 81.438 117.546 80.2034 117.597C71.1827 117.143 65.5385 111.952 64.3794 109.004C65.8158 107.039 67.3994 105.186 69.1165 103.461C68.1842 103.637 63.0691 106.258 56.1651 111.7C47.5224 106.762 42.3317 100.714 39.182 95.2464C43.0372 91.8196 51.0248 86.0494 64.6818 82.1438C55.7115 81.791 44.7759 86.5785 36.9647 90.7865C34.4197 84.588 34.3945 79.9516 34.3945 79.9516C34.3945 79.9516 44.7003 73.5767 57.5509 71.1326C59.6171 72.0901 61.4061 72.1656 61.6329 72.0901C60.8014 72.1656 55.3336 69.4695 55.7115 63.6237C59.2895 63.5481 68.5118 65.1104 71.6363 66.4206C71.6111 65.9671 72.0394 65.06 72.2662 64.4804C79.649 64.0521 96.4305 70.0491 98.8746 74.9374C98.9429 75.3197 98.9683 75.7085 98.9502 76.0964C104.594 78.2886 106.635 80.8335 106.635 80.8335C106.604 82.2838 106.384 83.7238 105.98 85.1171C107.139 86.4526 108.198 89.6022 107.593 93.407Z" fill="black"/>
<path fill-rule="evenodd" clip-rule="evenodd" d="M91.1136 98.0179C91.1136 98.0179 95.246 93.5327 95.5232 91.5673C95.333 91.7613 95.1 91.908 94.8429 91.9957C93.9663 91.668 93.0179 91.581 92.0963 91.7437C91.7184 91.5925 91.5672 90.887 91.5672 90.887C91.5672 90.887 88.0648 94.3391 85.9734 97.1864C85.8222 94.6918 87.838 91.7941 87.838 91.7941C86.9181 91.9394 86.015 92.1758 85.1419 92.4996C88.3419 90.0303 96.1531 88.0901 97.6902 91.9957C95.3216 95.9265 91.1136 98.0179 91.1136 98.0179ZM82.1938 76.3985C82.1182 76.0458 81.0095 75.4662 80.8835 75.3906H80.9087C82.4205 75.6174 83.2269 75.945 83.7056 76.2977C83.5948 76.4091 83.5101 76.5438 83.4578 76.692C83.4055 76.8402 83.3869 76.9982 83.4032 77.1544C83.4284 77.8348 84.0332 78.2631 84.7135 78.3135C84.5845 78.1852 84.5042 78.0159 84.4867 77.8348C84.4854 77.7416 84.5025 77.6491 84.5371 77.5626C84.5717 77.4761 84.6231 77.3974 84.6883 77.3308C85.0411 77.734 85.5198 78.1623 86.6789 78.5403C82.8741 80.2285 81.841 77.7592 82.1938 76.3985ZM80.7323 106.837C80.9729 106.647 81.2601 106.525 81.5638 106.484C81.8395 106.696 82.1452 106.866 82.4709 106.988C82.8201 107.05 83.1758 107.067 83.5292 107.039C83.6453 107.166 83.7238 107.323 83.756 107.492C85.8222 106.232 87.6616 102.957 87.6616 102.957C87.6616 102.957 87.3844 106.131 85.3938 108.122C82.5969 109.609 78.3134 107.215 78.1874 106.661C78.0614 106.106 78.3134 105.35 78.8173 104.468C78.757 104.682 78.7461 104.906 78.7854 105.124C78.8247 105.343 78.9132 105.549 79.0441 105.728C79.0441 105.728 80.8079 102.604 84.3103 101.218C82.1686 104.04 81.1103 105.753 80.7323 106.837Z" fill="#FCFDFB"/>
<path fill-rule="evenodd" clip-rule="evenodd" d="M94.4649 94.8178C93.4914 95.9276 92.4204 96.948 91.2648 97.8667C91.9956 97.0352 95.2712 93.306 95.5232 91.5673L95.4476 91.6429C95.7765 91.2687 96.0559 90.8537 96.2791 90.4083C96.5354 90.5445 96.7726 90.7139 96.9846 90.9122C96.2852 92.2995 95.4405 93.6087 94.4649 94.8178ZM91.5672 90.887H91.542C91.9063 90.4862 92.3023 90.1154 92.7263 89.7783C93.4166 89.7464 94.1085 89.7802 94.7925 89.8791C93.0539 89.8539 92.2223 90.9374 91.8192 91.4918C91.7015 91.3059 91.6163 91.1014 91.5672 90.887ZM85.9482 96.8084C86.0238 94.4146 87.838 91.7941 87.838 91.7941C86.9181 91.9394 86.015 92.1758 85.1419 92.4996C86.3513 91.5673 88.2159 90.7106 90.1561 90.2067C89.6018 90.6854 87.334 92.7264 85.9482 96.8084ZM82.1938 76.3985C82.1182 76.0458 81.0095 75.4662 80.8835 75.3906H80.9087C81.5787 75.4813 82.2374 75.6417 82.8741 75.8694C81.967 77.482 83.2521 79.1198 85.293 79.019C82.6221 79.5734 81.8914 77.5576 82.1938 76.3985ZM79.1449 107.442C78.5905 107.114 78.2126 106.812 78.1874 106.661C78.0614 106.031 78.3134 105.35 78.8173 104.468C78.757 104.682 78.7461 104.906 78.7854 105.124C78.8247 105.343 78.9132 105.549 79.0441 105.728C80.1308 103.974 81.6718 102.546 83.504 101.596C81.3623 102.906 79.2709 106.056 79.1449 107.442ZM80.7323 106.837C80.9729 106.647 81.2601 106.525 81.5638 106.484H81.589C80.9591 107.492 81.6394 108.147 82.1938 108.475C81.5295 108.37 80.8788 108.193 80.2536 107.946C80.3544 107.719 80.5055 107.291 80.7323 106.812V106.837ZM83.756 107.492C85.1923 106.61 86.5025 104.796 87.1829 103.738C86.447 105.59 85.2911 107.246 83.8064 108.576H83.1513C83.4739 108.297 83.688 107.913 83.756 107.492Z" fill="#B5B8BB"/>
<path fill-rule="evenodd" clip-rule="evenodd" d="M105.527 88.5433C104.67 87.3338 102.73 86.0236 102.15 85.8976L101.974 86.2756C102.327 86.6787 102.931 87.1827 103.083 87.8882C102.583 87.565 102.051 87.2948 101.495 87.0819C100.969 87.9335 100.324 88.7056 99.5801 89.3748C98.7738 87.4598 98.8998 86.4771 99.303 85.5196C100.049 85.3949 100.762 85.1235 101.402 84.7213C102.042 84.3191 102.596 83.7939 103.032 83.1763C102.933 83.6782 102.807 84.1745 102.654 84.6629C103.032 85.1165 105.426 86.5275 105.527 88.5433ZM101.445 82.1432C97.7155 82.5715 97.5392 80.203 94.2635 82.0928C94.3391 82.7479 95.1706 83.7306 98.3455 85.3181C97.9675 86.6787 96.6572 87.5858 92.3737 87.6362C88.0901 87.6866 81.7656 90.5591 77.9104 94.1623C82.3451 87.611 90.3831 85.444 90.4083 85.444C90.4335 85.444 74.7607 88.2158 65.3117 94.6411C68.4362 91.5922 75.3655 87.737 79.7498 86.1244C84.1341 84.5117 89.4004 83.529 89.2996 83.4535C87.309 83.5038 69.4945 82.8487 50.1177 95.397C58.9368 88.7197 70.3008 81.992 87.813 81.8408C86.7874 81.5906 85.7777 81.2793 84.7893 80.9085C84.7893 80.9085 90.3075 81.6896 94.3895 80.2534C93.306 80.2534 91.3658 79.1699 89.8792 77.9352C88.3925 76.7005 87.9137 74.1808 87.9137 74.1808C87.1763 74.2369 86.4653 74.4797 85.8476 74.8863C84.9657 74.5588 80.3041 72.0642 76.6253 73.5257C77.3309 73.9288 79.4474 75.1131 79.5482 75.5415C79.523 77.1793 80.027 78.5904 81.816 79.7746C79.3214 79.0439 76.7765 75.9194 70.2 75.6171C71.4599 74.6092 74.1812 74.458 75.1387 74.458C74.0926 73.8365 72.9867 73.3216 71.8378 72.9209C70.3896 72.4225 68.8957 72.068 67.3779 71.8627C68.3606 71.5099 71.0819 71.8123 71.4599 71.8123H71.6614C69.5701 70.754 68.1338 69.9225 64.329 69.7209C64.2282 70.5776 64.5558 71.4595 65.2865 72.2658C65.2613 72.2406 61.8597 70.9556 62.288 67.5791C66.2188 67.7555 73.3749 68.8642 77.7592 72.417C77.6836 72.0894 78.0112 71.1571 75.4158 68.7634C81.438 68.1082 94.5911 73.0973 96.2289 76.3982C96.4114 77.3018 96.4539 78.2281 96.3549 79.1447L97.2872 78.7415C97.3124 78.7415 100.689 79.6738 102.755 81.5636C102.579 81.7652 102.201 82.0172 101.445 82.1432ZM67.9322 75.6423C67.9322 75.6423 55.3839 74.1052 38.7537 80.9841C40.4167 79.3211 54.2752 73.3745 63.8755 73.3745C65.1605 74.6596 67.9322 75.6423 67.9322 75.6423ZM73.5512 106.257C72.9969 108.071 73.6772 109.13 73.6772 109.13C73.6772 109.13 74.0804 105.199 78.4647 101.747L78.5655 101.696C76.323 104.191 75.0883 106.887 75.3403 108.172C75.5922 109.457 82.6223 112.556 84.9153 109.961C84.1089 112.254 81.5892 113.665 80.1782 113.514C78.7671 113.363 75.1135 112.178 73.8536 111.498C71.5858 110.44 71.9134 109.104 72.0394 108.575C72.1654 108.046 72.6693 107.416 73.5512 106.257Z" fill="#0054A4"/>
<path fill-rule="evenodd" clip-rule="evenodd" d="M96.8838 80.3794H96.8082L96.0523 80.1526C89.4254 78.1368 88.997 72.3414 88.997 72.3414C88.997 72.3414 87.0316 72.543 86.1497 73.0973C83.0504 70.8296 79.3716 70.754 79.3716 70.754C79.9439 71.2427 80.3855 71.8662 80.6567 72.5682C78.8425 72.1398 76.1716 72.7698 75.844 72.9461C72.5431 69.5445 65.6895 68.1334 62.2878 67.5791C66.7477 67.7303 73.6014 69.0657 77.759 72.417C77.6834 72.0894 78.011 71.1571 75.4156 68.7634C81.4378 68.1082 94.5908 73.0973 96.2287 76.3982C96.4112 77.3018 96.4537 78.2281 96.3547 79.1447L97.287 78.7415C98.6822 79.1503 100.02 79.7345 101.268 80.4802C100.865 81.1857 98.7484 80.8581 96.8838 80.3794ZM78.0362 94.0111L77.9606 94.0867C82.3953 87.5858 90.2569 85.4944 90.4081 85.444C90.5593 85.3936 91.0632 85.2929 91.7435 85.1921C89.6774 84.6629 82.7481 85.57 79.0441 86.7795C90.2065 82.3196 97.287 85.2425 97.287 85.2425C97.287 85.2425 96.2791 85.822 92.953 86.1496C89.627 86.4771 82.8237 87.9386 78.0362 94.0111ZM87.5104 81.8408C89.7676 82.054 91.9871 82.5622 94.1121 83.3527H94.1373C86.5781 81.9164 71.0817 81.4377 51.7553 94.1623C60.2972 87.9386 71.2329 82.0676 87.5104 81.8408ZM62.9177 74.3572C57.7523 74.7604 47.8245 76.121 38.8542 80.8833C40.6937 79.2959 51.7553 74.5336 60.8012 73.5509C61.4554 73.9387 62.1713 74.2114 62.9177 74.3572ZM84.7135 110.465C84.6817 110.554 84.6394 110.638 84.5875 110.717C84.5615 110.745 84.544 110.78 84.5371 110.818L84.3103 111.145C84.3103 111.171 84.2851 111.171 84.2851 111.196L84.0583 111.473L83.9827 111.549L83.8064 111.775L83.7308 111.851L83.4536 112.103L83.1512 112.229C81.8914 112.607 79.2204 112.027 78.2378 111.649C77.2551 111.271 73.2991 110.566 74.2818 107.038L74.4077 106.761C74.5841 106.383 74.7857 105.98 75.0377 105.552L75.0881 105.501L75.2393 105.249L75.2897 105.148L75.466 104.922L75.5164 104.821L75.6928 104.594L75.7684 104.468L75.9448 104.266C75.9637 104.215 75.9991 104.17 76.0456 104.14L76.222 103.914L76.3227 103.788L76.4991 103.586C76.5495 103.536 76.5747 103.485 76.6251 103.46L76.8267 103.233L76.9527 103.107L77.1543 102.881C77.208 102.852 77.2519 102.808 77.2803 102.755L77.5322 102.553L77.6582 102.427L77.9354 102.175L78.0614 102.074L78.4645 101.747L78.5653 101.696C76.3227 104.191 75.0881 106.887 75.3401 108.172C75.592 109.457 82.6221 112.556 84.9151 109.961C84.8869 110.095 84.8357 110.223 84.7639 110.339C84.7639 110.389 84.7387 110.415 84.7135 110.465Z" fill="#0093D0"/>
<path fill-rule="evenodd" clip-rule="evenodd" d="M102.654 84.6631C102.503 84.7639 101.646 85.1922 99.958 85.6206C100.793 85.7056 101.637 85.6022 102.427 85.3182C102.427 85.3182 104.191 86.1497 105.3 87.586C104.695 86.0741 102.982 85.041 102.654 84.6631ZM101.722 86.7293C101.722 86.7293 102.73 87.3592 103.082 87.838C102.906 87.1576 102.301 86.6789 101.974 86.2757L101.722 86.7293Z" fill="#0093D0"/>
</svg>
