<svg width="150" height="150" viewBox="0 0 150 150" fill="none" xmlns="http://www.w3.org/2000/svg">
<g clip-path="url(#clip0_222_11238)">
<path d="M120.633 42.7833C120.633 42.7833 133.85 25.9999 138.167 0.0166016C126.75 11.2833 110.917 17.4666 108.417 18.0666C105.917 18.6666 101.4 19.0833 97.4668 21.7833C90.5906 17.8803 82.7885 15.9053 74.8834 16.0666C66.9784 15.9053 59.1763 17.8803 52.3001 21.7833C48.3668 19.0666 43.8501 18.6666 41.3501 18.0666C38.8501 17.4666 23.0334 11.2833 11.6001 0.0166016C15.9168 25.9999 29.1334 42.7833 29.1334 42.7833C29.1334 42.7833 27.2001 44.0499 24.6334 57.6833C20.9668 59.4166 17.3945 61.3222 13.9168 63.3999C17.4668 95.45 25.3001 132.283 74.8834 150C122.217 130.7 132.3 95.45 135.85 63.3999C132.361 61.3222 128.789 59.4166 125.133 57.6833C122.55 44.0499 120.633 42.7833 120.633 42.7833Z" fill="#0B1F41"/>
<path d="M62.6169 79.5169C59.6002 81.7169 48.9502 83.8503 49.2835 74.6836C52.8669 77.1503 61.2502 79.2336 62.6169 79.5169Z" fill="#0B1727"/>
<path d="M87.0332 79.5169C88.3999 79.2336 96.7832 77.1503 100.367 74.6836C100.7 83.8503 90.0499 81.7169 87.0332 79.5169Z" fill="#0B1727"/>
<path d="M112.333 85.6168C111.033 88.7668 108.85 93.6501 106.683 94.8835C104.517 96.1168 100.05 98.8835 92.4833 100.9C94 97.4835 94.4 94.4335 86.3 91.5501C89.1666 96.0168 88.1833 98.5335 87.1166 98.8001C86.05 99.0668 83.95 99.5001 82.1166 101.683C80.2833 103.867 78 105.3 74.8833 105.433H74.8333C71.7333 105.283 69.35 103.75 67.6166 101.683C65.8833 99.6168 63.7 99.0668 62.6166 98.8001C61.5333 98.5335 60.55 96.0001 63.4333 91.5501C55.3333 94.4335 55.7333 97.5001 57.25 100.9C49.6666 98.9001 45.2333 96.1001 43.05 94.8835C40.8666 93.6668 38.7 88.7668 37.3833 85.6168C36.8333 84.2668 37.4333 82.2835 38.3 80.4835C39.0805 78.8991 40.0008 77.3876 41.05 75.9668C41.05 75.9668 40.8666 88.2001 65.2 85.1168C67.4833 86.5501 67.4166 91.4835 67.4166 91.4835C67.4166 91.4835 72.95 78.2168 74.85 78.0501H74.8833C76.7833 78.2168 82.3166 91.4835 82.3166 91.4835C82.3166 91.4835 82.2333 86.5501 84.5166 85.1168C108.867 88.2001 108.667 75.9668 108.667 75.9668C108.667 75.9668 113.65 82.4835 112.333 85.6168Z" fill="#0B1727"/>
<path d="M125.75 15.8164C125.75 15.8164 114.55 22.1664 105.983 24.5664C88.9 27.2997 108.967 63.9497 125.75 15.8164Z" fill="white"/>
<path d="M22.3667 15.8164C22.3667 15.8164 33.5667 22.1664 42.1334 24.5664C59.2167 27.2997 39.15 63.9497 22.3667 15.8164Z" fill="white"/>
<path d="M87.0332 79.5169C88.3999 79.2336 96.7832 77.1503 100.367 74.6836C100.7 83.8503 90.0499 81.7169 87.0332 79.5169Z" fill="white"/>
<path d="M62.6169 79.5169C59.6002 81.7169 48.9502 83.8503 49.2835 74.6836C52.8669 77.1503 61.2502 79.2336 62.6169 79.5169Z" fill="white"/>
<path d="M109.183 58.9166C108.987 60.7616 108.365 62.5359 107.367 64.1C103.967 69.2666 86.1166 81.2333 80.0833 70.4666C78.1499 72.1 79.4999 75.85 79.5499 75.95C79.5999 76.05 73.5666 72.75 77.7833 60.5833C78.1666 59.2166 77.5166 56.7666 76.7833 53.4C75.6999 48.2833 74.4166 46.35 76.2666 37.4666C79.3333 22.75 93.6999 25.8333 93.6999 25.8333C93.6999 25.8333 87.7499 42.1833 106.2 46.25C108.417 53.6833 109.767 54.2666 109.183 58.9166Z" fill="#ED1C24"/>
<path d="M70.9002 69.9497C64.0836 73.2997 63.8002 72.9997 62.3669 73.1164C62.1336 73.1497 61.4669 72.9164 61.2502 72.8497C46.6502 69.2331 42.3002 62.0164 41.0502 58.7497C40.8291 58.2076 40.6671 57.6432 40.5669 57.0664C40.9281 57.5714 41.3176 58.0555 41.7336 58.5164C44.8502 62.1164 54.3669 71.0497 70.9002 69.9497Z" fill="#0C2334"/>
<path d="M70.8999 69.9497C63.1166 74.0331 64.9166 76.8331 59.1499 75.0164C52.9333 73.0664 41.7666 68.8164 40.6499 58.8831C40.5802 58.2802 40.5524 57.6732 40.5666 57.0664C40.6611 57.6427 40.8176 58.2071 41.0333 58.7497C42.2833 62.0164 46.6499 69.2331 61.2333 72.8497C61.4666 72.9164 62.1333 73.1497 62.3499 73.1164C63.7999 72.9997 64.0833 73.2997 70.8999 69.9497Z" fill="#6192CC"/>
<path d="M57.2498 100.9C49.6665 98.9001 45.2331 96.1001 43.0498 94.8834C40.8665 93.6667 38.6998 88.7667 37.3998 85.6167C36.8331 84.2667 37.4331 82.2834 38.2998 80.4834C38.0158 82.9937 38.6363 85.5229 40.0498 87.6167C42.4498 91.2167 43.0498 94.8834 57.2498 100.9Z" fill="#6192CC"/>
<path d="M74.8331 105.433C71.7331 105.3 69.3498 103.766 67.6164 101.683C65.8831 99.5997 63.6998 99.0664 62.6164 98.7997C61.5331 98.5331 60.5498 96.0164 63.4331 91.5664C63.3831 91.7164 61.9331 96.6664 64.7664 97.4664C67.5998 98.2664 69.4831 103.916 74.8331 105.433Z" fill="#6192CC"/>
<path d="M74.8499 105.433H74.8332C69.4832 103.917 67.6499 98.3001 64.7666 97.4668C61.8832 96.6335 63.3832 91.7168 63.4332 91.5668C55.3332 94.4501 55.7332 97.5001 57.2499 100.9C43.0499 94.8835 42.4499 91.2168 40.0499 87.6168C38.6337 85.5242 38.013 82.9939 38.2999 80.4835C39.0805 78.8991 40.0008 77.3876 41.0499 75.9668C41.0499 75.9668 40.8666 88.2168 65.1999 85.1168C67.4832 86.5668 67.4166 91.4835 67.4166 91.4835C67.4166 91.4835 72.9499 78.2168 74.8499 78.0668C74.8666 78.3501 76.3666 93.8835 76.3666 97.2168C76.3666 100.55 76.5499 101.2 74.8499 105.433Z" fill="#0C2334"/>
<path d="M112.333 85.6169C111.033 88.7669 108.85 93.6502 106.683 94.8835C104.517 96.1169 100.05 98.8835 92.4834 100.9C94.0001 97.4835 94.4001 94.4335 86.3001 91.5502C89.1668 96.0169 88.1834 98.5335 87.1168 98.8002C86.0501 99.0669 83.9501 99.5002 82.1168 101.684C80.2834 103.867 78.0001 105.3 74.8834 105.434H74.8501C76.5501 101.2 76.3834 100.55 76.3834 97.2002C76.3834 93.8502 74.8834 78.3335 74.8501 78.0502H74.8834C76.7834 78.2169 82.3168 91.4669 82.3168 91.4669C82.3168 91.4669 82.2501 86.5502 84.5334 85.1002C108.867 88.1835 108.667 75.9502 108.667 75.9502C108.667 75.9502 113.65 82.4835 112.333 85.6169Z" fill="#ED1C24"/>
<path d="M47.7667 115.967C45.1115 117.347 42.2344 118.249 39.2667 118.633C37.9193 116.916 36.662 115.131 35.5 113.283C38.4833 114.2 43.75 115.667 47.7667 115.967Z" fill="#6192CC"/>
<path d="M79.5001 110.917C65.3168 123.067 55.3168 126.734 47.2335 127.15C44.8073 124.988 42.5455 122.648 40.4668 120.15C43.5335 119.667 46.9835 118.617 49.9668 116.45C63.6835 117.65 74.3335 112.884 79.5001 110.917Z" fill="#6192CC"/>
<path d="M102.45 116.4C91.3331 113.734 75.1831 121.784 70.5831 123.984C67.5831 125.417 60.5165 129.384 50.6331 129.984C49.9998 129.5 49.3998 129 48.7998 128.5C61.6165 127.45 70.3165 121.034 77.6998 114.55C83.1998 110.917 86.1331 107.567 88.0998 106.417C91.0498 109.384 91.5998 110.467 102.45 116.4Z" fill="#6192CC"/>
<path d="M108.816 119.1C106.099 122.401 103.087 125.447 99.8165 128.2C89.8331 124.317 78.9998 124.117 66.0498 127.634C86.7665 116.467 100.4 116.784 108.816 119.1Z" fill="#EC2027"/>
<path d="M97.9334 129.75C94.1441 132.748 90.1075 135.418 85.8667 137.733C78.5001 138.733 69.4667 138.083 60.7667 136.633C57.9817 135.115 55.2983 133.417 52.7334 131.55C56.4565 131.15 60.1409 130.448 63.7501 129.45C68.5834 128.117 83.4667 123.933 97.9334 129.75Z" fill="#EC2027"/>
<path d="M119.433 101.633C117.717 107.016 113.817 112.616 110.317 117.316C102.45 115.533 95.3834 109.566 90.3501 105.7C105.783 100.05 115.267 100.6 119.433 101.633Z" fill="#6192CC"/>
<path d="M74.8335 110.583C68.8335 113.833 59.4835 114.633 52.1668 114.633C45.8153 114.636 39.5442 113.212 33.8168 110.467C32.5295 108.164 31.3667 105.794 30.3335 103.367C37.9335 99.8999 43.8168 104.383 63.7002 109.433C69.1668 110.833 74.7835 110.55 74.8335 110.583Z" fill="#6192CC"/>
<path d="M81.8832 139.8C79.6499 140.9 77.3165 141.95 74.8832 142.95C71.3577 141.686 67.9027 140.234 64.5332 138.6C69.2332 139.416 75.5499 140.183 81.8832 139.8Z" fill="#EC2027"/>
</g>
<defs>
<clipPath id="clip0_222_11238">
<rect width="150" height="150" fill="white"/>
</clipPath>
</defs>
</svg>
