<svg width="119" height="150" viewBox="0 0 119 150" fill="none" xmlns="http://www.w3.org/2000/svg">
<path d="M8.43213 113.958H9.92413C10.0972 113.958 10.2686 113.991 10.4287 114.057C10.5887 114.123 10.7341 114.22 10.8567 114.342C10.9792 114.465 11.0766 114.61 11.143 114.77C11.2095 114.929 11.2439 115.101 11.2441 115.274V126.096H8.43213V113.958ZM15.9841 123.248C15.9841 123.078 15.9841 123.06 16.0021 123.026L18.8021 122.686V122.806C18.8021 123.59 19.0901 123.862 19.9441 123.862H21.9901C22.8421 123.862 23.1321 123.59 23.1321 122.788V122.482C23.1321 121.816 22.8921 121.646 21.7841 121.482L18.9541 121.082C16.8401 120.776 16.0401 120.026 16.0401 118.282V116.834C16.0401 114.804 17.0801 113.8 19.1761 113.8H22.7561C24.8521 113.8 25.8921 114.8 25.8921 116.816C25.8998 116.89 25.8944 116.965 25.8761 117.038L23.0761 117.378V117.26C23.0761 116.476 22.7861 116.202 21.9341 116.202H20.0241C19.1561 116.202 18.8481 116.492 18.8481 117.276V117.532C18.8481 118.214 19.0481 118.35 20.2121 118.532L23.0421 118.932C25.1721 119.24 25.9401 119.99 25.9401 121.762V123.246C25.9401 125.274 24.9001 126.28 22.8201 126.28H19.1041C17.0241 126.272 15.9841 125.261 15.9841 123.248ZM39.658 116.362H36.102V126.096H33.288V116.362H29.7261V113.962H38.344C38.5171 113.962 38.6885 113.995 38.8486 114.061C39.0086 114.127 39.154 114.224 39.2766 114.346C39.3992 114.469 39.4965 114.614 39.5629 114.774C39.6294 114.933 39.6638 115.105 39.664 115.278L39.658 116.362ZM49.69 123.316H45.258L44.388 126.096H41.506L45.428 113.958H48.574C48.8534 113.958 49.1257 114.046 49.3514 114.211C49.5772 114.376 49.7448 114.608 49.83 114.874L53.44 126.096H50.558L49.69 123.316ZM48.956 120.93L47.474 116.2L46.008 120.94L48.956 120.93ZM67.7439 115.278V126.096H64.9999L60.346 118.6V126.102H57.532V113.958H60.2579L64.9299 121.458V113.958H66.4219C66.5953 113.957 66.7672 113.991 66.9275 114.057C67.0879 114.123 67.2337 114.22 67.3565 114.342C67.4793 114.465 67.5767 114.61 67.6432 114.771C67.7097 114.931 67.7439 115.102 67.7439 115.276V115.278ZM82.3559 122.2V123.068C82.3559 125.098 81.3159 126.104 79.2359 126.104H72.7059V113.958H78.9619C81.0419 113.958 82.0819 114.958 82.0819 116.992V117.622C82.0819 118.578 81.7579 119.208 80.8819 119.754C81.9459 120.2 82.3559 120.93 82.3559 122.2ZM78.1279 116.37H75.5279V118.77H78.1279C78.9959 118.77 79.2699 118.516 79.2699 117.748V117.442C79.2699 116.642 78.9799 116.362 78.1279 116.362V116.37ZM79.5419 122.182C79.5419 121.382 79.2519 121.108 78.3999 121.108H75.5199V123.708H78.3999C79.2519 123.708 79.5419 123.434 79.5419 122.634V122.182ZM96.3178 123.232C96.3178 125.26 95.2778 126.266 93.1818 126.266H89.7198C87.6399 126.266 86.5999 125.266 86.5999 123.232V113.958H89.4139V122.788C89.4139 123.588 89.7038 123.862 90.5558 123.862H92.3558C93.2078 123.862 93.4978 123.59 93.4978 122.788V113.958H94.9898C95.1632 113.958 95.335 113.992 95.4953 114.058C95.6555 114.124 95.8012 114.221 95.9238 114.344C96.0464 114.466 96.1436 114.612 96.2099 114.772C96.2761 114.933 96.3101 115.104 96.3098 115.278L96.3178 123.232ZM109.684 123.692V126.092H101.298V113.958H102.79C102.963 113.958 103.135 113.992 103.295 114.058C103.456 114.124 103.601 114.221 103.724 114.344C103.846 114.466 103.944 114.612 104.01 114.772C104.076 114.933 104.11 115.104 104.11 115.278V123.692H109.684ZM16.4581 142.4H14.3961V149.708H8.43213V128.378H20.3321C23.8201 128.378 25.6701 130.196 25.6701 133.626V137.146C25.6701 139.532 24.7761 141.146 23.0461 141.888L28.1461 149.702H21.1961L16.4581 142.4ZM14.4001 137.33H18.5161C19.4101 137.33 19.7161 137.032 19.7161 136.168V134.616C19.7161 133.752 19.4181 133.454 18.5161 133.454H14.3961L14.4001 137.33ZM49.1 129.514C49.0003 129.185 48.7972 128.897 48.5209 128.692C48.2447 128.487 47.9098 128.377 47.566 128.378H40.016L33.512 149.702H39.626L40.302 147.386V147.36L40.846 145.498H47.942L49.142 149.698H55.258L49.1 129.514ZM42.282 140.426L42.906 138.272L42.962 138.072L44.4 133.114L46.486 140.42L42.282 140.426ZM84.2439 129.98V149.702H78.2799V138.302L74.1039 144.96H72.0459L67.8699 138.31V149.71H61.9059V128.378H67.6579L73.0899 137L78.4899 128.382H82.6439C83.0679 128.382 83.4745 128.55 83.7745 128.85C84.0745 129.149 84.2433 129.556 84.2439 129.98ZM91.8578 144.752C91.8397 144.592 91.8499 144.43 91.8878 144.274L97.8218 143.558V143.758C97.8218 144.624 98.1198 144.922 99.0218 144.922H102.54C103.436 144.922 103.74 144.624 103.74 143.758V143.158C103.74 142.412 103.442 142.264 101.86 142.026L97.0878 141.34C93.3898 140.802 91.9598 139.46 91.9598 136.448V133.328C91.9598 129.898 93.8078 128.08 97.2978 128.08H104.258C107.748 128.08 109.596 129.898 109.596 133.328C109.609 133.488 109.6 133.649 109.568 133.806L103.632 134.522V134.312C103.632 133.448 103.334 133.15 102.432 133.15H99.1558C98.2318 133.15 97.9038 133.478 97.9038 134.312V134.82C97.9038 135.594 98.1038 135.714 99.8118 135.952L104.584 136.638C108.312 137.176 109.684 138.518 109.684 141.59V144.752C109.684 148.18 107.836 150 104.346 150H97.1878C93.6978 150 91.8578 148.18 91.8578 144.752Z" fill="#AB1E3E"/>
<path d="M14.396 137.324H16.454V142.394H14.396V137.324Z" fill="url(#paint0_linear_222_11262)"/>
<path d="M42.2921 140.426H44.2721L42.8221 145.498H40.8501" fill="url(#paint1_linear_222_11262)"/>
<path d="M101.142 71.6302C103.868 71.6302 108.252 71.1182 114.874 69.0602C114.874 69.0602 108.706 80.1882 91.0518 83.3322L87.7879 96.0321C87.7879 96.0321 87.1219 99.8421 76.6619 104.136C75.761 104.329 74.841 104.417 73.9199 104.4C68.6219 104.4 56.966 101.766 50.784 80.0602C50.784 80.0602 45.984 82.3702 39.096 82.3702C38.19 82.3702 37.246 82.3282 36.276 82.2382H36.058C34.21 82.2382 21.1081 81.8202 10.4021 70.3822C10.4021 70.3822 -5.31782 53.3823 6.65213 29.2583C6.65213 29.2583 14.6341 13.7164 28.6521 7.48842C28.6521 7.48842 38.266 2.14844 50.904 2.14844C61.0579 2.15844 73.1599 5.60043 83.7959 18.0204C83.7959 18.0204 85.5859 16.5724 89.2219 16.5724C90.8254 16.5879 92.4186 16.831 93.9538 17.2944C94.0759 17.321 94.201 17.3317 94.3258 17.3264C94.7458 17.3264 95.4178 17.2704 96.2678 17.2704C98.8678 17.2704 103.108 17.7924 106.892 22.0124C110.516 26.0524 114.176 34.1743 108.344 48.7423H108.632C109.612 48.7423 112.914 48.9143 115.962 51.0463C115.962 51.0463 116.324 60.7242 103.748 65.8022H103.724C103.342 65.8022 98.8438 65.9142 97.3398 71.1262C97.3398 71.1182 98.4118 71.6302 101.142 71.6302Z" fill="#AB1E3E"/>
<path fill-rule="evenodd" clip-rule="evenodd" d="M49.9679 64.4699C49.9219 65.3619 49.9379 65.9159 49.9379 65.9159L49.9719 65.9319C49.9559 65.4299 49.9539 64.9439 49.9679 64.4699ZM50.8179 58.9999C51.2877 57.3835 52.002 55.8484 52.9359 54.4479C51.9339 55.7819 51.2579 57.3999 50.8179 58.9999ZM53.2399 52.7719C53.4879 53.0859 53.6679 53.2959 53.7539 53.3919L53.8079 53.3339C53.6079 53.1519 53.4239 52.9639 53.2399 52.7759V52.7719ZM47.6679 32.034V32.014C47.6663 31.9941 47.6697 31.9742 47.6779 31.956C47.6759 31.982 47.6719 32 47.6679 32.034ZM67.5918 62.1659L67.6398 62.1379L67.5918 62.0459C71.8258 33.622 48.1239 30 48.1239 30C48.0579 30.258 47.9959 30.484 47.9379 30.71C47.9239 30.77 47.9079 30.83 47.8939 30.892C48.6939 31.34 49.4465 31.8067 50.1519 32.292L50.3239 32.41C63.2018 41.254 61.5778 55.5879 61.4358 56.6659V56.7299C62.2418 60.3802 63.4938 63.9174 65.1638 67.2619C68.2698 73.4618 71.7138 76.6858 71.7138 76.6858L71.6658 76.8438C71.6498 76.8938 71.6358 76.9418 71.6218 76.9898V76.9998C71.6058 77.0598 71.5878 77.1218 71.5698 77.1798C71.1706 78.5884 71.017 80.0551 71.1158 81.5158C75.8098 78.3158 76.7918 71.9879 76.9918 69.8799C74.3338 70.3219 70.8178 69.1099 67.5918 62.1579V62.1659ZM81.0398 67.4439L81.0858 67.5219H81.1298V67.4959L81.0398 67.4439ZM85.7997 90.1798C85.8317 90.0658 85.8657 89.9498 85.8997 89.8338C85.8595 89.945 85.8261 90.0585 85.7997 90.1738V90.1798Z" fill="white"/>
<path fill-rule="evenodd" clip-rule="evenodd" d="M81.1158 67.5742C81.113 67.5995 81.1069 67.6244 81.0978 67.6482L81.1358 67.6102C81.1299 67.5978 81.1233 67.5857 81.1158 67.5742ZM53.7539 53.4002C53.4557 53.7317 53.1823 54.0846 52.9359 54.4562C53.2 54.1006 53.4915 53.7662 53.8079 53.4562L53.7539 53.4002ZM49.9679 64.4742C50.0534 62.6242 50.3384 60.7889 50.8179 59.0002C50.2939 60.7779 50.0081 62.6173 49.9679 64.4702V64.4742ZM72.0679 12.2144C47.6579 -4.02357 27.428 14.4304 27.208 14.6324C49.5759 6.41039 63.8439 20.9243 63.8439 20.9243C76.6618 33.5023 74.0019 48.1362 74.0019 48.1362L86.6978 45.0003C87.3038 20.6823 72.0679 12.2144 72.0679 12.2144ZM98.3078 19.3523C105.44 29.7523 93.8318 46.0802 93.8318 46.0802L99.2738 51.0382C101.45 49.1042 104.594 48.7422 104.594 48.7422C115.714 25.5363 98.5138 19.4223 98.3078 19.3523Z" fill="#C7C7C7"/>
<path d="M114.872 66.9023C114.655 66.9027 114.44 66.9358 114.234 67.0003C107.652 69.0443 103.482 69.4723 101.142 69.4723H100.584C100.954 69.0497 101.401 68.7021 101.902 68.4483C102.462 68.1651 103.075 67.9997 103.702 67.9623H103.784C104.047 67.9613 104.307 67.9069 104.548 67.8023C107.664 66.5443 110.316 64.9063 112.428 62.9303C114.113 61.374 115.495 59.5195 116.506 57.4603C118.174 54.0223 118.122 51.2603 118.106 50.9643C118.093 50.6311 118.003 50.3053 117.844 50.0125C117.684 49.7196 117.459 49.4677 117.186 49.2763C115.43 48.0606 113.436 47.2323 111.336 46.8464C113.312 41.0464 113.968 35.7764 113.286 31.1204C112.686 27.0024 111.068 23.4544 108.486 20.5764C105.238 16.9545 101.124 15.1185 96.2538 15.1185C95.7058 15.1185 95.2378 15.1385 94.8538 15.1545C94.6538 15.1545 94.4738 15.1725 94.3478 15.1745C92.675 14.6892 90.9435 14.4355 89.2018 14.4205C87.5142 14.398 85.8384 14.7044 84.2678 15.3225C79.4579 10.0005 73.9839 6.00049 68.0219 3.4485C62.6118 1.14517 56.7879 -0.0281703 50.908 0.000513481C45.2775 0.0363222 39.6892 0.974904 34.356 2.7805C32.0668 3.52658 29.8416 4.45626 27.702 5.56049C24.1483 7.18791 20.8477 9.31916 17.9021 11.8885C15.2819 14.1548 12.8763 16.6581 10.7161 19.3664C6.87411 24.1464 4.82012 28.1164 4.73412 28.2824L4.72212 28.3084C1.85613 34.0864 0.27813 39.9644 0.0341305 45.7824C-0.163733 50.4575 0.499973 55.1292 1.99212 59.5643C4.54412 67.1803 8.6461 71.6703 8.8201 71.8563V71.8663C11.3871 74.6166 14.3278 76.9925 17.5561 78.9242C20.182 80.489 22.9799 81.7453 25.894 82.6682C30.992 84.2802 34.96 84.4002 36.058 84.4002H36.2C37.158 84.4862 38.132 84.5302 39.1 84.5302C42.5951 84.5302 46.0686 83.9823 49.394 82.9062C52.194 91.6442 56.2179 98.0882 61.3639 102.078C66.1439 105.784 70.8319 106.562 73.9239 106.562C75.0281 106.578 76.1304 106.464 77.2079 106.222C77.3024 106.198 77.3953 106.167 77.4859 106.13C82.0859 104.238 85.5238 102.172 87.6858 99.9882C89.3178 98.3382 89.7698 97.0802 89.8858 96.5182L92.8018 85.2002C96.3868 84.4741 99.868 83.3066 103.166 81.7242C105.97 80.3724 108.595 78.6753 110.978 76.6722C114.978 73.2723 116.69 70.2403 116.762 70.1123C116.943 69.7837 117.035 69.4135 117.03 69.0384C117.024 68.6632 116.921 68.2959 116.73 67.9728C116.539 67.6497 116.268 67.382 115.942 67.196C115.616 67.01 115.247 66.9122 114.872 66.9123V66.9023ZM91.0578 83.3322L87.7938 96.0322C87.7938 96.0322 87.1278 99.8422 76.6679 104.136C75.7651 104.33 74.843 104.419 73.9199 104.4C68.6219 104.4 56.9659 101.766 50.784 80.0602C50.784 80.0602 45.984 82.3702 39.096 82.3702C38.19 82.3702 37.246 82.3282 36.276 82.2382H36.058C34.21 82.2382 21.1081 81.8202 10.4021 70.3823C10.4021 70.3823 -5.31785 53.3823 6.65211 29.2584C6.65211 29.2584 14.6341 13.7165 28.652 7.48849C28.652 7.48849 38.266 2.14851 50.904 2.14851C61.0579 2.15851 73.1599 5.60049 83.7958 18.0205C83.7958 18.0205 85.5858 16.5725 89.2218 16.5725C90.8254 16.5879 92.4186 16.831 93.9538 17.2945C94.0759 17.321 94.201 17.3318 94.3258 17.3265C94.7458 17.3265 95.4178 17.2705 96.2678 17.2705C98.8678 17.2705 103.108 17.7925 106.892 22.0124C110.516 26.0524 114.176 34.1744 108.344 48.7423H108.632C109.612 48.7423 112.914 48.9143 115.962 51.0463C115.962 51.0463 116.324 60.7243 103.748 65.8023H103.724C103.342 65.8023 98.8438 65.9143 97.3398 71.1263C97.3398 71.1263 98.4118 71.6383 101.14 71.6383C103.868 71.6383 108.25 71.1263 114.872 69.0683C114.874 69.0603 108.706 80.1882 91.0578 83.3322Z" fill="white"/>
<path d="M25.1942 60.6003C39.2681 81.7202 60.8581 70.8562 60.8581 70.8562C43.8941 87.5582 23.4082 76.1282 23.4082 76.1282C1.62227 62.9403 6.89425 40.2743 6.89425 40.2743C13.4002 13.6844 41.0781 15.4744 41.0781 15.4744C63.2141 17.2424 68.718 35.6364 68.804 35.9244C53.2041 17.8544 35.1602 28.2684 35.1602 28.2684C13.5042 40.1843 25.1942 60.6003 25.1942 60.6003ZM90.568 43.7823C90.568 43.7823 90.628 29.3824 85.248 20.8024C85.248 20.8024 90.448 16.6304 95.2839 21.2864C95.2839 21.2864 100.242 33.0784 90.568 43.7823ZM111.124 71.6002C111.124 71.6002 105.08 77.7702 93.5899 79.9462C93.5899 79.9462 93.6519 75.6522 95.4039 73.7782C95.4039 73.7782 100.058 75.3502 111.124 71.6002Z" fill="white"/>
<path d="M112.334 52.7327C112.334 52.7327 111.608 60.3526 102.056 63.1326C102.056 63.1326 98.7898 62.4066 97.4559 64.7046C97.4559 64.7046 96.9739 68.4546 91.4099 69.4226C91.4099 69.4226 88.8959 79.3926 86.0339 89.3465C85.9659 89.4685 83.8779 93.2565 80.7179 94.5765L80.5659 94.6365L80.4059 94.6965C80.4059 94.6965 78.7139 94.3325 78.2299 92.8825L85.9679 62.1606C85.9679 62.1606 83.4299 64.5806 81.6159 63.2506V63.2326C81.6018 63.1862 81.5816 63.1418 81.5559 63.1006C81.5498 63.0854 81.5424 63.0707 81.5339 63.0566C81.5199 63.0266 81.5039 62.9926 81.4839 62.9546C81.4744 62.9377 81.4657 62.9204 81.4579 62.9026L81.3959 62.7906L81.3639 62.7306C80.6659 61.4766 78.4299 58.3106 73.2659 57.2106L73.0139 57.1587C72.8299 57.1227 72.6439 57.0887 72.4539 57.0587C72.2639 57.0287 72.0339 56.9947 71.8179 56.9687C71.6019 56.9427 71.3319 56.9107 71.0799 56.8907C70.8279 56.8707 70.5119 56.8467 70.2159 56.8347L69.8979 55.2667C69.8979 55.2667 85.6579 50.3747 90.3259 49.3467C90.3259 49.3467 98.1858 55.7467 99.1538 56.4827C99.1538 56.4827 102.538 50.4347 112.334 52.7327Z" fill="white"/>
<path d="M86.0378 89.3519C85.9918 89.5059 85.9478 89.6619 85.9038 89.8159V89.8279C85.8635 89.9411 85.8301 90.0566 85.8038 90.1739C85.4218 91.4939 85.0359 92.8039 84.6499 94.0879L84.6398 94.1039C82.8178 97.7558 79.7119 98.6698 79.4399 98.5718C75.9319 97.2398 71.6999 93.2479 71.6999 93.2479C71.5123 93.6296 71.3713 94.0325 71.2799 94.4479C71.1359 95.4634 71.1359 96.4943 71.2799 97.5098C71.4817 98.589 71.8254 99.6368 72.3019 100.626C59.4019 98.4898 54.8879 80.1859 54.8879 80.1859C64.5619 74.0179 64.1999 67.4859 64.1999 67.4859C54.3999 70.7519 50.414 70.0259 50.414 70.0259C50.1622 68.6737 50.0118 67.3046 49.964 65.93C49.948 65.4286 49.948 64.9413 49.964 64.468C50.0518 62.6199 50.3381 60.7867 50.818 59C51.2878 57.3836 52.0021 55.8485 52.936 54.448C53.2 54.0924 53.4916 53.758 53.808 53.448L53.754 53.386L53.808 53.328C53.608 53.142 53.424 52.954 53.24 52.766C47.146 46.51 46.998 38.166 47.43 33.8401C47.43 33.7821 47.442 33.7241 47.446 33.6701L47.464 33.5141C47.476 33.4141 47.486 33.3141 47.498 33.2241C47.51 33.1341 47.518 33.0461 47.528 32.9621C47.538 32.8781 47.554 32.7621 47.566 32.6841C47.566 32.6421 47.58 32.5981 47.584 32.5561C47.598 32.4701 47.61 32.3881 47.622 32.3081V32.2101C47.632 32.1461 47.644 32.0841 47.652 32.0241V32.0001L47.666 31.9221L47.678 31.8481L47.702 31.7181C47.7044 31.6827 47.7111 31.6478 47.722 31.6141C47.722 31.5821 47.734 31.5501 47.74 31.5201C47.746 31.4901 47.74 31.4721 47.754 31.4501C47.768 31.4281 47.754 31.4101 47.754 31.3921C47.786 31.2281 47.816 31.0781 47.852 30.9301L47.864 30.8721C48.664 31.3201 49.4166 31.7867 50.122 32.2721L50.294 32.3901C63.1719 41.234 61.5479 55.568 61.4059 56.646V56.71C62.2119 60.3603 63.4639 63.8975 65.1339 67.2419C68.2399 73.4419 71.6839 76.6659 71.6839 76.6659L71.6359 76.8239C71.6199 76.8739 71.6059 76.9219 71.5919 76.9699V76.9999C71.5759 77.0599 71.5579 77.1219 71.5399 77.1799C71.1407 78.5885 70.9871 80.0552 71.0859 81.5159C71.1119 81.6119 71.1479 81.7319 71.1919 81.8739C72.4237 84.4265 74.192 86.6832 76.3759 88.4899C76.5459 87.1739 80.6479 69.4899 81.0799 67.6259L81.1179 67.5879C81.112 67.5755 81.1053 67.5635 81.0979 67.5519C81.1004 67.5315 81.1051 67.5114 81.1119 67.4919V67.4659L81.0159 67.4219C77.7439 61.854 73.8299 60.92 71.0699 61.148L70.1859 56.818C70.4819 56.83 70.7699 56.848 71.0499 56.874C71.3299 56.9 71.5479 56.92 71.7879 56.952C72.0279 56.984 72.2159 57.008 72.4239 57.042C72.6319 57.076 72.7999 57.106 72.9839 57.142L73.2359 57.194C78.3779 58.31 80.6359 61.464 81.3339 62.714L81.3659 62.774L81.4279 62.886C81.4279 62.904 81.4459 62.922 81.4539 62.938L81.5039 63.04C81.5124 63.054 81.5197 63.0687 81.5259 63.084L81.5859 63.216V63.234C83.3999 64.564 85.9378 62.144 85.9378 62.144L78.2339 92.8879C78.7179 94.3379 80.4099 94.7019 80.4099 94.7019L80.5699 94.6419L80.7219 94.5819C83.8819 93.2619 85.9698 89.4739 86.0378 89.3519Z" fill="#C7C7C7"/>
<path d="M86.0378 89.3486C86.0032 89.5073 85.9585 89.6637 85.9038 89.8166C85.9478 89.6626 85.9918 89.5066 86.0378 89.3526V89.3486Z" fill="#C7C7C7"/>
<path fill-rule="evenodd" clip-rule="evenodd" d="M76.114 64.788L75.19 65.474L75.472 66.4L75.914 67.858L73.992 66.564L72.544 67.452L71.888 67.852L72.114 67.164L72.622 65.62L70.646 63.978L72.728 63.926L73.1 63.914L73.434 63.006L73.896 61.748L74.748 63.91V63.914H74.754L77.188 63.986L76.114 64.788Z" fill="white"/>
<defs>
<linearGradient id="paint0_linear_222_11262" x1="14.396" y1="139.858" x2="16.454" y2="139.858" gradientUnits="userSpaceOnUse">
<stop stop-color="#80162F"/>
<stop offset="1" stop-color="#AB1E3E"/>
</linearGradient>
<linearGradient id="paint1_linear_222_11262" x1="41.3541" y1="142.732" x2="44.9701" y2="143.42" gradientUnits="userSpaceOnUse">
<stop offset="0.07" stop-color="#80162F"/>
<stop offset="0.57" stop-color="#AB1E3E"/>
</linearGradient>
</defs>
</svg>
