<?xml version="1.0" encoding="utf-8"?>
<!-- Generator: Adobe Illustrator 22.1.0, SVG Export Plug-In . SVG Version: 6.00 Build 0)  -->
<svg version="1.1" id="Warstwa_1" xmlns="http://www.w3.org/2000/svg" xmlns:xlink="http://www.w3.org/1999/xlink" x="0px" y="0px"
	 viewBox="0 0 150 54" style="enable-background:new 0 0 150 54;" xml:space="preserve">
<style type="text/css">
	.st0{fill:url(#path16_1_);}
	.st1{fill:url(#path18_1_);}
	.st2{fill:#FFFFFF;}
</style>
<linearGradient id="path16_1_" gradientUnits="userSpaceOnUse" x1="99.2" y1="23.6" x2="150" y2="23.6" gradientTransform="matrix(1 0 0 -1 4.762014e-04 50.6)">
	<stop  offset="0" style="stop-color:#CD2027"/>
	<stop  offset="1" style="stop-color:#A61E25"/>
</linearGradient>
<path id="path16" class="st0" d="M150,10.5v33.1c0,5.8-4.7,10.5-10.5,10.5H99.2c4.3-14.1,8.1-13.9,8.1-13.9c1.2-1,16-13.3,21.3-25.4
	c3.9-9,2.9-12.1,4.6-14.7h6.3C145.3,0,150,4.7,150,10.5z"/>
<linearGradient id="path18_1_" gradientUnits="userSpaceOnUse" x1="-4.862936e-04" y1="23.6" x2="136.6766" y2="23.6" gradientTransform="matrix(1 0 0 -1 4.762014e-04 50.6)">
	<stop  offset="0" style="stop-color:#182C51"/>
	<stop  offset="1" style="stop-color:#1F3E77"/>
</linearGradient>
<path id="path18" class="st1" d="M133.8,5.8c-0.4,0.5-0.6,1.1-0.7,1.7c0.2,0.2,0.2,0.2,0,0.7s-0.3,1.1-0.7,1.2
	c-0.4,0.1-0.8,2.5-1,4.3c0,2.3-0.8,4.5-2.2,6.3c0,0,0,1.5-0.1,2.3s0.9,4.1-1.2,5.5c-2.1,1.4-3.7,1.9-6.9,7c-0.6,0.8-0.9,0.8-0.9,0.8
	c-0.9,0.6-1.9,1-2.9,1.4c-0.3,0.1-0.4,0-0.4,0c-0.7,0.4-1.5,0.7-2.3,0.7c-0.8,2-2.6,2.4-3.2,3c-0.6,0.6-0.6,0.6-1.8,1.6l-3.2,2.5
	c-1.3,1.1-2.6,2-4,2.9c0.1,0.2,0.1,0.4,0.1,0.6c0,0,0,0.5,0.8,0c0.8-0.5,1.1,0.3,1.3,0.6c0.2,0.3,0.2,0.8-0.5,1.6
	c-0.7,1-1.5,2-2.4,2.8h-0.2c-0.6,0.6-1.4,0.9-2.2,0.9H10.5C4.7,54,0.1,49.4,0,43.6V10.6C-0.1,4.8,4.6,0.1,10.4,0c0,0,0.1,0,0.1,0
	h122.7c1.2,0,2.4,0.4,3.4,1C137,2.3,135.8,4.5,133.8,5.8z"/>
<path id="path20" class="st2" d="M133.8,5.8c-0.4,0.5-0.6,1.1-0.7,1.7c0.2,0.2,0.2,0.2,0,0.7s-0.3,1.1-0.7,1.2
	c-0.4,0.1-0.8,2.5-1,4.3c0,2.3-0.8,4.5-2.2,6.3c0,0,0,1.5-0.1,2.3s0.9,4.1-1.2,5.5c-2.1,1.4-3.7,1.9-6.9,7c-0.6,0.8-0.9,0.8-0.9,0.8
	c-0.9,0.6-1.9,1-2.9,1.4c-0.3,0.1-0.4,0-0.4,0c-0.7,0.4-1.5,0.7-2.3,0.7c-0.8,2-2.6,2.4-3.2,3c-0.6,0.6-0.6,0.6-1.8,1.6l-3.2,2.5
	c-1.3,1.1-2.6,2-4,2.9c0.1,0.2,0.1,0.4,0.1,0.6c0,0,0,0.5,0.8,0c0.8-0.5,1.1,0.3,1.3,0.6c0.2,0.3,0.2,0.8-0.5,1.6
	c-0.7,1-1.5,2-2.4,2.8h-0.2c-0.6,0.6-1.4,0.9-2.2,0.9c-1.5,0-1.9-1.5,0.5-3.1L98,50.2c-0.9-0.2-3-1.6-0.7-4.1
	c2.3-2.5,2.1-2.5,2.9-3.2s2.8-2.7,3.1-3.1c0.3-0.5,0.6-1,0.9-1.5c0.1-0.6,0.1-1.1-0.1-1.7l-2.5-0.3c-0.9-0.1-2.7-0.5-3.7-0.5h-1.4
	c-0.2,0-0.5-0.1-0.6-0.3c-1.1,0.3-2.2,0.4-3.3,0.5c-1.3-0.1-3.3-0.6-4.3-0.6h-1.2c-0.6,0.6-1.3,0.9-2.1,1c-0.5,0-0.7-0.6-1.5-1.1
	c-0.7-0.4-1.4-0.7-2.1-0.9c-0.4,0-0.9-0.1-1.7-1.6v-0.2c-0.4-1.4,1.6-1.2,2.5-0.8s2.4,0.6,2.8,1.1s0.8-0.1,1.7,0.1l0.3,0.2
	c1.6-0.2,3.1-0.6,4.6-1.1H93c0.7,0.1,1.5,0.2,2.2,0.2c0.3,0,0.4,0,0.4,0.1c1.6-0.7,3.3-1.3,5.1-1.7c0.1-0.1,0.3,0,0.3,0
	c0.8-0.5,1.7-0.7,2.6-0.6c1.2,0.2,2.3,0.2,3.5,0.1c0.4-0.1,0.7,0.1,0.9,0.1c0.6-0.2,1.2-0.5,1.7-1c0.2-0.2,0.5-0.3,0.8-0.4
	c0.3-0.4,0.7-0.8,1.1-1.1l0.7-0.8c0.1-0.4,0.3-0.8,0.6-1.2v-0.8c0,0-3.4,1.3-5.8,0.4c-1.4,0-2.6-1-3-2.4c0,0-0.9-0.1-0.9-0.6
	c0-0.5-0.7-0.2-0.7-0.5c0-0.3-0.8,0.8-0.9-0.2c-0.1-1,0.8-1.5,2.5-1.7c1.7-0.2,0.5,0.1,0.8,0.1h0.5c0.4,0.1,0.6,0.4,0.6,0.8
	c0,0.3,0.2,0.4,0.2,0.5h0.2c0.5,0,1,0.1,1.5,0.3c0.4,0.1,0.7,0.2,1.1,0.2l2.2-0.2c0.6,0,0.6,0.1,0.5,0.2l0.8-0.4h0.3
	c0,0,2-3.2,4.1-3.2s2,0.2,2.3,0.4s0.4,0.1,0.6,0.1c0.2,0,0.4,0.1,0.6,0.3l0.4-1.1c0,0-0.2,0-0.3-0.3v-0.2c0,0-0.5,0.1-0.3-0.5
	c0.2-0.3,0.3-0.7,0.4-1.1c0.1-0.7,0.5-1.3,1-1.7c0.3-0.3,0.3-0.5,0.5-0.7c0.7-0.8,1.7-1.2,2.8-1.3c0.8-0.1,1.6,0.3,2.1,1
	c1-1.4,2-2.9,2.8-4.5c-0.5-0.4-0.6-1.1-0.3-1.7V6.9c-0.9-0.2-1.8-0.7-2.5-1.3c0.6-4,3.3-5.5,5.9-5.6h0.3c1.2,0,2.4,0.4,3.4,1
	C137,2.3,135.8,4.5,133.8,5.8z"/>
<g id="European" transform="translate(4.7620138e-4)">
	<path id="path22" class="st2" d="M11.9,8.9c0-0.1,0.2-0.2,0.3-0.2h5.7c0.1,0,0.2,0.1,0.2,0.2c0,0,0,0,0,0v1.2l-0.2,0.2h-4.1v2.3
		h3.4c0.2,0,0.3,0.1,0.3,0.3v1.1c0,0.2-0.1,0.3-0.3,0.3h-3.4v2.4h4.1c0.1,0,0.2,0.2,0.2,0.3V18c0,0.2-0.1,0.3-0.2,0.3h-5.7
		c-0.2,0-0.3-0.1-0.3-0.3L11.9,8.9z M19.7,8.9c0-0.1,0.1-0.2,0.3-0.2h1.3c0.2,0,0.3,0.1,0.3,0.2v5.7c0,1.1,0.9,2,2,2s2-0.9,2-2V8.9
		c0-0.1,0.1-0.2,0.3-0.2h1.3c0.1,0,0.3,0.1,0.3,0.2v5.8c0,2.1-1.7,3.9-3.9,3.9c-2.2,0-3.9-1.7-3.9-3.9L19.7,8.9z M29.6,8.9
		c0-0.1,0.1-0.2,0.3-0.2h3.9c1.7-0.1,3,1.2,3.1,2.9c0,0,0,0.1,0,0.1c-0.1,1.3-0.9,2.4-2.1,2.8l1.9,3.5c0.1,0.2,0,0.4-0.2,0.4h-1.7
		l-1.9-3.8h-1.5V18c0,0.2-0.1,0.3-0.3,0.3h-1.2c-0.2,0-0.3-0.1-0.3-0.3L29.6,8.9z M33.7,13.1c0.8,0,1.4-0.6,1.4-1.4
		c0-0.8-0.6-1.4-1.4-1.4h-2.3v2.8H33.7z M42.9,8.5c2.8,0,5,2.2,5,5s-2.2,5-5,5s-5-2.2-5-5S40.1,8.5,42.9,8.5z M42.9,16.6
		c1.8,0,3.2-1.4,3.2-3.2c0,0,0,0,0,0c-0.1-1.7-1.5-3.1-3.2-3.2c-1.8,0-3.2,1.4-3.2,3.2l0,0C39.7,15.2,41.1,16.6,42.9,16.6L42.9,16.6
		z M49.4,8.9c0-0.1,0.2-0.2,0.3-0.2H53c1.7,0,3,1.3,3.1,3c0.1,1.7-1.3,3.1-3,3.2c0,0-0.1,0-0.1,0h-1.7V18c0,0.2-0.1,0.3-0.3,0.3
		h-1.3c-0.2,0-0.3-0.1-0.3-0.3V8.9z M52.9,13.2c0.8-0.1,1.4-0.7,1.4-1.5c-0.1-0.7-0.7-1.3-1.4-1.3h-1.6v2.8H52.9z M57.4,8.9
		c0-0.1,0.1-0.2,0.3-0.2h5.6c0.2,0,0.3,0.1,0.3,0.2v1.2c0,0.1-0.1,0.2-0.3,0.2h-4.1v2.3h3.5c0.1,0,0.2,0.1,0.2,0.3v1.1
		c0,0.2-0.1,0.3-0.2,0.3h-3.5v2.4h4.1c0.2,0,0.3,0.1,0.3,0.3V18c0,0.2-0.1,0.3-0.3,0.3h-5.6c-0.2,0-0.3-0.1-0.3-0.3V8.9z M64,17.9
		l4.4-9.3l0.2-0.2h0.2c0.1,0,0.2,0.1,0.2,0.2l4.3,9.3c0.1,0.2,0,0.4-0.3,0.4h-1.2c-0.2,0-0.3-0.1-0.4-0.3l-0.7-1.5h-4.1L65.9,18
		c-0.1,0.2-0.2,0.3-0.4,0.3h-1.2C64.1,18.3,64,18.1,64,17.9z M70.1,15L68.7,12h-0.1L67.3,15H70.1z M74.3,8.8c0-0.2,0.1-0.3,0.2-0.3
		h0.4l5.8,6.2V8.9c0-0.1,0.1-0.2,0.3-0.2h1.2c0.2,0,0.3,0.1,0.3,0.2v9.4c0,0.1-0.1,0.2-0.3,0.2h-0.3l-5.8-6.3V18
		c0,0.2-0.1,0.3-0.3,0.3l0,0h-1.3c-0.1,0-0.2-0.1-0.2-0.3L74.3,8.8z"/>
</g>
<g id="League" transform="translate(4.7620138e-4)">
	<path id="path25" class="st2" d="M11.9,22.5c0-0.2,0.1-0.3,0.3-0.3h1.3c0.2,0,0.3,0.1,0.3,0.3v7.8h3.5c0.2,0,0.3,0.1,0.3,0.2v1.2
		c0,0.1-0.1,0.2-0.3,0.2h-5.1l-0.3-0.2L11.9,22.5z M18.7,22.5c0-0.2,0.1-0.3,0.3-0.3h5.6c0.2,0,0.3,0.1,0.3,0.3v1.1
		c0,0.2-0.1,0.3-0.3,0.3h-4.1v2.3H24c0.1,0,0.2,0.1,0.2,0.2v0v1.2c0,0.1-0.1,0.2-0.2,0.2h0h-3.5v2.5h4.1c0.2,0,0.3,0.1,0.3,0.2v1.2
		c0,0.1-0.1,0.2-0.3,0.2H19c-0.2,0-0.3-0.1-0.3-0.2V22.5z M25.3,31.6l4.4-9.4h0.6l4.3,9.4c0.1,0.2-0.1,0.3-0.3,0.3h-1.2
		c-0.2,0-0.3,0-0.4-0.2L32,30.2h-4.1l-0.7,1.5c-0.1,0.1-0.2,0.2-0.4,0.2h-1.2C25.4,31.9,25.3,31.7,25.3,31.6z M31.4,28.6l-1.4-3
		h-0.1l-1.3,3H31.4z M39.8,22.1c1.3,0,2.5,0.5,3.4,1.3c0.1,0.1,0.1,0.2,0,0.3c0,0,0,0,0,0l-0.9,0.9c-0.1,0.2-0.2,0.2-0.3,0
		c-0.6-0.5-1.3-0.8-2.1-0.8c-1.8,0.3-3,2-2.7,3.8c0.2,1.4,1.3,2.4,2.7,2.7c0.6,0,1.2-0.2,1.7-0.4v-1.2h-1.2c-0.1,0-0.2-0.1-0.2-0.2
		l0,0v-1.1c0-0.2,0.1-0.3,0.2-0.3h2.7c0.2,0,0.3,0.1,0.3,0.3v3.5c0,0.2-0.1,0.2-0.2,0.3c-1,0.6-2.2,0.9-3.4,0.9c-2.8,0-5-2.2-5-5
		S37,22.1,39.8,22.1z M45,22.5c0-0.2,0.1-0.3,0.3-0.3h1.3c0.1,0,0.2,0.1,0.2,0.3v5.7c-0.1,1.1,0.8,2,1.9,2.1c0.1,0,0.1,0,0.2,0
		c1.1,0,2-0.9,2-2c0,0,0-0.1,0-0.1v-5.7c0-0.2,0.1-0.3,0.3-0.3h1.3c0.1,0,0.2,0.1,0.2,0.3v5.8c0.1,2-1.6,3.7-3.6,3.8
		c-0.1,0-0.1,0-0.2,0c-2.1,0.1-3.8-1.6-3.9-3.7c0,0,0-0.1,0-0.1V22.5z M54.9,22.5c0-0.2,0.1-0.3,0.2-0.3h5.7c0.2,0,0.3,0.1,0.3,0.3
		v1.1l-0.3,0.3h-4.1v2.3h3.4l0.3,0.2v1.2c0,0.1-0.2,0.2-0.3,0.2h-3.4v2.5h4.1c0.1,0,0.3,0.1,0.3,0.2v1.2l-0.3,0.2h-5.7
		c-0.1,0-0.2-0.1-0.2-0.2l0,0V22.5z"/>
</g>
<g id="of" transform="translate(4.7620138e-4)">
	<path id="path28" class="st2" d="M67,26.6c1.5,0,2.7,1.2,2.7,2.7S68.5,32,67,32c-1.5,0-2.7-1.2-2.7-2.7S65.5,26.6,67,26.6z M67,31
		c0.9,0,1.7-0.8,1.7-1.7c0-0.9-0.8-1.7-1.7-1.7c-0.9,0-1.7,0.8-1.7,1.7c0,0,0,0,0,0C65.3,30.2,66.1,30.9,67,31z M70.6,26.9
		c0-0.1,0.1-0.1,0.2-0.1h3c0.1,0,0.1,0,0.1,0.1v0.6c0,0.1,0,0.2-0.1,0.2h-2.2V29h1.8c0.1,0,0.2,0.1,0.2,0.2v0.6
		c0,0.1-0.1,0.1-0.2,0.1h-1.8v1.9c0,0.1-0.1,0.1-0.2,0.1h-0.6c-0.1,0-0.2,0-0.2-0.1L70.6,26.9z"/>
</g>
<g id="Football" transform="translate(4.7620138e-4)">
	<path id="path31" class="st2" d="M11.9,36.1c0.1-0.1,0.2-0.2,0.3-0.3h5.7c0.1,0,0.2,0.2,0.2,0.3v1.1c0,0.2-0.1,0.3-0.2,0.3h-4.1
		v2.6h3.4c0.2,0,0.3,0.1,0.3,0.3v1.1c0,0.2-0.1,0.3-0.3,0.3h-3.4v3.5c0,0.2-0.1,0.3-0.3,0.3h-1.3c-0.2,0-0.3-0.1-0.3-0.3L11.9,36.1z
		 M24.1,35.7c2.8,0,5,2.2,5,5s-2.2,5-5,5s-5-2.2-5-5S21.3,35.7,24.1,35.7z M24.1,43.8c1.8,0,3.2-1.4,3.2-3.2l0,0
		c0-1.8-1.4-3.2-3.2-3.2c0,0,0,0,0,0c-1.7,0.1-3.1,1.4-3.2,3.2C20.9,42.4,22.3,43.8,24.1,43.8C24.1,43.8,24.1,43.8,24.1,43.8z
		 M35.2,35.7c2.8,0,5,2.2,5,5s-2.2,5-5,5s-5-2.2-5-5S32.4,35.7,35.2,35.7z M35.2,43.8c1.8,0,3.2-1.4,3.2-3.2l0,0
		c0.3-1.7-0.8-3.4-2.6-3.7s-3.4,0.8-3.7,2.6c-0.1,0.4-0.1,0.8,0,1.1c-0.1,1.7,1.3,3.1,3,3.2C35.1,43.8,35.2,43.8,35.2,43.8z
		 M43.3,37.5h-2.1c-0.2,0-0.3-0.1-0.3-0.3v-1.1c0-0.2,0.1-0.3,0.3-0.3h6c0.2,0,0.3,0.1,0.3,0.3v1.1c0,0.2-0.1,0.3-0.3,0.3h-2.1v7.8
		c0,0.2-0.1,0.3-0.2,0.3h-1.3c-0.2,0-0.3-0.1-0.3-0.3V37.5z M49,36.1c0-0.1,0.1-0.3,0.2-0.3h3.2c1.5-0.1,2.8,1,2.9,2.5
		c0,0,0,0.1,0,0.1c0,1-0.6,1.8-1.5,2.2c1,0.3,1.8,1.2,1.8,2.3c-0.1,1.5-1.3,2.7-2.9,2.7c0,0-0.1,0-0.1,0h-3.4
		c-0.1,0-0.2-0.1-0.2-0.3V36.1z M52.2,39.9c0.7,0,1.2-0.5,1.2-1.2s-0.5-1.2-1.2-1.2h-1.4v2.4H52.2z M52.4,43.8
		c0.7,0.1,1.2-0.4,1.3-1.1c0,0,0-0.1,0-0.1c-0.1-0.7-0.7-1.2-1.4-1.2c0,0,0,0,0,0h-1.5v2.4L52.4,43.8z M56.3,45.1l4.3-9.4h0.6
		l4.3,9.4c0.1,0.2,0,0.4-0.2,0.4h-1.2c-0.2,0-0.3-0.1-0.4-0.3L63,43.7h-4.2l-0.7,1.5c0,0.1-0.1,0.3-0.4,0.3h-1.2
		C56.3,45.5,56.2,45.3,56.3,45.1z M62.3,42.2l-1.4-3.1l-1.4,3.1H62.3z M66.8,36.1c0-0.1,0.1-0.3,0.2-0.3h1.3c0.2,0,0.3,0.1,0.3,0.3
		c0,0,0,0,0,0v7.8h3.5c0.2,0,0.3,0.1,0.3,0.3c0,0,0,0,0,0v1.1c0,0.2-0.1,0.3-0.3,0.3l0,0H67c-0.1,0-0.2-0.1-0.2-0.3V36.1z
		 M73.8,36.1c0-0.2,0.1-0.3,0.3-0.3l0,0h1.3c0.1,0,0.2,0.2,0.2,0.3v7.8h3.6c0.1,0,0.2,0.1,0.2,0.3v1.1c0,0.2-0.1,0.3-0.2,0.3h-5.1
		c-0.2,0-0.3-0.1-0.3-0.3c0,0,0,0,0,0V36.1z"/>
</g>
</svg>
