<svg width="150" height="150" viewBox="0 0 150 150" fill="none" xmlns="http://www.w3.org/2000/svg">
<g clip-path="url(#clip0_222_11179)">
<path fill-rule="evenodd" clip-rule="evenodd" d="M144.041 57.4679C139.268 48.4826 133.807 50.8109 129.902 52.663C125.086 49.4986 120.377 44.3338 116.673 46.3129C115.127 45.5615 103.941 35.8035 103.941 35.8035C103.941 35.8035 103.867 37.0841 103.475 37.8038C98.7335 35.7612 81.3871 24.2252 79.4927 22.6588C79.7679 23.8971 79.969 24.6803 80.6251 26.4477C60.6964 11.4085 47.848 6.8153 42.9584 4.64568C45.0328 6.61421 47.0119 10.0009 49.425 14.1073C45.8901 12.1282 20.786 3.38624 14.3301 2.50781C18.1401 5.83103 31.814 19.7801 42.715 31.1256C39.6881 30.5858 30.798 31.0833 22.8392 31.6971C26.4376 36.7243 29.9937 40.1851 33.2534 42.577C22.6169 44.8207 10.2872 47.964 0 51.1813C8.81606 52.6207 34.6716 60.4102 51.8062 67.5223C48.5359 78.0634 55.4258 84.5829 68.0625 87.3029C72.8039 87.6098 79.6726 88.6787 86.7424 88.5094C85.6629 90.4991 84.9644 91.4304 80.1277 94.3938C87.0599 93.8117 97.6752 88.7634 102.036 88.4459C116.514 87.3028 130.135 84.53 132.072 92.4358C145.851 82.9319 146.709 79.4499 148.518 76.4653C151.958 63.6487 148.995 61.0028 144.041 57.4679V57.4679Z" fill="#00452E"/>
<path fill-rule="evenodd" clip-rule="evenodd" d="M42.0906 49.615C43.403 49.9431 45.2974 48.8848 47.9327 48.0593C46.6627 47.9534 43.8369 47.837 40.1009 46.3871C34.8833 47.2443 27.0303 48.853 18.8916 51.0756C31.7188 54.24 42.4822 57.976 49.044 60.516C45.6044 57.6902 42.5246 53.9013 42.0906 49.615V49.615ZM84.6046 31.8242C84.6046 31.8242 63.4799 18.616 58.9713 16.9438C60.5377 19.3991 61.4267 20.5951 61.8395 21.8651C64.8558 22.7647 84.6046 31.8242 84.6046 31.8242V31.8242ZM34.7245 14.626C38.8415 15.9595 53.5314 21.6852 60.9928 26.2043C62.6967 28.5644 63.6387 29.6122 64.6653 31.2527C61.1304 29.8451 57.6166 29.083 56.6112 28.8185C46.0489 22.3519 38.0477 16.8379 34.7245 14.626V14.626Z" fill="#A5262A"/>
<path fill-rule="evenodd" clip-rule="evenodd" d="M128.791 69.7668C128.473 70.9521 127.849 72.5397 127.055 73.4287L124.526 76.2545L123.234 72.7196C122.858 71.6767 122.423 70.6555 121.933 69.661C118.969 70.0949 115.847 70.677 112.249 71.0262C107.825 71.4601 102.332 68.6979 96.13 65.5969C95.663 66.2539 95.2319 66.9358 94.8388 67.6395L92.9761 70.9098L90.9547 67.7242C90.235 66.5706 90.0233 64.782 89.9704 64.2528C89.9142 63.7005 89.9106 63.1441 89.9598 62.5912C82.8689 59.342 75.1112 56.7279 67.0994 58.2096C72.9733 51.2351 85.6629 55.4579 94.5742 59.7125C102.321 64.782 107.497 66.4859 111.603 66.6447C111.561 65.9885 111.497 65.2688 111.391 64.4962L110.873 60.7814L114.439 62.1255C115.72 62.6123 116.99 63.9247 117.339 64.3057C117.718 64.7094 118.062 65.1449 118.366 65.6075C124.6 63.6601 130.325 60.3051 145.259 67.3643C143.428 63.5966 138.644 61.8715 135.173 60.4004C135.585 60.3369 137.744 59.8712 139.078 59.6595C136.485 54.9922 134.262 57.2148 131.405 57.1618C131.997 57.9133 132.378 58.0509 133.098 59.5749C131.278 57.9027 126.388 57.3523 122.038 56.9713C115.847 58.1355 113.931 53.3624 121.763 53.6904C117.89 51.2033 113.455 51.1081 114.99 55.1404C112.672 54.1773 111.73 51.3515 114.016 49.1607C112.397 48.5574 108.111 44.5675 105.899 42.2708C102.914 41.8263 94.1826 36.7674 89.4201 33.4865C90.2879 34.8836 90.6901 36.016 91.2298 37.4236C88.3511 35.9207 75.7038 32.153 71.735 31.6768C72.6134 33.857 73.2273 35.2752 73.3437 36.7886C70.4968 34.492 53.6796 32.5658 50.6527 32.8198C53.0657 35.0211 55.6163 38.81 56.6535 42.5989C55.3094 41.6782 48.6736 38.5984 46.4193 38.7254C44.165 38.8524 42.2388 39.1275 39.6353 39.2757C46.4193 43.3504 47.7422 43.9007 63.8715 48.748C62.3898 49.1925 59.0242 49.8486 54.558 50.4731C56.8123 52.3146 60.2943 53.828 62.3369 54.4842C60.3789 55.1404 56.717 55.6696 52.7694 55.4791C55.3941 58.9928 59.7651 60.919 62.7285 62.4642C51.4464 85.4727 80.8051 82.3294 84.086 82.0966C82.5831 79.7894 82.2339 79.0803 81.7682 75.8206C107.528 93.0505 119.139 75.9687 132.59 85.1975C138.401 79.5777 139.491 75.3655 139.628 71.8306C135.638 69.9361 132.23 69.2376 128.939 69.1424C128.897 69.3434 128.844 69.5551 128.791 69.7668V69.7668ZM97.3259 48.5998C99.1463 47.933 94.8071 42.165 93.4418 40.6516C103.147 44.07 103.697 50.3355 100.755 52.1453C102.554 53.3518 102.597 54.6535 102.914 55.8918C99.485 54.59 96.2887 52.1558 94.1085 53.574C92.0977 55.7013 80.4452 55.6272 78.6143 46.0492C79.4821 46.7583 80.1277 47.5626 81.5671 48.2611C80.985 46.8747 79.842 44.8744 80.8897 43.2657C80.2971 42.1544 75.1535 40.6939 72.3277 44.8638C71.1318 29.7506 92.1823 43.7525 97.3259 48.5998Z" fill="#FADA0E"/>
<path fill-rule="evenodd" clip-rule="evenodd" d="M122.959 66.9408C123.806 66.1471 125.51 65.9248 126.632 65.9883C127.447 67.5229 126.177 71.0472 125.362 71.968C124.536 69.7243 123.753 68.1579 122.959 66.9408ZM113.826 68.9517C114.789 69.2269 116.154 68.7295 116.98 68.232C116.98 66.7503 114.609 64.5807 113.625 64.1997C113.9 66.2212 113.932 67.7134 113.826 68.9517ZM95.6115 62.6439C95.0188 61.8502 93.6218 61.4374 92.6587 61.3422C91.7485 62.5275 92.3094 65.6602 92.8704 66.5493C93.8864 64.7712 94.7754 63.5647 95.6115 62.6439V62.6439ZM84.3718 44.7578C85.8429 45.5833 89.6318 47.8588 91.3358 49.277C86.3615 52.5896 83.8215 46.2289 84.3718 44.7578Z" fill="white"/>
<path d="M16.9973 111.063V111.095C17.2338 111.153 17.4616 111.242 17.6746 111.359C17.8504 111.475 17.987 111.641 18.0662 111.836C18.1757 112.104 18.2263 112.393 18.2144 112.682C18.2144 113.275 18.045 113.709 17.7275 114.005C17.41 114.302 16.902 114.439 16.2035 114.439H12.6475V107.856H16.2247C16.8491 107.856 17.336 107.994 17.6746 108.258C18.0133 108.523 18.1932 108.946 18.1932 109.507C18.1932 110.068 18.098 110.333 17.9075 110.566C17.717 110.799 17.41 110.968 16.9973 111.063V111.063ZM15.8966 109.571C15.8828 109.537 15.8612 109.507 15.8336 109.483C15.806 109.459 15.7732 109.442 15.7378 109.433C15.6091 109.407 15.4776 109.396 15.3463 109.401H14.8806V110.46H15.3463C15.4776 110.465 15.609 110.454 15.7378 110.428C15.7726 110.418 15.8047 110.4 15.8321 110.376C15.8595 110.353 15.8815 110.323 15.8966 110.291C15.9224 110.172 15.933 110.051 15.9283 109.931C15.9336 109.81 15.9229 109.689 15.8966 109.571V109.571ZM15.8966 111.963C15.8665 111.891 15.8095 111.834 15.7378 111.804C15.609 111.778 15.4776 111.767 15.3463 111.772H14.8806V112.894H15.3463C15.4776 112.9 15.6091 112.889 15.7378 112.862C15.7726 112.852 15.8047 112.834 15.8321 112.811C15.8595 112.787 15.8815 112.758 15.8966 112.725C15.939 112.472 15.939 112.215 15.8966 111.963ZM31.7084 114.439L31.4649 113.455H29.5281L29.2953 114.439H27.0834L28.9461 107.856H32.1105L33.9626 114.439H31.7084ZM30.5336 109.656H30.4383L29.8986 111.92H31.0839L30.5336 109.656ZM47.8059 111.984L48.716 114.439H46.3771L45.7103 112.248H45.2552V114.439H42.9798V107.856H46.4935C47.0862 107.856 47.5201 107.93 47.827 108.089C47.9679 108.159 48.0931 108.258 48.195 108.378C48.2968 108.498 48.3733 108.637 48.4197 108.788C48.5255 109.095 48.5679 109.518 48.5679 110.058C48.5793 110.468 48.5294 110.879 48.4197 111.275C48.3112 111.58 48.0921 111.833 47.8059 111.984V111.984ZM46.2607 109.624C46.2557 109.584 46.2389 109.547 46.2125 109.516C46.1861 109.486 46.1513 109.465 46.1125 109.454C45.9594 109.423 45.8031 109.409 45.6468 109.412H45.2552V110.767H45.6574C45.7999 110.776 45.9429 110.761 46.0807 110.724C46.1212 110.713 46.158 110.692 46.1877 110.662C46.2174 110.632 46.2388 110.596 46.2501 110.555C46.2873 110.406 46.3016 110.253 46.2924 110.1C46.2982 109.941 46.2875 109.781 46.2607 109.624V109.624ZM60.5378 112.809C60.686 112.883 60.9717 112.915 61.3739 112.915C61.8125 112.919 62.2509 112.894 62.6863 112.841V114.365C62.4746 114.408 62.1888 114.439 61.8396 114.471C61.4903 114.503 61.1517 114.513 60.8447 114.513C59.9769 114.513 59.3313 114.408 58.9291 114.217C58.729 114.121 58.5524 113.982 58.4116 113.81C58.2708 113.638 58.1693 113.437 58.1142 113.222C57.9872 112.767 57.9237 112.079 57.9237 111.148C57.9237 110.216 57.9872 109.518 58.1142 109.063C58.1707 108.85 58.2728 108.651 58.4135 108.481C58.5542 108.311 58.7301 108.174 58.9291 108.079C59.3313 107.877 59.9769 107.782 60.8447 107.782C61.1517 107.782 61.4692 107.803 61.8078 107.835C62.0925 107.859 62.3753 107.902 62.6545 107.962V109.454C61.956 109.401 61.5221 109.38 61.3739 109.38C60.9717 109.38 60.686 109.412 60.5378 109.486C60.3896 109.56 60.2944 109.698 60.2626 109.91C60.1921 110.734 60.1921 111.562 60.2626 112.386C60.2944 112.598 60.3896 112.746 60.5378 112.809V112.809ZM76.9952 112.841V114.439H72.095V107.856H76.9952V109.454H74.3599V110.333H76.5401V111.889H74.3599V112.841H76.9952ZM86.5203 114.439V107.856H88.7958V112.756H91.0395V114.439H86.5203ZM105.983 113.296C105.941 113.499 105.851 113.688 105.72 113.848C105.589 114.008 105.422 114.135 105.232 114.217C104.819 114.418 104.131 114.513 103.158 114.513C102.184 114.513 101.496 114.418 101.083 114.217C100.893 114.135 100.726 114.008 100.595 113.848C100.464 113.688 100.374 113.499 100.332 113.296C100.237 112.873 100.184 112.153 100.184 111.148C100.184 110.142 100.237 109.423 100.332 108.999C100.376 108.796 100.467 108.606 100.597 108.445C100.728 108.283 100.894 108.154 101.083 108.068C101.496 107.877 102.184 107.782 103.158 107.782C104.131 107.782 104.819 107.877 105.232 108.068C105.421 108.154 105.588 108.283 105.718 108.445C105.848 108.606 105.939 108.796 105.983 108.999C106.079 109.423 106.132 110.142 106.132 111.148C106.132 112.153 106.079 112.873 105.983 113.296ZM103.814 109.867C103.793 109.656 103.74 109.518 103.655 109.465C103.57 109.412 103.401 109.38 103.158 109.38C102.914 109.38 102.745 109.402 102.66 109.465C102.575 109.529 102.523 109.656 102.501 109.867C102.48 110.079 102.47 110.502 102.47 111.148C102.47 111.793 102.48 112.217 102.501 112.428C102.523 112.64 102.575 112.778 102.66 112.831C102.745 112.883 102.904 112.915 103.158 112.915C103.328 112.928 103.499 112.899 103.655 112.831C103.74 112.778 103.793 112.64 103.814 112.428C103.835 112.217 103.846 111.783 103.846 111.148C103.846 110.513 103.835 110.079 103.814 109.867ZM119.372 114.439L117.826 111.37H117.773V114.439H115.604V107.856H117.922L119.234 110.396H119.297V107.856H121.467V114.439H119.372ZM135.099 114.439L134.855 113.455H132.918L132.686 114.439H130.484L132.336 107.856H135.501L137.363 114.439H135.099ZM133.924 109.656H133.839L133.289 111.92H134.474L133.924 109.656Z" fill="#A5262A"/>
<path d="M25.4108 126.505V141.882C25.4108 145.671 23.9396 147.195 20.2672 147.195H13.5572V126.124H12.8799L13.3773 121.192H20.2672C23.9396 121.192 25.4108 122.705 25.4108 126.505V126.505ZM18.4151 142.253H20.5529V126.124H18.4151V142.253ZM43.4239 126.505V134.971C43.4239 136.866 43.064 138.199 42.2491 139.057L44.4611 147.195H39.6032L37.7511 140.284H36.788V147.195H31.9408V126.124H31.2528L31.7609 121.192H38.4285C41.9951 121.223 43.4239 122.747 43.4239 126.505V126.505ZM36.788 135.342H38.5766V126.124H36.788V135.342ZM52.5574 126.124H51.806L52.314 121.192H60.6221L64.2946 147.195H59.4791L58.9816 143.481H54.9176L54.4096 147.195H49.5941L52.5574 126.124ZM58.3043 138.538L56.9496 128.695L55.5949 138.538H58.3043ZM76.9313 125.975H74.4335V142.401H76.9313V136.675H75.5025L75.7882 131.743H81.7785V142.031C81.7785 145.82 80.318 147.344 76.6455 147.344H74.7193C71.0362 147.344 69.5757 145.82 69.5757 142.031V126.356C69.5757 122.557 71.0362 121.044 74.7193 121.044H76.6455C80.318 121.044 81.7785 122.557 81.7785 126.356V130.029L76.9313 129.468V125.975ZM92.9441 121.044H94.521C98.1935 121.044 99.654 122.557 99.654 126.356V142.031C99.654 145.82 98.1935 147.344 94.521 147.344H92.9441C89.2716 147.344 87.8111 145.82 87.8111 142.031V126.356C87.8111 122.557 89.2716 121.044 92.9441 121.044ZM92.6583 142.401H94.8068V125.975H92.6583V142.401ZM120.133 121.192V147.195H115.286L111.211 133.077V147.195H106.364V126.124H105.687L106.184 121.192H111.211L115.286 135.31V121.192H120.133ZM130.621 147.492C127.309 147.344 125.986 145.777 125.986 142.179V139.025H130.844V142.549H132.262V137.427L131.129 136.898L128.23 135.606C126.451 134.749 125.986 134.082 125.986 132.262V126.198C125.986 122.599 127.309 121.044 130.621 120.885H132.484C135.797 121.044 137.12 122.599 137.12 126.198V130.844L132.262 130.294V125.827H130.844V131.479L131.976 131.997L134.876 133.299C136.654 134.156 137.12 134.823 137.12 136.644V142.179C137.12 145.777 135.797 147.344 132.484 147.492H130.621Z" fill="#00452E"/>
</g>
<defs>
<clipPath id="clip0_222_11179">
<rect width="150" height="150" fill="white"/>
</clipPath>
</defs>
</svg>
