<svg width="99" height="150" viewBox="0 0 99 150" fill="none" xmlns="http://www.w3.org/2000/svg">
<g clip-path="url(#clip0_222_11225)">
<path d="M24.7971 123.083L25.9072 123.418C25.8467 123.7 25.7265 123.966 25.5546 124.198C25.3999 124.403 25.1961 124.566 24.962 124.671C24.6739 124.787 24.3647 124.841 24.0544 124.83C23.6804 124.843 23.3081 124.775 22.9621 124.633C22.6563 124.482 22.4017 124.244 22.2303 123.949C22.0262 123.62 21.9238 123.202 21.9231 122.697C21.9231 122.018 22.1035 121.497 22.4643 121.133C22.8251 120.77 23.3354 120.588 23.9952 120.586C24.512 120.586 24.9182 120.691 25.2139 120.899C25.5095 121.108 25.7288 121.429 25.8716 121.862L24.7536 122.111C24.7273 122.014 24.6856 121.921 24.6302 121.837C24.5628 121.742 24.4737 121.666 24.3704 121.613C24.1987 121.531 24.0029 121.512 23.8187 121.561C23.6344 121.61 23.4739 121.724 23.366 121.881C23.2508 122.053 23.1929 122.322 23.1922 122.688C23.1922 123.143 23.2613 123.454 23.3996 123.623C23.5454 123.776 23.7447 123.867 23.9558 123.876C24.1668 123.885 24.3731 123.811 24.5314 123.672C24.6691 123.502 24.7606 123.299 24.7971 123.083ZM30.3732 122.714C30.3732 122.044 30.5595 121.523 30.9322 121.15C31.3049 120.778 31.824 120.591 32.4897 120.59C33.1725 120.59 33.6992 120.774 34.0699 121.14C34.4406 121.507 34.6249 122.02 34.6229 122.68C34.6229 123.159 34.5423 123.552 34.381 123.858C34.2239 124.163 33.9789 124.414 33.6778 124.578C33.3262 124.76 32.9337 124.848 32.5381 124.834C32.1439 124.848 31.7516 124.773 31.3905 124.614C31.0801 124.46 30.8234 124.216 30.6537 123.915C30.4535 123.547 30.3566 123.132 30.3732 122.714ZM31.6393 122.719C31.6393 123.132 31.7164 123.431 31.8704 123.607C31.952 123.692 32.0499 123.76 32.1581 123.806C32.2664 123.852 32.3829 123.876 32.5005 123.876C32.6182 123.876 32.7347 123.852 32.843 123.806C32.9512 123.76 33.0491 123.692 33.1307 123.607C33.2795 123.431 33.3539 123.113 33.3539 122.654C33.3539 122.268 33.2768 121.986 33.1208 121.808C33.0417 121.719 32.9438 121.649 32.8343 121.603C32.7248 121.557 32.6064 121.536 32.4877 121.541C32.3714 121.537 32.2555 121.559 32.1489 121.606C32.0423 121.653 31.9478 121.723 31.8724 121.812C31.7177 121.999 31.64 122.301 31.6393 122.719ZM39.3132 120.66H40.5803V123.751H42.5555V124.761H39.3132V120.66ZM46.8862 122.714C46.8862 122.044 47.0726 121.523 47.4452 121.15C47.8179 120.778 48.3374 120.591 49.0037 120.59C49.6865 120.59 50.2132 120.774 50.5839 121.14C50.9546 121.507 51.1393 122.02 51.138 122.68C51.138 123.159 51.0573 123.552 50.896 123.858C50.7387 124.161 50.4954 124.41 50.1968 124.574C49.8451 124.756 49.4526 124.844 49.057 124.83C48.6625 124.844 48.2699 124.769 47.9084 124.61C47.5983 124.456 47.3416 124.212 47.1717 123.911C46.9705 123.545 46.8719 123.131 46.8862 122.714ZM48.1534 122.719C48.1534 123.132 48.2304 123.431 48.3835 123.607C48.465 123.692 48.5629 123.76 48.6712 123.806C48.7794 123.852 48.8959 123.876 49.0136 123.876C49.1313 123.876 49.2477 123.852 49.356 123.806C49.4643 123.76 49.5621 123.692 49.6437 123.607C49.7925 123.431 49.8672 123.113 49.8679 122.654C49.8679 122.269 49.7899 121.986 49.6338 121.808C49.5549 121.719 49.457 121.649 49.3475 121.603C49.2379 121.557 49.1195 121.536 49.0007 121.541C48.8844 121.537 48.7685 121.559 48.6619 121.606C48.5553 121.653 48.4608 121.723 48.3855 121.812C48.2307 121.999 48.1534 122.301 48.1534 122.719ZM57.8884 123.276V122.422H59.8498V124.17C59.5445 124.39 59.2097 124.566 58.8552 124.692C58.5227 124.791 58.1769 124.837 57.8301 124.83C57.3442 124.83 56.9491 124.747 56.6449 124.581C56.3368 124.413 56.0878 124.155 55.9319 123.841C55.758 123.49 55.6712 123.102 55.679 122.711C55.669 122.304 55.7642 121.902 55.9556 121.543C56.1395 121.213 56.4233 120.948 56.7664 120.789C57.0449 120.657 57.4189 120.591 57.8884 120.591C58.342 120.591 58.6808 120.632 58.9046 120.715C59.1212 120.791 59.3142 120.922 59.4646 121.096C59.6228 121.288 59.7368 121.512 59.7984 121.753L58.5767 121.97C58.5337 121.826 58.4436 121.701 58.3209 121.615C58.1835 121.529 58.0231 121.486 57.8607 121.492C57.7352 121.487 57.6103 121.51 57.4951 121.56C57.38 121.61 57.2777 121.686 57.196 121.781C57.0308 121.975 56.9485 122.28 56.9491 122.698C56.9491 123.141 57.0324 123.458 57.199 123.649C57.2871 123.745 57.3954 123.82 57.5162 123.87C57.6369 123.919 57.7671 123.941 57.8972 123.933C58.0346 123.934 58.1712 123.914 58.3022 123.872C58.4571 123.819 58.6055 123.749 58.7446 123.663V123.277L57.8884 123.276ZM64.616 120.66H65.8012L67.3448 122.932V120.66H68.5408V124.761H67.3468L65.812 122.509V124.761H64.62L64.616 120.66ZM73.3861 120.66H76.7816V121.535H74.6562V122.187H76.6314V123.024H74.6562V123.832H76.8428V124.761H73.3861V120.66ZM9.39217 139.947V147.749L7.91666 150.003H2.73462L1.27393 147.749V122.807L2.73462 120.555H7.91666L9.39217 122.807V132.907L6.5182 130.577V124.827H4.12519V145.726H6.5182V137.646L9.39217 139.947ZM19.6309 141.96V148.182L20.6017 150.001H13.1353V128.253L12.1802 126.444H18.4497L19.6348 128.253V136.318L17.2961 134.43V129.862H15.3999V136.318H17.0709V139.426H15.3959V146.566H17.2922V140.11L19.6309 141.96ZM30.1945 140.234V148.182L31.2433 150.001H27.9032V146.947L25.4094 138.937L25.4173 148.182L26.3803 150.001H23.133V128.223L22.1927 126.445H26.0148L27.9032 133.017V128.223L26.9471 126.445H30.1945V140.234ZM38.1646 140.584V148.158L39.1206 150H35.8802V129.862H35.258L32.8275 134.454V126.445H41.2222V134.454L38.7828 129.863H38.1616L38.1646 140.584ZM46.0329 140.578V146.56H47.9282V128.246L47.0275 126.444H50.2698V148.166L49.0847 150H44.9298L43.7644 148.182V128.232L42.8163 126.446H46.0329V140.578ZM53.7542 150V128.253L52.8061 126.444H59.0834L60.2567 128.246V136.924L58.5244 138.649L60.3732 148.089L61.4458 150H58.4671L56.4701 140.451L56.0425 140.917V148.174L57.0686 150H53.7542ZM56.0257 137.305L57.9289 135.494V129.865H56.0257V137.308V137.305ZM66.2456 140.584V148.174L67.2164 150H63.9573V128.246L63.0171 126.444H66.2496L66.2456 140.584ZM69.7556 138.944V128.246L70.8973 126.444H75.0927L76.2581 128.246V148.182L75.0927 150.001H70.8973L69.7556 148.182V138.944ZM72.0272 140.591V146.55H73.9303V129.859H72.0272V140.591ZM86.8118 140.234V148.182L87.8607 150.001H84.5196V146.947L82.0258 138.937L82.0337 148.182L82.9967 150.001H79.7494V128.223L78.8091 126.445H82.6322L84.5196 133.017V128.223L83.5645 126.445H86.8118V140.234ZM90.6438 137.646L93.4951 139.954V145.726H95.8871V138.665L90.6438 133.684V122.807L92.1035 120.555H97.2856L98.767 122.807V132.907L95.892 130.577V124.827H93.5V131.874L98.767 136.869V147.746L97.2856 150H92.1035L90.6438 147.746V137.646Z" fill="#34302B"/>
<path d="M8.11825 139.947V147.749L6.64275 150.003H1.46069L0 147.746V122.807L1.46069 120.555H6.64275L8.11825 122.807V132.907L5.24427 130.577V124.827H2.85126V145.726H5.24427V137.646L8.11825 139.947ZM18.3569 141.96V148.182L19.3278 150.001H11.8623V128.253L10.9063 126.444H17.1757L18.3609 128.253V136.318L16.0222 134.43V129.862H14.123V136.318H15.7931V139.426H14.123V146.566H16.0182V140.11L18.3569 141.96ZM28.9215 140.234V148.182L29.9704 150.001H26.6292V146.947L24.1355 138.937L24.1434 148.182L25.1063 150.001H21.859V128.223L20.9188 126.445H24.7419L26.6292 133.017V128.223L25.6742 126.445H28.9215V140.234ZM36.8906 140.584V148.158L37.8467 150H34.6063V129.862H33.9851L31.5535 134.454V126.445H39.9483V134.454L37.5089 129.863H36.8867L36.8906 140.584ZM44.759 140.578V146.56H46.6553V128.246L45.7536 126.444H48.9939V148.166L47.8088 150H43.6529L42.4904 148.182V128.232L41.5433 126.446H44.759V140.578ZM52.4802 150V128.253L51.5321 126.444H57.8104L58.9827 128.246V136.924L57.2505 138.649L59.0993 148.089L60.1718 150H57.1961L55.1992 140.451L54.7725 140.917V148.174L55.8006 150H52.4802ZM54.7518 137.305L56.6549 135.494V129.865H54.7518V137.308V137.305ZM64.9717 140.584V148.174L65.9425 150H62.6834V128.246L61.7432 126.444H64.9756L64.9717 140.584ZM68.4817 138.944V128.246L69.6234 126.444H73.8188L74.9842 128.246V148.182L73.8188 150.001H69.6273L68.4817 148.182V138.944ZM70.7532 140.591V146.55H72.6564V129.859H70.7532V140.591ZM85.5409 140.234V148.182L86.5897 150.001H83.2496V146.947L80.7549 138.937L80.7628 148.182L81.7267 150.001H78.4794V128.223L77.5392 126.445H81.3613L83.2496 133.017V128.223L82.2936 126.445H85.5409V140.234ZM89.3699 137.646L92.2212 139.954V145.726H94.6142V138.665L89.3699 133.684V122.807L90.8306 120.555H96.0126L97.4881 122.807V132.907L94.6142 130.577V124.827H92.2212V131.874L97.4881 136.869V147.746L96.0126 150H90.8306L89.3699 147.746V137.646Z" fill="#D42027"/>
<path d="M25.0995 49.71L24.7607 49.5934C24.7607 49.5934 24.7677 49.5737 24.7844 49.5361L25.1094 49.6882L25.0995 49.71Z" fill="#FEF15F"/>
<path d="M96.8284 99.4572L91.1762 100.519C90.3126 100.679 89.4362 100.759 88.558 100.759C83.7019 100.759 78.7065 98.4064 74.4923 94.131C70.4579 90.0432 67.495 84.4701 66.0975 78.3547C66.0933 78.3497 66.0909 78.3435 66.0906 78.3369C65.6067 76.4604 59.5812 75.1054 58.8 74.9336L58.7388 74.9227C58.7315 74.9219 58.7243 74.9219 58.717 74.9227C57.5986 74.7194 56.4643 74.6163 55.3275 74.6146C52.574 74.6146 49.7968 75.2388 47.0611 76.4654C46.8745 76.5553 45.8997 77.0283 45.0454 77.4836L44.9387 77.5409L44.9022 77.5557C42.9803 78.5315 41.1255 79.8865 39.2322 81.6978C39.2036 81.7264 39.1532 81.7729 39.092 81.8272C32.1066 88.148 27.9141 96.3126 27.5447 97.0514C27.5191 97.1047 27.4944 97.1501 27.4657 97.2054L22.0634 108.003V95.8554C22.0634 94.769 21.8659 89.5346 21.5222 81.5349C19.9084 82.2953 18.2403 82.3743 17.6488 82.3743C17.6159 82.3762 17.5829 82.3762 17.55 82.3743L14.8093 82.3032L14.7451 79.5813L13.9313 46.256L13.9165 45.6634L14.1387 45.1113C14.4976 44.2491 14.9943 43.4509 15.6093 42.748C17.1722 40.6461 19.0728 38.8179 21.2338 37.3378L21.2052 37.2874C20.2176 35.7418 19.1894 34.1892 18.1495 32.6752L16.6908 30.5736C9.60754 20.5897 3.71934 14.6472 3.66206 14.5889L1.35596 12.2798L3.94155 10.2927C4.90646 9.54708 5.91679 8.83994 6.92911 8.19108L6.97948 8.15947L7.03281 8.12688L10.2248 6.26126L10.2781 6.23163L10.3364 6.20003C13.4882 4.54669 16.8218 3.26601 20.2699 2.38386L20.3064 2.37299L20.346 2.36608L22.5651 1.86042L22.6017 1.84955L22.6372 1.84264C25.7718 1.21176 28.9614 0.894488 32.1589 0.89551C38.3254 0.896181 44.4371 2.05326 50.1771 4.30676L50.2235 4.32454L50.2738 4.34528L53.4303 5.71313L53.5231 5.75659C60.8039 9.22808 67.0901 14.3272 72.2158 20.9116L72.2445 20.9482L72.2692 20.9837L74.2207 23.6553L74.2454 23.6918L74.2701 23.7274C78.2838 29.5988 81.3286 36.3985 83.3187 43.94L83.3256 43.9578V43.9795L83.7888 45.8264L83.7957 45.8629C84.0614 46.9918 84.3014 48.1108 84.5058 49.1902V49.2406L85.0757 52.562V52.6232C85.846 57.7904 86.1838 63.2994 86.0692 68.9911V69.0414L85.929 72.8675V72.9109C85.8786 73.8758 85.8105 74.9119 85.7176 76.0852C85.685 77.6229 85.8322 79.4233 86.1443 81.2958L86.5818 83.5368C87.7906 88.8274 89.9674 93.2155 92.5678 95.5857L96.8284 99.4572Z" fill="black"/>
<path d="M21.1667 111.802V95.8605C21.1667 94.8462 20.986 90.0078 20.6788 82.817C19.6957 83.1124 18.6754 83.2657 17.6488 83.2722H17.5007L13.9353 83.1735L13.8504 79.5993L13.0178 45.4987L13.3141 44.7748C13.705 43.8312 14.2449 42.9566 14.9131 42.1842C16.3537 40.2453 18.0765 38.5329 20.024 37.1039C19.1786 35.7943 18.3026 34.4788 17.4128 33.1831L15.9531 31.0863C8.94094 21.1983 3.08632 15.2844 3.02805 15.2222L0 12.1872L3.39544 9.57791C4.36233 8.83028 5.38945 8.10734 6.44621 7.43181L6.57163 7.35379L9.89696 5.41508C13.1179 3.72651 16.5248 2.41961 20.0487 1.52089L20.0981 1.50509L20.1672 1.49225L22.4615 0.968814C25.6543 0.326451 28.9031 0.00322469 32.1599 0.00390733C38.4379 0.00436303 44.6602 1.18221 50.504 3.47638L50.6294 3.52774L53.8965 4.94596C61.3096 8.48066 67.7064 13.6677 72.9201 20.3657L73.0001 20.4724L75.001 23.216C79.07 29.1684 82.1514 36.0432 84.1681 43.6597L84.2027 43.7901L84.6757 45.6942C84.9454 46.8359 85.1863 47.9658 85.3878 49.0275L85.3947 49.0709L85.9754 52.4693C86.7586 57.7274 87.0964 63.2858 86.9808 69.013V69.0456L86.8337 72.996C86.7823 73.9837 86.7142 75.0088 86.6243 76.1387C86.6118 77.8207 86.7506 79.5005 87.0391 81.1577L87.4737 83.374C88.6351 88.4622 90.719 92.6843 93.1831 94.9291L98.7622 100.007L91.3422 101.4C85.3947 102.502 79.0364 100.017 73.8544 94.7612C69.7765 90.629 66.7435 84.9719 65.2818 78.8082L65.1998 78.7262V78.4912C64.8798 77.8067 62.4098 76.6502 58.6391 75.8157L58.561 75.8019C57.4952 75.6072 56.414 75.508 55.3305 75.5056C52.7084 75.5056 50.0507 76.0982 47.4295 77.2774C44.8084 78.4566 46.3777 77.784 45.4691 78.265L45.2716 78.3638C43.4435 79.2971 41.6697 80.5968 39.8515 82.337C39.8249 82.3626 39.7617 82.4229 39.6836 82.491C32.712 88.797 28.5235 97.093 28.3457 97.4436C28.323 97.492 28.2914 97.5533 28.2559 97.6174L21.1667 111.802ZM22.3598 80.1504L22.418 81.4975C22.7627 89.513 22.9602 94.7484 22.9602 95.8605V104.205L26.6865 96.7553C26.7023 96.7276 26.7162 96.7 26.73 96.6693C27.1952 95.738 31.3846 87.5832 38.4896 81.1577C38.5439 81.1103 38.5805 81.0768 38.6012 81.059C40.5715 79.1746 42.4954 77.7702 44.4953 76.7549L44.6247 76.6917C45.5689 76.187 46.6276 75.6774 46.672 75.6567C49.545 74.3669 52.4496 73.717 55.3266 73.717C56.4895 73.7187 57.6501 73.8221 58.7951 74.0261H58.8237L58.9916 74.0607C62.1994 74.7678 66.1025 75.9935 66.8748 77.868L66.9134 77.9065L66.9706 78.1583C68.3296 84.0999 71.2283 89.5496 75.1304 93.505C79.8937 98.3364 85.6663 100.631 91.0133 99.6401L94.8946 98.9112L91.9743 96.2496C89.2464 93.7628 86.967 89.2029 85.7187 83.7404L85.2752 81.4688C84.9503 79.5222 84.7992 77.6635 84.8328 76.0666V76.0152C84.9226 74.8804 84.9918 73.8503 85.0431 72.8657V72.8084L85.1824 69.009V68.9922C85.296 63.347 84.9651 57.8904 84.1948 52.7567L84.1879 52.7034L83.6121 49.3405C83.4205 48.3253 83.1834 47.2181 82.9138 46.0686L82.9049 46.0281L82.4388 44.1703C80.4754 36.7296 77.474 30.0227 73.5176 24.2342L73.4731 24.172L71.4979 21.4728C66.4669 14.9871 60.2825 9.97493 53.1341 6.56566L53.0511 6.52715L49.8581 5.14448C44.2202 2.93034 38.217 1.79336 32.1599 1.79249C29.0232 1.79158 25.8942 2.10256 22.819 2.72085L22.7657 2.73468L20.5099 3.24824C17.1238 4.11389 13.8498 5.3707 10.7542 6.9933L10.6485 7.05157L7.41605 8.94386C6.40177 9.59272 5.41809 10.2841 4.49071 11.0011L2.71299 12.3679L4.29319 13.955C4.35343 14.0153 10.2881 20.0023 17.4157 30.0533L18.8833 32.1618C19.9391 33.6976 20.9731 35.258 21.9588 36.8037L22.0101 36.8916L22.418 37.6046L21.7425 38.0728C19.6625 39.4942 17.8337 41.2522 16.3313 43.2746L16.2829 43.3358C15.7333 43.9626 15.2897 44.6748 14.9694 45.4444L14.8163 45.8236L15.6854 81.4244L17.6458 81.4787C18.0893 81.4787 19.6527 81.4224 21.1371 80.7232L22.3598 80.1504ZM58.5255 75.79L58.562 75.7979L58.5255 75.79Z" fill="#F2F2F3"/>
<path d="M90.6479 97.7019C80.4754 99.6041 67.5375 87.084 68.0146 68.8179C70.0965 15.7619 32.3456 20.2072 19.0344 28.9259C11.7043 18.5855 5.6897 12.563 5.6897 12.563C6.59436 11.8684 7.52338 11.2149 8.47677 10.6026L19.1905 21.1405L11.6688 8.73894C14.6231 7.18809 17.7488 5.98821 20.982 5.16375L23.7177 10.2184L23.2091 4.65414C31.6661 2.94358 40.7058 3.68232 49.1381 6.97801L47.4226 18.5332L52.2896 8.34093C58.8573 11.4747 64.945 16.233 69.9552 22.6713L64.3495 30.7649L71.8989 25.3468C75.5896 30.7432 78.5673 37.1785 80.5435 44.6736L77.0009 46.2784L81.0057 46.5214C81.2533 47.5676 81.4808 48.6346 81.6882 49.7223L73.2154 53.0427H82.2551C82.9899 57.9571 83.3306 63.2517 83.22 68.9325L75.4079 71.5991L83.0778 72.7556C83.0224 73.8011 82.9517 74.8605 82.8654 75.9338C82.8239 77.6246 82.975 79.6502 83.3326 81.8012L79.9124 83.0515L83.7888 84.1261C84.9355 89.1985 87.1833 94.5455 90.6479 97.7019Z" fill="#D42027"/>
<path d="M65.7135 54.2953L64.8848 54.3121L62.4158 54.3615C60.8534 44.0813 55.8372 37.4306 49.4878 34.0342L48.0064 36.124C44.0559 33.2806 39.263 33.4811 39.263 33.4811L39.0654 31.3222C33.7797 31.182 28.3527 32.7049 23.6378 35.7566C22.6184 34.1707 21.5757 32.5999 20.51 31.0447C20.8142 30.8471 21.1381 30.6496 21.4818 30.4521C25.2348 28.2853 31.2593 26.1836 38.0452 26.1836C38.3287 26.1836 38.6181 26.1836 38.9134 26.1954H38.9282C63.0844 25.8014 65.7135 54.2953 65.7135 54.2953Z" fill="#AFBBC1"/>
<path d="M57.8618 49.2895C56.3557 50.0243 55.2574 50.6436 53.4698 51.1423C52.8012 49.9967 48.5791 43.5988 37.2452 42.4186C41.9798 46.5923 43.0326 50.5053 43.2045 52.6692C36.7938 52.9003 30.16 51.9057 24.9473 49.6125C25.1103 49.2056 26.6618 45.6383 31.6631 42.5016C26.3606 43.8714 22.4062 48.3236 22.4062 48.3236C20.5968 47.2649 19.0413 46.0116 17.8354 44.5578C26.2085 32.9325 49.2063 29.8995 57.8618 49.2895ZM60.88 64.4179C60.88 64.4179 61.0775 55.1343 58.6084 51.1137C58.6084 51.1137 54.0022 53.2321 46.8389 54.1032C46.2543 54.1756 45.6541 54.2378 45.0385 54.2899L44.9397 54.3017C44.9081 54.5308 44.8795 54.76 44.8509 54.993C44.8163 55.2656 44.7847 55.5412 44.7521 55.8128C44.7264 56.0429 44.7037 56.275 44.6839 56.5041C44.6632 56.7164 44.6434 56.9288 44.6267 57.1401C44.5921 57.5648 44.5605 57.9885 44.5348 58.4132C44.5141 58.7342 44.5002 59.0522 44.4854 59.3702C44.4706 59.6882 44.4627 60.0131 44.4538 60.3311C44.4538 60.5455 44.4459 60.7578 44.443 60.9731C44.437 61.5459 44.437 62.1168 44.4519 62.6906C44.4657 63.3957 44.4933 64.1019 44.5348 64.809C44.5575 65.1636 44.5802 65.5191 44.6089 65.8747C44.6267 66.1038 44.6464 66.3339 44.6662 66.566C44.6676 66.5745 44.6676 66.5832 44.6662 66.5917C44.6889 66.8267 44.7126 67.0588 44.7383 67.2939C44.7639 67.5289 44.7896 67.764 44.8183 68.002C44.8183 68.0277 44.8242 68.0563 44.8271 68.085C44.8499 68.2687 44.8726 68.4553 44.8983 68.638C44.9506 69.0627 45.0128 69.4864 45.079 69.9081C45.1047 70.0948 45.1363 70.2804 45.1679 70.4671C45.2795 71.1466 45.4029 71.8261 45.5432 72.5026C45.6034 72.8038 45.6696 73.1011 45.7358 73.4023C45.7674 73.5574 45.8019 73.7124 45.8414 73.8665C50.3312 71.8429 55.4303 71.0291 61.035 72.5026L60.88 64.4179ZM51.0363 58.6848C49.0917 59.3455 47.5559 58.9653 47.5559 58.9653C47.5559 58.9653 46.9515 63.1873 47.0226 69.2711C47.0226 69.3857 47.0226 69.5002 47.0286 69.6178C47.0286 69.8587 47.0374 70.1017 47.0404 70.3486C46.2495 65.568 46.1066 60.7026 46.6157 55.8839L46.7678 55.9125L46.9456 55.9382C47.0374 55.953 47.1293 55.9639 47.2202 55.9757C47.2893 55.9836 47.3584 55.9896 47.4266 55.9955C47.4947 56.0014 47.5559 56.0073 47.6162 56.0133H47.7219C47.794 56.0192 47.8651 56.0221 47.9372 56.0251C48.9784 56.0646 50.0202 55.9613 51.0334 55.718L51.0363 58.6848Z" fill="#AFBBC1"/>
<path d="M43.1533 54.4164C42.9182 54.4282 42.6802 54.4361 42.4392 54.445C34.4819 54.7146 24.9445 53.0861 16.8005 46.1865L17.6114 79.5099C17.6114 79.5099 19.8997 79.5593 21.2152 78.3435V65.6476L32.2144 58.7738V63.4452L23.8443 69.0924C23.8443 69.0924 24.9306 93.1371 24.9306 95.857L24.9385 95.8402C24.9444 95.8322 24.9493 95.8236 24.9534 95.8145C25.3 95.1153 29.7265 86.4094 37.2048 79.661C37.215 79.6532 37.2246 79.6446 37.2334 79.6353C39.3894 77.5682 41.4802 76.066 43.6372 74.9767L43.6945 74.948C41.1662 63.3366 43.1533 54.4164 43.1533 54.4164ZM32.7674 71.0223L28.8722 73.6997L27.4303 87.717L26.7301 71.4292L32.7674 67.7285V71.0223Z" fill="#AFBBC1"/>
</g>
<defs>
<clipPath id="clip0_222_11225">
<rect width="98.7622" height="150" fill="white"/>
</clipPath>
</defs>
</svg>
