<svg width="150" height="150" viewBox="0 0 150 150" fill="none" xmlns="http://www.w3.org/2000/svg">
<path d="M73.3947 108.446C69.855 107.359 60.7507 103.787 51.9262 94.1389C41.1919 82.4168 35.1168 70.2337 33.3717 56.8982C32.1533 47.6127 32.1369 32.3016 32.2357 23.9875L32.2851 20.6783H48.9792C47.5798 18.3075 46.2133 15.9861 44.8633 13.7471L42.6077 9.96045L46.8554 8.79154C66.1689 3.50699 86.5474 3.50699 105.861 8.79154L110.125 9.96045L107.853 13.7471L103.737 20.6783H117.55L117.6 23.9875C117.698 32.3016 117.682 47.6292 116.464 56.8982C114.718 70.2337 108.643 82.4168 97.909 94.1389C89.1669 103.704 79.9966 107.326 76.4569 108.429L74.8929 108.907L73.3947 108.446Z" fill="#00452B"/>
<path d="M76.3582 8.18214C86.0239 8.18809 95.646 9.47804 104.972 12.0182C102.634 15.9365 100.263 19.9536 97.8926 24.0366H114.241C114.323 31.2147 114.356 47.168 113.138 56.4535C111.475 69.081 105.696 80.6714 95.4395 91.8831C87.1748 100.922 78.5149 104.28 75.4527 105.235L74.8929 105.4L74.3496 105.235C71.2874 104.297 62.7263 100.988 54.3957 91.8831C44.1389 80.6714 38.3601 69.081 36.6973 56.4535C35.479 47.168 35.5119 31.2147 35.5943 24.0366H54.8238C52.453 19.9536 50.0987 15.9365 47.7444 12.0182C57.0718 9.48507 66.6929 8.19524 76.3582 8.18214ZM76.3582 1.48145C66.0973 1.48081 55.8822 2.84837 45.9828 5.54796L37.4546 7.88579L41.9986 15.4591C42.3608 16.0847 42.7395 16.6938 43.1017 17.3359H28.9759L28.8936 23.9543C28.7948 32.3507 28.7948 47.843 30.046 57.326C31.8899 71.3695 38.2449 84.1452 49.4566 96.4106C58.8244 106.651 68.6038 110.471 72.374 111.639H72.4234L72.9667 111.804L74.8764 112.38L76.7862 111.821L77.346 111.656H77.4612C81.2643 110.454 91.0931 106.585 100.379 96.4271C111.607 84.1617 117.945 71.386 119.789 57.3425C121.024 47.8594 121.04 32.3672 120.942 23.9707L120.859 17.3524H109.615L110.734 15.4755L115.262 7.90226L106.75 5.54796C96.8448 2.84942 86.6244 1.48189 76.3582 1.48145Z" fill="#FBB040"/>
<path d="M74.1028 105.992C70.7937 104.972 62.1996 101.597 53.8032 92.4264C43.4476 81.0994 37.5865 69.3773 35.9072 56.5851C34.6725 47.135 34.7219 30.6878 34.8042 24.053V23.2957H53.4739C51.2843 19.542 49.1275 15.887 47.0696 12.4461L46.5427 11.5736L47.5141 11.3101C66.3816 6.15703 86.2857 6.15703 105.153 11.3101L106.108 11.5736L105.598 12.4461C103.54 15.9035 101.383 19.542 99.1934 23.2957H114.966V24.053C115.031 30.6878 115.097 47.135 113.846 56.5851C112.183 69.3773 106.339 81.0994 95.9665 92.4264C87.6524 101.514 78.9925 104.939 75.6504 105.992L74.8602 106.223L74.1028 105.992Z" fill="#00452B"/>
<path d="M76.3253 8.21569C85.9916 8.21243 95.6149 9.50255 104.939 12.0517C102.601 15.9701 100.23 19.9872 97.8597 24.0702H114.208C114.307 31.2483 114.323 47.2015 113.105 56.487C111.459 69.1146 105.663 80.705 95.4066 91.9167C87.1419 100.955 78.482 104.297 75.4198 105.269L74.8765 105.433L74.3167 105.269C71.2545 104.314 62.6934 101.021 54.3628 91.9167C44.1225 80.705 38.3273 69.1146 36.6645 56.487C35.4462 47.2015 35.4791 31.2483 35.5614 24.0702H54.7909C52.4201 19.9872 50.0658 15.9701 47.7115 12.0517C57.0357 9.50255 66.659 8.21243 76.3253 8.21569ZM76.3253 6.68457C66.525 6.68706 56.769 7.9993 47.3164 10.5864L45.3737 11.1133L46.4109 12.842C48.2548 15.9207 50.1811 19.1805 52.1403 22.539H34.0632V24.0372C33.9809 30.6885 33.9315 47.1851 35.1663 56.6846C36.8785 69.6414 42.7889 81.4953 53.2598 92.9375C61.7879 102.256 70.5301 105.68 73.8887 106.718L74.4485 106.899L74.8765 107.03L75.321 106.899L75.8808 106.734H75.8972C79.2888 105.664 88.1133 102.19 96.5426 92.9539C107.03 81.5117 112.94 69.6579 114.636 56.701C115.887 47.2015 115.838 30.705 115.756 24.0537V22.5555H100.51C102.486 19.1969 104.396 15.9371 106.256 12.8584L107.277 11.1297L105.351 10.6029C95.8913 8.0195 86.1311 6.70191 76.3253 6.68457Z" fill="#00452B"/>
<path d="M76.3583 9.08812C85.5417 9.09986 94.6863 10.2782 103.573 12.5949C101.482 16.0852 99.3086 19.773 97.1025 23.5761L96.2958 24.9426H113.336C113.401 32.0384 113.401 47.399 112.233 56.3387C110.603 68.7687 104.89 80.1945 94.7647 91.2745C86.7139 100.066 78.3834 103.359 75.1894 104.363L74.8931 104.445L74.6297 104.363C71.4522 103.375 63.1875 100.132 55.0709 91.2745C44.9458 80.1945 39.2329 68.7687 37.603 56.3387C36.4341 47.399 36.4341 32.0384 36.4999 24.9426H56.4209L55.6142 23.5761C53.4081 19.773 51.2349 16.0852 49.144 12.5949C58.0301 10.2772 67.1749 9.0988 76.3583 9.08812ZM76.3583 8.18262C66.6931 8.19572 57.072 9.48555 47.7446 12.0186C50.0989 15.937 52.4532 19.9541 54.8239 24.0371H35.5944C35.5121 31.2152 35.4792 47.1685 36.6975 56.4539C38.3603 69.0815 44.139 80.6719 54.3959 91.8836C62.7265 100.988 71.2876 104.297 74.3498 105.236L74.8931 105.4L75.4528 105.236C78.5151 104.281 87.1749 100.922 95.4397 91.8836C105.697 80.6719 111.475 69.0815 113.138 56.4539C114.356 47.1685 114.323 31.2152 114.241 24.0371H97.8927C100.264 19.9541 102.634 15.937 104.972 12.0186C95.6461 9.47852 86.024 8.18857 76.3583 8.18262Z" fill="#F2F6F6"/>
<path d="M68.8672 60.1087C69.8386 50.7903 70.2008 35.5944 70.2008 35.5944L62.2653 27.6589L85.94 27.5107L84.6887 34.5901L84.7217 40.303C84.7217 40.303 90.9449 35.8907 94.7809 32.6309C92.7724 29.9144 91.6199 27.9882 91.6199 27.9882L110.273 27.5437L93.7602 44.3036L106.305 43.8262C106.338 43.8591 119.378 65.1795 119.378 65.1795L122.934 67.4021C122.934 67.4021 123.181 71.6332 123.148 72.1436C110.718 67.0728 109.434 68.4393 99.753 66.9905C100.016 65.3112 99.72 65.0643 99.72 65.0643L90.5004 52.1897L88.1132 52.0909L88.0473 56.816L87.076 60.9648C87.076 60.9648 91.1919 63.7142 96.5426 66.5624C85.2814 65.3606 72.3575 65.3441 61.2939 65.5088C64.4714 62.9898 65.9202 62.5124 68.8672 60.1087Z" fill="white"/>
<path d="M42.9535 27.9886L70.2666 27.791L60.7506 55.7792C60.7506 55.7792 67.5007 54.7255 72.555 54.9231C77.6094 55.1206 88.5412 55.4005 89.4961 55.8779C90.451 56.3554 90.7309 56.059 90.7309 56.059L92.0644 54.1657L100.066 64.8177L99.6706 66.7275C99.6706 66.7275 74.2673 63.8628 61.4092 65.6738C48.5511 67.4848 29.2393 71.9629 28.6795 72.3415C28.259 72.6068 27.8121 72.8275 27.3459 73.0001L26.9673 67.5836C26.9673 67.5836 38.1955 58.1664 40.0065 56.4542C41.8175 54.7419 50.856 33.0264 50.856 33.0264L42.9535 27.9886Z" fill="#F2F6F6"/>
<path d="M72.4234 44.3694C72.4234 44.3694 80.9022 44.6657 82.3181 44.534C83.734 44.4023 86.9114 42.0645 86.9114 42.0645L90.9779 42.2456C90.9779 42.2456 89.8749 45.5053 92.7066 46.0322C93.2499 46.131 104.956 46.3779 104.956 46.3779C104.956 46.3779 118.538 67.8465 117.929 67.6983C107.244 64.883 102.618 64.9653 102.618 64.9653C96.0487 53.0128 92.4761 50.0658 92.4761 50.0658C92.4761 50.0658 85.1663 46.6578 85.1663 48.2383C85.1663 49.8188 85.1004 53.1774 85.1004 53.1774C76.8686 52.1073 72.0283 52.6835 72.0283 52.6835L72.4234 44.3694Z" fill="#B1B4B1"/>
<path d="M49.539 43.5625L61.8044 43.793C61.8044 43.793 58.6269 53.5065 58.0672 55.12C56.9312 58.4127 58.4129 58.2974 60.2239 58.0176C78.4985 55.1529 90.3523 58.281 91.8505 58.5773C93.5957 58.9395 96.2134 64.0268 96.2134 64.0268C87.6232 63.204 78.994 62.8577 70.3655 62.9896C48.8475 63.3518 31.5278 68.9988 31.5278 68.9988L31.2644 66.8091C31.2644 66.8091 40.6651 59.6475 42.8219 57.3425C44.9786 55.0376 49.539 43.5625 49.539 43.5625Z" fill="#B1B4B1"/>
<path d="M109.862 89.9244H109.796C87.0491 85.4465 63.6489 85.4297 40.8957 89.8751H40.8463C40.7984 89.8822 40.7494 89.8751 40.7055 89.8546C40.6616 89.8341 40.6247 89.8011 40.5993 89.7598C37.7511 86.1378 34.8041 82.7134 31.9395 79.3877C30.1779 77.3462 28.3669 75.2224 26.6217 73.1151C26.589 73.0806 26.5669 73.0374 26.5582 72.9907C26.5494 72.9439 26.5543 72.8957 26.5723 72.8517C26.5834 72.8035 26.6078 72.7595 26.6428 72.7245C26.6777 72.6896 26.7218 72.6652 26.7699 72.6541C43.464 67.9949 60.4874 65.6406 77.3297 65.6406C93.1512 65.6406 108.676 67.7315 123.477 71.8474C123.524 71.8615 123.566 71.887 123.601 71.9214C123.635 71.9559 123.661 71.9983 123.675 72.045C123.692 72.0918 123.697 72.1424 123.688 72.1916C123.68 72.2409 123.658 72.2869 123.625 72.3248C120.58 76.0785 117.468 80.1615 114.455 84.1128C113.006 86.0226 111.541 87.9323 110.092 89.8092C110.067 89.8465 110.032 89.8767 109.992 89.8969C109.952 89.9171 109.907 89.9266 109.862 89.9244Z" fill="#00452B"/>
<path d="M77.3297 65.9364C92.8384 65.9364 108.347 67.945 123.395 72.1432C118.917 77.6585 114.406 83.7501 109.862 89.6276C87.0761 85.1496 63.6383 85.1328 40.8463 89.5782C36.2036 83.7171 31.4127 78.4323 26.8522 72.9335C43.3323 68.3401 60.3392 65.9364 77.3297 65.9364ZM77.3297 65.3438C60.4545 65.3438 43.4146 67.698 26.6876 72.3572C26.5956 72.388 26.512 72.4397 26.4435 72.5082C26.3749 72.5768 26.3232 72.6604 26.2925 72.7524C26.2592 72.8463 26.2507 72.9472 26.268 73.0453C26.2854 73.1434 26.3278 73.2353 26.3913 73.3121C28.1529 75.4195 29.9639 77.5268 31.7255 79.5683C34.5737 82.894 37.5207 86.3349 40.3689 89.9404C40.4259 90.0123 40.4985 90.0704 40.5812 90.1103C40.6639 90.1502 40.7545 90.1709 40.8463 90.1709H40.9451C63.6667 85.7422 87.0313 85.759 109.747 90.2203H109.862C109.951 90.2203 110.039 90.1994 110.119 90.1594C110.199 90.1194 110.269 90.0613 110.323 89.9898L114.702 84.2934C117.715 80.3421 120.827 76.2591 123.856 72.5054C123.916 72.4298 123.957 72.3415 123.977 72.2473C123.997 72.153 123.995 72.0554 123.971 71.9621C123.937 71.8696 123.882 71.7861 123.81 71.7177C123.739 71.6493 123.653 71.5978 123.56 71.567C108.726 67.4346 93.1677 65.3438 77.3297 65.3438Z" fill="#00452B"/>
<path d="M27.1486 73.5926C27.022 73.5904 26.8972 73.5631 26.7813 73.5122C26.6654 73.4614 26.5608 73.388 26.4735 73.2963C26.276 73.0658 25.7821 72.5554 26.0949 67.5176C26.0936 67.4023 26.1198 67.2884 26.1713 67.1853C26.2229 67.0823 26.2982 66.993 26.3912 66.9249C29.7992 64.2742 38.8707 56.9809 40.3688 54.7747C43.3817 48.9631 48.5183 36.2861 49.6708 33.405L42.5091 28.1366C42.3719 28.035 42.2697 27.8933 42.2166 27.7311C42.1635 27.5688 42.1622 27.3941 42.2128 27.2311C42.2715 27.0715 42.3765 26.933 42.5144 26.8333C42.6522 26.7336 42.8166 26.6772 42.9866 26.6713L70.5796 26.4902C70.7923 26.4901 70.9969 26.5723 71.1503 26.7196C71.3038 26.8669 71.3943 27.0679 71.4028 27.2805C71.4045 27.4657 71.3436 27.6461 71.2301 27.7925C71.1166 27.9389 70.957 28.0428 70.7771 28.0872C70.7754 28.1705 70.7644 28.2533 70.7442 28.3342C69.1143 33.2568 67.5997 37.6526 66.1344 41.9166C64.6691 46.1807 63.1545 50.5436 61.7386 54.8735L62.002 54.8406C67.0893 54.1656 78.9102 52.6015 90.1054 55.3674C90.8792 54.2973 91.1756 53.7704 91.1756 53.7704C91.2782 53.5805 91.452 53.4391 91.6589 53.3774C91.8658 53.3156 92.0887 53.3386 92.2786 53.4412C92.4686 53.5438 92.61 53.7176 92.6717 53.9245C92.7335 54.1314 92.7105 54.3543 92.6079 54.5442C92.5914 54.5772 92.1963 55.3016 91.0768 56.7833C90.9817 56.9145 90.8486 57.0133 90.6954 57.0663C90.5423 57.1193 90.3765 57.124 90.2207 57.0796C79.1901 54.215 67.2869 55.779 62.2161 56.454L60.6685 56.6516C60.4525 56.6747 60.2361 56.6116 60.0665 56.4759C59.8969 56.3402 59.7878 56.143 59.763 55.9272C59.7492 55.8109 59.7605 55.693 59.7959 55.5814C61.3435 50.807 62.924 46.2301 64.5868 41.3898C66.0356 37.208 67.5174 32.911 69.0979 28.1201L45.4561 28.2683L51.1525 32.4501C51.2941 32.5591 51.3964 32.7112 51.4439 32.8835C51.4914 33.0557 51.4816 33.2388 51.4159 33.405C51.3665 33.5696 45.2091 48.9631 41.8012 55.5485L41.7518 55.6144C40.0231 58.2321 29.6181 66.4474 27.6919 67.9621C27.6205 69.2122 27.615 70.4651 27.6754 71.7158C48.4689 64.62 75.9303 62.4962 101.317 66.0523C101.531 66.085 101.725 66.1992 101.856 66.371C101.988 66.5428 102.049 66.7589 102.025 66.9743C101.993 67.1873 101.878 67.379 101.705 67.5083C101.533 67.6375 101.317 67.6941 101.103 67.6657C75.6339 64.1096 48.0903 66.2993 27.4284 73.5268C27.3386 73.559 27.244 73.5757 27.1486 73.5762" fill="#00452B"/>
<path d="M123.148 72.8353C123.045 72.8387 122.943 72.8161 122.852 72.7695C110.718 67.8304 102.075 67.5834 100.461 67.5834C100.304 67.5887 100.148 67.5458 100.016 67.4605C99.8837 67.3752 99.7805 67.2515 99.7202 67.106C96.3617 59.7797 91.4061 54.0339 90.6159 53.1284L88.5908 52.2393L88.6402 54.6266C88.6424 54.7325 88.6237 54.8378 88.5852 54.9366C88.5466 55.0353 88.489 55.1254 88.4156 55.2019C88.3422 55.2783 88.2545 55.3395 88.1575 55.3821C88.0604 55.4246 87.9559 55.4476 87.85 55.4497H87.817C87.6031 55.4497 87.3979 55.3647 87.2466 55.2135C87.0953 55.0622 87.0103 54.857 87.0103 54.643L86.9445 50.9716C86.9457 50.8359 86.9792 50.7024 87.0422 50.5822C87.1051 50.462 87.1958 50.3585 87.3067 50.2802C87.4228 50.2049 87.5557 50.1596 87.6935 50.1481C87.8314 50.1366 87.97 50.1593 88.0969 50.2143L91.4226 51.696C91.5284 51.7344 91.6241 51.7963 91.7024 51.8771C91.9329 52.1406 97.2507 57.9851 100.988 65.9535C103.441 66.0029 111.393 66.5462 122.177 70.7444C122.045 69.9048 121.864 68.7688 121.666 67.6657L118.917 65.7066C118.818 65.656 118.737 65.5753 118.686 65.4761C114.636 58.8577 107.244 46.7569 105.845 44.5014L93.5299 44.3368C93.365 44.3369 93.2039 44.2865 93.0685 44.1923C92.9331 44.0981 92.8298 43.9647 92.7726 43.81C92.7179 43.661 92.7074 43.4993 92.7425 43.3445C92.7775 43.1897 92.8566 43.0483 92.9701 42.9374L108.265 28.3177L93.25 28.1201C93.8757 28.9269 94.7318 30.0628 95.7031 31.3799C95.8229 31.547 95.8757 31.7529 95.8514 31.957C95.827 32.1612 95.7271 32.3488 95.5714 32.483C91.7683 35.6934 85.6932 40.6489 85.6274 40.6983C85.5105 40.7978 85.3668 40.8604 85.2143 40.8779C85.0619 40.8955 84.9077 40.8674 84.7713 40.7971C84.634 40.732 84.5179 40.6295 84.4364 40.5013C84.3548 40.3732 84.3111 40.2246 84.3103 40.0727V32.6147L85.0018 28.2189L70.2998 28.3012C70.1032 28.2753 69.9226 28.1793 69.7911 28.0309C69.6597 27.8825 69.5862 27.6917 69.5842 27.4934C69.5822 27.2952 69.6518 27.1029 69.7802 26.9518C69.9087 26.8008 70.0873 26.7012 70.2833 26.6713L85.9402 26.589C86.0581 26.5901 86.1746 26.6155 86.2822 26.6636C86.3899 26.7118 86.4864 26.7817 86.5658 26.8689C86.6396 26.9604 86.6937 27.066 86.7249 27.1793C86.756 27.2926 86.7635 27.4111 86.7469 27.5274L85.9402 32.7958V38.3605C87.8006 36.8294 91.2909 33.9812 93.9415 31.7421C92.1964 29.4043 90.9287 27.8403 90.9122 27.8238C90.7776 27.6532 90.7159 27.4363 90.7406 27.2204C90.7653 27.0045 90.8743 26.8072 91.0439 26.6713C91.1894 26.5563 91.3688 26.4926 91.5543 26.4902L110.29 26.7372C110.505 26.7415 110.711 26.8301 110.861 26.984C111.012 27.1379 111.097 27.3449 111.097 27.5604C111.095 27.6694 111.07 27.7769 111.025 27.876C110.98 27.9752 110.914 28.0639 110.833 28.1366L95.5385 42.7563L106.322 42.9045C106.539 42.9093 106.745 42.9978 106.898 43.1514C106.981 43.2337 106.981 43.2502 119.987 64.5047L122.885 66.5462C122.972 66.6072 123.047 66.6854 123.103 66.7759C123.16 66.8665 123.197 66.9675 123.214 67.073C123.444 68.3901 123.988 71.5018 123.971 72.0451C123.963 72.1766 123.925 72.3044 123.859 72.4186C123.793 72.5329 123.702 72.6304 123.592 72.7036C123.462 72.7939 123.306 72.8401 123.148 72.8353ZM69.1802 55.4662H69.1473C69.0429 55.4663 68.9395 55.4452 68.8434 55.4043C68.7473 55.3634 68.6605 55.3034 68.5882 55.228C68.5159 55.1527 68.4596 55.0634 68.4227 54.9657C68.3858 54.868 68.3691 54.7638 68.3735 54.6595V54.6101L69.3778 35.7099L67.7644 33.0592C67.6543 32.8777 67.6202 32.6601 67.6695 32.4536C67.7188 32.2471 67.8476 32.0684 68.0278 31.9562C68.2118 31.8452 68.432 31.8107 68.6412 31.8599C68.8504 31.9091 69.032 32.0382 69.1473 32.2196L70.8924 35.0678C70.9762 35.2132 71.0215 35.3775 71.0241 35.5452L70.0034 54.7089C69.9908 54.9185 69.8985 55.1154 69.7455 55.2593C69.5925 55.4031 69.3903 55.483 69.1802 55.4827" fill="#00452B"/>
<path d="M63.1051 24.416C63.0516 24.4191 62.9983 24.4068 62.9516 24.3805C62.9049 24.3543 62.8668 24.3151 62.8416 24.2678C62.8087 24.202 58.9233 17.6165 57.458 16.3818C57.4049 16.3478 57.3657 16.2959 57.3475 16.2355C57.3294 16.175 57.3336 16.1101 57.3593 16.0525C57.3749 15.9965 57.4067 15.9464 57.4506 15.9084C57.4945 15.8703 57.5486 15.846 57.6062 15.8385C58.158 15.7723 58.7133 15.7393 59.269 15.7397C61.7221 15.7397 64.9655 16.25 66.4143 17.2379C66.76 17.4684 67.1551 17.7976 67.1222 18.1928C67.0893 18.5879 66.7271 18.7525 66.3649 18.9336C66.0027 19.1147 65.7392 19.2958 65.7886 19.4604C65.9203 19.9873 66.4143 20.0531 66.7106 20.0531C66.963 20.0495 67.2132 20.0051 67.4515 19.9214C68.0442 19.6909 68.8673 18.4232 69.1143 17.9458C69.1467 17.9015 69.1887 17.8652 69.2372 17.8395C69.2857 17.8138 69.3393 17.7995 69.3942 17.7976C69.449 17.798 69.5027 17.8136 69.5492 17.8427C69.5957 17.8717 69.6332 17.9131 69.6576 17.9623C69.674 17.9787 70.5466 19.6086 71.5509 19.9379C71.7367 19.9987 71.9317 20.0265 72.1271 20.0202C72.6704 20.0202 73.1808 19.8062 73.4113 19.4604C73.6418 19.1147 73.6253 18.8513 73.4771 18.4562C73.0656 17.3531 70.5302 16.3982 69.5917 16.1348C69.5422 16.1177 69.4971 16.0895 69.4601 16.0525C69.423 16.0154 69.3948 15.9703 69.3777 15.9208C69.3618 15.8737 69.358 15.8234 69.3667 15.7745C69.3753 15.7256 69.3961 15.6797 69.4271 15.6409C69.5423 15.4927 72.2094 12.2494 75.9632 11.3604H76.1443C79.898 12.2329 82.5815 15.4927 82.6968 15.6409C82.7278 15.6797 82.7486 15.7256 82.7572 15.7745C82.7658 15.8234 82.762 15.8737 82.7462 15.9208C82.7319 15.9692 82.7066 16.0137 82.6723 16.0508C82.6381 16.0879 82.5957 16.1167 82.5486 16.1348C81.5937 16.3982 79.0583 17.3531 78.6467 18.4562C78.5716 18.6154 78.5382 18.7911 78.5497 18.9668C78.5612 19.1425 78.6173 19.3124 78.7126 19.4604C78.9595 19.8062 79.4534 20.0202 79.9967 20.0202C80.1921 20.0252 80.3869 19.9974 80.573 19.9379C81.4126 19.658 82.2193 18.4232 82.4663 17.9623C82.4907 17.9131 82.5282 17.8717 82.5747 17.8427C82.6212 17.8136 82.6749 17.798 82.7297 17.7976C82.785 17.7968 82.8397 17.81 82.8886 17.8359C82.9375 17.8618 82.9791 17.8996 83.0096 17.9458C83.273 18.4232 84.0797 19.6909 84.6889 19.9214C84.9211 20.0062 85.1661 20.0508 85.4133 20.0531C85.7096 20.0531 86.22 19.9873 86.3517 19.4604C86.3846 19.2958 86.2694 19.1806 85.759 18.9336C85.2486 18.6867 85.0346 18.5714 85.0017 18.1928C84.9687 17.8141 85.3639 17.4684 85.7261 17.2379C87.1584 16.25 90.4017 15.7397 92.8548 15.7397C93.4106 15.7397 93.9658 15.7727 94.5176 15.8385C94.5768 15.8468 94.6326 15.8712 94.6791 15.9089C94.7255 15.9466 94.7607 15.9963 94.7811 16.0525C94.7948 16.1112 94.7928 16.1725 94.7755 16.2303C94.7582 16.288 94.726 16.3403 94.6823 16.3818C93.2006 17.6165 89.3316 24.1361 89.2987 24.202C89.2709 24.2469 89.2321 24.2841 89.1861 24.31C89.14 24.3359 89.0881 24.3497 89.0353 24.3501H88.9859C88.9036 24.3337 80.7211 23.1977 76.1772 23.1977C71.6332 23.1977 63.2368 24.3995 63.1545 24.416H63.1051Z" fill="#FBB040"/>
<path d="M76.062 11.656H76.0785H76.062ZM76.062 11.656C79.7663 12.5121 82.4499 15.8378 82.4499 15.8378C82.4499 15.8378 78.9102 16.8585 78.3504 18.3567C77.9059 19.5915 78.9267 20.3324 79.9968 20.3324C80.2255 20.3331 80.4529 20.2998 80.6718 20.2336C81.8078 19.8549 82.7298 18.1098 82.7298 18.1098C82.7298 18.1098 83.734 19.8878 84.5737 20.2006C84.8389 20.3137 85.125 20.3698 85.4133 20.3653C85.9895 20.3653 86.4999 20.1183 86.6481 19.5421C86.928 18.472 84.1292 18.686 85.8908 17.4842C87.2902 16.5457 90.4841 16.0518 92.8549 16.0518C93.3997 16.0519 93.944 16.0849 94.4848 16.1506C92.9537 17.4183 89.0353 24.0367 89.0353 24.0367C89.0353 24.0367 80.8035 22.8842 76.1772 22.8842C71.551 22.8842 63.1051 24.1025 63.1051 24.1025C63.1051 24.1025 59.1868 17.4183 57.6557 16.1506C58.1909 16.0844 58.7298 16.0514 59.2691 16.0518C61.6399 16.0518 64.8338 16.5457 66.2332 17.4842C67.9948 18.686 65.2125 18.472 65.4759 19.5421C65.6405 20.1183 66.1344 20.3653 66.7107 20.3653C66.9988 20.3679 67.2845 20.3119 67.5503 20.2006C68.39 19.8878 69.3942 18.1098 69.3942 18.1098C69.3942 18.1098 70.3162 19.8549 71.4686 20.2336C71.6819 20.2996 71.9039 20.3329 72.1272 20.3324C73.1973 20.3324 74.2345 19.5915 73.7736 18.3567C73.2138 16.8585 69.6741 15.8378 69.6741 15.8378C69.6741 15.8378 72.3577 12.5121 76.062 11.656ZM76.0785 11.0469H75.8644C72.0284 11.9688 69.3119 15.278 69.1967 15.4262C69.1304 15.5047 69.0851 15.5987 69.065 15.6995C69.0448 15.8002 69.0505 15.9045 69.0814 16.0024C69.1128 16.0986 69.1664 16.186 69.2379 16.2575C69.3094 16.3291 69.3968 16.3827 69.493 16.414C70.843 16.7927 72.8845 17.7311 73.1973 18.5543C73.2961 18.8506 73.2961 19.0811 73.1644 19.2622C73.0327 19.4433 72.5717 19.6903 72.1272 19.6903C71.9652 19.7022 71.8025 19.6798 71.6497 19.6244C70.9089 19.3775 70.1516 18.1921 69.9375 17.797C69.8846 17.6986 69.8063 17.6161 69.7108 17.5582C69.6152 17.5003 69.5059 17.4691 69.3942 17.4677C69.2835 17.4638 69.1739 17.4911 69.0778 17.5464C68.9818 17.6017 68.9032 17.6828 68.8509 17.7805C68.4887 18.4226 67.7643 19.4433 67.3363 19.608C67.1384 19.6923 66.9258 19.7371 66.7107 19.7397C66.2497 19.7397 66.1344 19.5421 66.1015 19.4269C66.2251 19.3369 66.3575 19.2597 66.4966 19.1964C66.8753 19.0153 67.4021 18.7518 67.4351 18.1921C67.468 17.6323 67.007 17.2537 66.579 16.9573C65.0149 15.9036 61.6893 15.4097 59.2691 15.4097C58.6963 15.4066 58.1241 15.4451 57.5569 15.525C57.4421 15.5461 57.3347 15.5966 57.2452 15.6717C57.1558 15.7467 57.0873 15.8436 57.0465 15.953C57.0124 16.0691 57.0146 16.1929 57.0529 16.3076C57.0911 16.4224 57.1636 16.5227 57.2605 16.5951C58.4459 17.5994 61.4917 22.5714 62.5783 24.3989C62.6293 24.4941 62.7053 24.5735 62.7982 24.6286C62.891 24.6838 62.9972 24.7125 63.1051 24.7117H63.2039C63.2862 24.7117 71.6497 23.4934 76.1772 23.4934C80.7047 23.4934 88.8707 24.6458 88.953 24.6623H89.0353C89.1429 24.6613 89.2484 24.6319 89.3409 24.5769C89.4335 24.522 89.5098 24.4435 89.5622 24.3495C90.6323 22.5385 93.6781 17.6159 94.8799 16.6116C94.9722 16.5357 95.0401 16.4344 95.0752 16.3202C95.1103 16.2061 95.1111 16.0841 95.0775 15.9695C95.0413 15.8573 94.9743 15.7576 94.884 15.6819C94.7937 15.6062 94.6838 15.5575 94.5671 15.5414C93.9999 15.4621 93.4276 15.4236 92.8549 15.4262C90.4347 15.4262 87.1091 15.9201 85.545 16.9738C85.1334 17.2701 84.656 17.6653 84.6889 18.2085C84.7219 18.7518 85.2487 19.0317 85.6273 19.2128L86.0389 19.4433C85.9895 19.5586 85.8743 19.7561 85.4133 19.7561C85.1982 19.7535 84.9856 19.7088 84.7877 19.6244C84.3597 19.4598 83.6353 18.439 83.2731 17.797C83.2194 17.7005 83.1404 17.6204 83.0447 17.5653C82.949 17.5102 82.8402 17.4822 82.7298 17.4842C82.6177 17.4837 82.5076 17.5143 82.4118 17.5724C82.3159 17.6304 82.238 17.7139 82.1865 17.8134C81.9889 18.2085 81.2151 19.4104 80.4742 19.6409C80.3212 19.6949 80.1588 19.7173 79.9968 19.7067C79.5523 19.7067 79.1572 19.5421 78.9761 19.2787C78.795 19.0153 78.8279 18.8671 78.9431 18.5708C79.2395 17.7476 81.281 16.8091 82.631 16.4305C82.7272 16.3991 82.8146 16.3455 82.8861 16.274C82.9576 16.2025 83.0112 16.1151 83.0426 16.0189C83.0735 15.9209 83.0792 15.8167 83.059 15.716C83.0389 15.6152 82.9936 15.5212 82.9273 15.4427C82.8285 15.2945 80.112 11.9853 76.2596 11.0633H76.0785" fill="#00452B"/>
<path d="M74.6131 78.976C85.2651 75.9138 91.4554 83.0096 91.4554 83.0096C91.4554 83.0096 90.3029 92.789 79.651 95.8347C68.999 98.8805 62.7922 91.8011 62.7922 91.8011C62.7922 91.8011 63.9447 82.0382 74.6131 78.976Z" fill="#FBB040"/>
<path d="M74.432 97.0857C71.8612 97.1 69.3213 96.5255 67.0069 95.4064C64.0599 93.9906 62.4794 92.196 62.4135 92.1302C62.3693 92.0784 62.3362 92.0181 62.3163 91.9529C62.2965 91.8877 62.2903 91.8192 62.2983 91.7515C62.3148 91.6527 63.6318 81.6099 74.4814 78.4983C80.1284 76.8849 84.5406 78.1032 87.2407 79.4038C90.1877 80.8197 91.7682 82.6142 91.834 82.6801C91.9113 82.791 91.9517 82.9235 91.9493 83.0587C91.9328 83.1575 90.6322 93.2003 79.7826 96.3119C78.045 96.8232 76.2433 97.0837 74.432 97.0857ZM63.3026 91.6363C64.3069 92.657 70.1844 98.0406 79.5028 95.3735C88.8212 92.7064 90.698 84.6392 90.945 83.174C89.9572 82.1697 84.0797 76.7696 74.7448 79.4532C65.4099 82.1368 63.566 90.2039 63.3026 91.6363Z" fill="#00452B"/>
<path d="M62.8745 92.3605C62.7949 92.3617 62.7161 92.3448 62.644 92.3111L62.5453 92.2453C62.4427 92.1863 62.3657 92.0913 62.3292 91.9787C62.2927 91.8662 62.2993 91.7441 62.3477 91.6361C62.4629 91.4056 65.0971 85.9232 75.7985 82.6964C86.4998 79.4695 91.4718 82.3342 91.6694 82.4659C91.7732 82.5279 91.8496 82.6269 91.8832 82.743C91.9168 82.8591 91.9051 82.9837 91.8505 83.0915C91.8495 83.1042 91.8436 83.116 91.834 83.1244C91.7686 83.2335 91.6648 83.3142 91.543 83.3507C91.4212 83.3873 91.2901 83.377 91.1755 83.322C91.1261 83.2891 86.3187 80.5396 76.0783 83.6348C67.0398 86.3842 63.9611 90.8129 63.3684 91.8501C63.3642 91.9467 63.3418 92.0417 63.3026 92.13C63.2655 92.2104 63.2044 92.2773 63.1278 92.3215C63.0511 92.3657 62.9626 92.3851 62.8745 92.377" fill="#00452B"/>
<path d="M70.7935 89.1345C70.7286 89.1366 70.6639 89.1244 70.6042 89.0988C70.5445 89.0732 70.4911 89.0348 70.4478 88.9863L70.3655 88.904C70.3292 88.8863 70.2971 88.8609 70.2716 88.8297C70.246 88.7984 70.2275 88.762 70.2173 88.7229C69.3777 87.7351 69.0978 86.418 68.8508 85.3314C68.7685 85.0021 68.6533 84.4753 68.8837 83.9978C68.9465 83.8857 69.0481 83.8004 69.1694 83.758C69.2907 83.7155 69.4233 83.7188 69.5423 83.7673C69.6601 83.8242 69.7505 83.9255 69.7937 84.049C69.8369 84.1724 69.8294 84.308 69.7728 84.4259C69.6905 84.5905 69.7399 84.854 69.8057 85.1174C70.0856 86.3521 70.349 87.3729 70.9746 88.1137C71.1253 88.2199 71.2309 88.3784 71.271 88.5583C71.2884 88.6608 71.2741 88.7662 71.2299 88.8603C71.1858 88.9545 71.1139 89.0329 71.024 89.0851C70.9514 89.1173 70.8729 89.1341 70.7935 89.1345ZM73.5594 87.2906C73.4865 87.2925 73.4141 87.2771 73.3483 87.2456C73.2824 87.2141 73.225 87.1675 73.1807 87.1095C72.7856 86.6649 72.6045 86.1216 72.4564 85.6277C72.1271 84.6399 71.732 83.4216 72.0612 82.2198C72.0784 82.157 72.1077 82.0982 72.1477 82.0468C72.1876 81.9954 72.2373 81.9524 72.2939 81.9202C72.3505 81.8881 72.4129 81.8675 72.4775 81.8596C72.5421 81.8516 72.6077 81.8565 72.6704 81.874C72.7948 81.9123 72.9 81.9967 72.9642 82.1099C73.0285 82.2232 73.0471 82.3567 73.0161 82.4832C72.7527 83.4052 73.0984 84.4753 73.3783 85.3314C73.5265 85.743 73.6582 86.171 73.9216 86.4674C74.0019 86.5677 74.0415 86.6946 74.0323 86.8228C74.0232 86.951 73.966 87.071 73.8722 87.1589C73.7895 87.2424 73.677 87.2898 73.5594 87.2906ZM83.3882 85.1174C83.294 85.124 83.2001 85.1004 83.1202 85.0501C83.0402 84.9998 82.9784 84.9253 82.9437 84.8375C82.903 84.7556 82.8819 84.6655 82.8819 84.5741C82.8819 84.4827 82.903 84.3925 82.9437 84.3106C83.0095 83.3393 82.6473 82.3515 82.1534 81.1826C82.0382 80.9191 81.9394 80.6887 81.7748 80.5899C81.6639 80.5305 81.5809 80.4297 81.5439 80.3095C81.507 80.1892 81.5189 80.0593 81.5772 79.9478H81.5937C81.6562 79.8358 81.76 79.7525 81.8829 79.7156C82.0058 79.6787 82.1383 79.6911 82.2522 79.7502C82.7132 80.0136 82.9272 80.5076 83.0589 80.8204C83.487 81.8411 84.0138 83.0923 83.915 84.3765C83.9298 84.4602 83.9183 84.5465 83.8821 84.6235C83.8845 84.6572 83.8789 84.6911 83.8656 84.7222C83.8495 84.8256 83.8009 84.9211 83.7269 84.9951C83.6529 85.0691 83.5574 85.1177 83.454 85.1338H83.3882V85.1174ZM80.0625 85.1997H80.0131C79.951 85.1956 79.8904 85.179 79.8349 85.1509C79.7794 85.1227 79.7301 85.0836 79.6901 85.0359C79.6501 84.9882 79.6202 84.9329 79.6021 84.8734C79.5841 84.8138 79.5783 84.7512 79.5851 84.6893C79.618 84.2942 79.4863 83.8661 79.3546 83.4381C79.0912 82.582 78.7619 81.4954 78.0046 80.9027C77.9084 80.817 77.8481 80.6981 77.8359 80.5699C77.8237 80.4416 77.8604 80.3135 77.9387 80.2112C78.0193 80.1136 78.1342 80.0507 78.2598 80.0354C78.3854 80.0201 78.5121 80.0535 78.6137 80.1289H78.6302C79.6016 80.9191 79.9802 82.1375 80.293 83.1417C80.4412 83.6192 80.6058 84.1789 80.5564 84.7716C80.5404 84.8909 80.4814 85.0002 80.3904 85.079C80.2995 85.1579 80.1829 85.2008 80.0625 85.1997ZM77.2143 86.4838C77.1103 86.4843 77.009 86.4508 76.9258 86.3884C76.8426 86.326 76.782 86.2381 76.7534 86.1381L75.0905 80.9191C75.0638 80.8599 75.0494 80.7959 75.0483 80.7309C75.0471 80.666 75.0593 80.6015 75.0839 80.5414C75.1086 80.4812 75.1452 80.4268 75.1917 80.3814C75.2381 80.3359 75.2933 80.3004 75.3539 80.2771C75.4741 80.2277 75.6089 80.2277 75.7291 80.277C75.8492 80.3263 75.9451 80.421 75.996 80.5405C76.0125 80.5734 76.0125 80.6063 76.029 80.6228L77.6918 85.8418C77.7285 85.9641 77.7164 86.0958 77.6581 86.2094C77.5998 86.3229 77.4997 86.4095 77.379 86.4509H77.3625L77.2143 86.4838ZM75.6503 12.7598C74.1192 12.9079 72.4399 14.0439 71.2874 15.4104C72.4886 15.6532 73.5565 16.3339 74.2838 17.3202C74.1521 16.3324 73.6253 15.7232 72.7198 15.1141C73.3454 14.3238 75.6503 12.7598 75.6503 12.7598ZM86.9937 87.2576C84.9028 90.1223 76.3912 97.1193 72.0118 93.9913C76.2265 94.2217 84.6065 89.7601 86.9937 87.2576Z" fill="#00452B"/>
<path d="M81.4619 76.4078C77.0167 76.0785 71.5179 77.1981 67.7477 79.5853C63.9775 81.9725 62.1336 85.5945 60.3226 89.7269C60.2897 87.7348 61.2117 82.3841 66.4635 78.9597C69.641 76.8852 74.4319 75.0413 81.4619 76.4078Z" fill="#F2F6F6"/>
<path d="M41.5541 87.9976C40.5827 86.9275 39.6279 85.8573 38.6894 84.7543L35.9071 81.4615C34.9851 80.3585 34.0796 79.239 33.1741 78.1194L30.507 74.7444L29.7991 73.8389L30.8857 73.4108C33.3717 72.4395 35.8741 71.6328 38.4095 70.9084L40.3193 70.398L42.2291 69.9041C43.5297 69.6077 44.8139 69.3114 46.0981 69.0644C48.6828 68.5376 51.3006 68.126 53.9183 67.8461C56.5365 67.5526 59.1698 67.4152 61.8043 67.4345C59.2031 67.912 56.6348 68.34 54.0829 68.8833L52.1567 69.2949L50.2469 69.7065L46.4603 70.6285C43.9249 71.2541 41.4224 71.9456 38.9199 72.67C36.4174 73.3944 33.9314 74.1682 31.4948 75.0243L31.8735 73.7072L34.3924 77.1975C35.2156 78.3828 36.0388 79.5518 36.8455 80.7536C37.6522 81.9554 38.4589 83.1244 39.2492 84.3427C40.0394 85.561 40.8132 86.7628 41.5541 87.9976ZM86.5162 67.3028C87.5097 67.1681 88.5102 67.0912 89.5126 67.0723C90.5169 67.0559 91.5212 67.0559 92.509 67.0888C93.4968 67.1217 94.5011 67.1876 95.5054 67.2699C96.5096 67.3522 97.4975 67.451 98.4853 67.5992L99.0944 67.6815L98.8969 68.2577C98.5841 69.1138 98.2713 69.9864 97.942 70.8425C97.6127 71.6986 97.2834 72.5547 96.9377 73.3944C96.592 74.234 96.2462 75.1066 95.884 75.9462C95.5218 76.7859 95.1432 77.642 94.748 78.4652C94.9621 77.5597 95.209 76.6871 95.456 75.7981C95.7029 74.909 95.9663 74.0364 96.2298 73.1474C96.4932 72.2584 96.7731 71.4023 97.0694 70.5297C97.3658 69.6571 97.6456 68.801 97.9584 67.9284L98.3536 68.587L92.4596 67.9284L89.4961 67.5992L86.5162 67.3028ZM106.981 68.7187L108.709 68.9163L110.438 69.1961L112.15 69.5583C112.71 69.6901 113.286 69.8218 113.846 69.9864C114.98 70.2839 116.096 70.6467 117.188 71.073C117.731 71.287 118.275 71.5504 118.801 71.7974L119.608 72.2255C119.872 72.3901 120.102 72.5218 120.415 72.7523L120.859 73.1145L120.514 73.5919L118.62 76.1767L116.711 78.7615L112.858 83.9475C113.276 82.9457 113.749 81.9674 114.274 81.017C114.801 80.0786 115.344 79.1402 115.92 78.2347C116.496 77.3292 117.089 76.4237 117.682 75.5182C118.275 74.6127 118.9 73.7566 119.526 72.8675L119.625 73.6907L118.999 73.2627L118.258 72.8675C117.764 72.6041 117.254 72.3736 116.743 72.1431C115.706 71.6822 114.636 71.2706 113.566 70.8919L110.29 69.7724L108.643 69.2455L106.981 68.7187Z" fill="white"/>
<path d="M66.8916 22.8681C65.8289 22.9603 64.7731 23.1197 63.7306 23.3455C63.7306 23.3455 63.0721 22.0284 62.5288 21.1723C62.183 20.6126 60.4873 18.4229 60.4873 18.4229C60.4873 18.4229 62.4958 19.4107 63.6483 21.0571C63.9215 21.4664 64.1636 21.8957 64.3727 22.3412C64.3727 22.3412 66.2166 22.1107 66.9739 22.1437C67.9947 22.1931 69.46 22.687 69.46 22.687C69.46 22.687 68.5545 22.7199 66.8916 22.8681ZM87.2407 19.8717C87.2407 19.8717 87.4382 19.1638 87.1089 18.8345C86.8242 18.5387 86.4826 18.3034 86.1047 18.143C85.94 18.0772 86.648 17.6985 86.9608 17.5668C87.7439 17.1987 88.5754 16.9437 89.4303 16.8095C90.134 16.7136 90.8442 16.6751 91.5541 16.6942C91.5541 16.6942 88.3273 17.5174 87.29 18.1595C87.4015 18.2435 87.4942 18.3499 87.5622 18.4718C87.6303 18.5937 87.6721 18.7284 87.6852 18.8674C87.6852 19.3449 87.2407 19.8717 87.2407 19.8717ZM76.4076 22.1601C76.4076 22.1601 81.6266 22.4894 82.8284 22.6046C84.4089 22.7364 88.5907 23.3455 88.5907 23.3455L89.1998 22.3412C89.4468 21.9132 90.237 20.9254 90.237 20.9254C90.237 20.9254 89.0352 20.9418 88.3602 21.7321C88.1486 21.9749 87.9559 22.2336 87.784 22.5059C87.784 22.5059 85.1168 22.2424 82.9766 22.1272C78.5643 21.9132 76.4076 22.1601 76.4076 22.1601ZM67.0892 147.3H65.2617C65.3111 147.745 65.6733 147.81 65.9697 147.843C66.3124 147.862 66.6552 147.806 66.9739 147.679L67.0727 148.222C66.7454 148.385 66.3847 148.47 66.0191 148.469C65.0806 148.469 64.4715 147.942 64.4715 147.02C64.4715 146.098 65.1959 145.654 65.8874 145.654C66.8752 145.654 67.2868 146.378 67.0892 147.3ZM65.2617 146.806H66.4636C66.4965 146.46 66.266 146.213 65.8874 146.213C65.5087 146.213 65.3276 146.493 65.2617 146.806ZM68.3404 147.563C68.3404 147.794 68.5545 147.909 68.7849 147.893C69.0154 147.876 69.2295 147.81 69.2459 147.58C69.2624 147.349 69.0484 147.349 68.8508 147.317C68.3075 147.251 67.5996 147.201 67.5996 146.543C67.5996 145.884 68.1099 145.654 68.7685 145.654C69.427 145.654 69.9703 145.934 69.9374 146.51H69.1965C69.1965 146.312 68.999 146.23 68.7849 146.23C68.5709 146.23 68.3569 146.329 68.3569 146.51C68.3569 146.691 68.5709 146.724 68.752 146.74C69.3612 146.823 70.0526 146.839 70.0362 147.563C70.0197 148.288 69.427 148.469 68.8179 148.469C68.2087 148.469 67.5831 148.288 67.5502 147.563H68.3404ZM71.6167 145.703H72.4893V146.296H71.6167V147.3C71.6167 147.86 72.0777 147.893 72.5222 147.728L72.6045 148.321C71.6661 148.584 70.8429 148.436 70.8429 147.317V146.296L70.3325 146.246V145.703H70.9088L70.9911 144.863H71.6167V145.703ZM73.049 148.057C73.0511 147.999 73.0648 147.942 73.0891 147.889C73.1134 147.835 73.148 147.788 73.1908 147.748C73.2336 147.708 73.2838 147.677 73.3386 147.657C73.3934 147.636 73.4516 147.627 73.51 147.629H73.5265C73.64 147.629 73.7489 147.674 73.8291 147.755C73.9094 147.835 73.9545 147.944 73.9545 148.057C73.9545 148.171 73.9094 148.28 73.8291 148.36C73.7489 148.44 73.64 148.485 73.5265 148.485C73.4681 148.49 73.4093 148.483 73.3537 148.465C73.298 148.446 73.2465 148.417 73.2022 148.379C73.1578 148.341 73.1214 148.294 73.0951 148.242C73.0689 148.189 73.0532 148.132 73.049 148.074V148.057ZM77.1814 145.143C77.0642 145.134 76.9478 145.169 76.856 145.243C76.7642 145.316 76.7039 145.422 76.6875 145.538V145.637H75.9631C75.9631 144.863 76.4241 144.419 77.1978 144.419C78.3009 144.419 78.729 145.538 77.9552 146.576C77.8235 146.74 77.6588 147.037 77.1649 147.679H78.4326V148.403H75.9137V148.222L77.3131 146.279C77.4641 146.087 77.5658 145.861 77.6094 145.621C77.6236 145.514 77.5953 145.406 77.5307 145.32C77.4661 145.234 77.3702 145.176 77.2637 145.16H77.1814V145.143ZM82.0217 145.769V147.103C82.0217 147.959 81.3631 148.469 80.5564 148.469C79.7497 148.469 79.0912 147.959 79.0912 147.103V145.769C79.0912 144.913 79.7497 144.419 80.5564 144.419C81.3631 144.419 82.0217 144.913 82.0217 145.769ZM81.215 147.201C81.2291 147.098 81.2346 146.993 81.2314 146.888V145.999C81.2338 145.889 81.2283 145.779 81.215 145.67C81.182 145.324 80.9022 145.16 80.5564 145.16C80.2107 145.16 79.9473 145.324 79.8979 145.67C79.8485 146.016 79.8814 145.884 79.8814 145.999V146.888C79.8814 147.004 79.8979 147.103 79.8979 147.201C79.9061 147.279 79.9297 147.355 79.9673 147.424C80.0049 147.493 80.0558 147.553 80.1171 147.602C80.1783 147.651 80.2487 147.688 80.3241 147.709C80.3996 147.731 80.4785 147.737 80.5564 147.728C80.9022 147.728 81.182 147.547 81.215 147.201ZM83.8821 145.143C83.8237 145.139 83.7649 145.146 83.7093 145.164C83.6536 145.183 83.6021 145.212 83.5578 145.25C83.5134 145.288 83.477 145.335 83.4508 145.387C83.4245 145.439 83.4088 145.497 83.4046 145.555V145.637H82.6802C82.6802 144.863 83.1412 144.419 83.915 144.419C85.0181 144.419 85.4461 145.538 84.6559 146.576C84.5406 146.74 84.3595 147.037 83.8656 147.679H85.1498V148.403H82.6308V148.222L84.0138 146.279C84.1713 146.091 84.2738 145.863 84.3101 145.621C84.3243 145.514 84.296 145.406 84.2314 145.32C84.1667 145.234 84.0709 145.176 83.9644 145.16H83.8821V145.143ZM85.7919 145.143V144.485H87.1748V147.761H87.8498V148.42H85.7095V147.761H86.3681V145.143H85.7919ZM31.8406 137.158H33.5857V136.566H35.7754V139.348H28.5808V137.158H29.157V131.808H28.5808V129.618H32.4168V131.808H31.8406V137.158ZM41.6365 137.158V136.763H43.8261V139.348H36.6644V137.158H37.2571V131.808H36.6644V129.618H43.8261V132.203H41.6365V131.808H39.9242V133.388H40.3194V132.993H42.509V135.957H40.3194V135.578H39.9242V137.158H41.6365ZM44.6987 139.348V137.158H45.2749V131.808H44.6987V129.618H48.5347V131.808H47.9585V137.158H48.5347V139.348H44.6987ZM52.6671 135.644V137.158H53.2433V139.348H49.4073V137.158H49.9835V131.791H49.4073V129.602H55.433L56.9805 131.166V134.096L55.433 135.644H52.6671ZM54.0006 133.454L54.3134 133.158V132.121L54.0006 131.791H52.6671V133.454H54.0006ZM62.858 137.158V136.582H65.0477V139.348H57.7708V137.488L61.5739 131.808H59.9605V132.384H57.7708V129.618H65.0477V131.462L61.2446 137.158H62.858ZM65.9203 139.348V137.158H66.513V131.808H65.9203V129.618H69.7563V131.808H69.1801V137.158H69.7563V139.348H65.9203ZM78.0375 137.784L76.4735 139.348H72.2094L70.6453 137.784V131.182L72.2094 129.618H76.4735L78.0375 131.182V133.339H75.3539V132.121L75.0411 131.808H73.6253L73.3124 132.121V136.846L73.6253 137.158H75.0411L75.3539 136.846V135.94H74.6295V133.932H78.0375V137.784ZM87.3724 137.126V139.315H83.5528V137.126H84.129V131.791H83.5528V129.618H87.3724V131.791H86.7961V133.174L88.1791 131.791H87.9321V129.618H92.5419V131.791H91.7352L89.101 134.426L91.8011 137.126H92.5419V139.315H87.9321V137.126H88.1955L87.2571 136.204L86.7961 136.665V137.126H87.3724ZM93.398 139.348V137.158H93.9743V131.808H93.398V129.618H97.2341V131.808H96.6414V137.158H97.2341V139.348H93.398ZM101.366 135.002V137.158H101.943V139.348H98.1066V137.158H98.6829V131.808H98.1066V129.618H101.268L103.951 134.063V131.808H103.359V129.618H107.195V131.808H106.618V137.158H107.195V139.348H103.984L101.366 135.002ZM115.476 137.784L113.912 139.348H109.631L108.084 137.784V131.182L109.631 129.618H113.912L115.476 131.182V133.339H112.792V132.121L112.479 131.808H111.063L110.751 132.121V136.846L111.063 137.158H112.479L112.792 136.846V135.94H112.068V133.932H115.476V137.784ZM117.912 135.594L116.348 134.047V131.182L117.912 129.618H122.193L123.757 131.182V133.108H121.073V132.121L120.761 131.808H119.345L119.032 132.121V133.108L119.345 133.405H122.193L123.757 134.969V137.784L122.193 139.348H117.912L116.348 137.784V135.924H119.032V136.846L119.345 137.158H120.761L121.073 136.846V135.924L120.761 135.594H117.912Z" fill="#00452B"/>
<path d="M27.4941 146.905C30.1283 146.807 32.7625 146.741 35.3967 146.708L39.3315 146.675H47.2176L51.1688 146.708C53.803 146.741 56.4207 146.807 59.0549 146.905C56.4207 146.988 53.803 147.053 51.1688 147.086L47.2176 147.119H39.3315L35.3967 147.086C32.7625 147.053 30.1283 146.988 27.4941 146.905ZM91.8998 146.905C94.534 146.807 97.1517 146.741 99.7859 146.708L103.737 146.675H111.623L115.574 146.708C118.192 146.741 120.826 146.807 123.461 146.905C120.826 146.988 118.192 147.053 115.574 147.086L111.623 147.119H103.737L99.7859 147.086C97.1517 147.053 94.534 146.988 91.8998 146.905Z" fill="#003F27"/>
</svg>
