<?xml version="1.0" encoding="utf-8"?>
<!-- Generator: Adobe Illustrator 22.1.0, SVG Export Plug-In . SVG Version: 6.00 Build 0)  -->
<svg version="1.1" id="Warstwa_1" xmlns="http://www.w3.org/2000/svg" xmlns:xlink="http://www.w3.org/1999/xlink" x="0px" y="0px"
	 viewBox="0 0 500 500" style="enable-background:new 0 0 500 500;" xml:space="preserve">
<style type="text/css">
	.st0{clip-path:url(#SVGID_2_);fill:url(#Layer_3_);}
	.st1{clip-path:url(#SVGID_2_);fill:url(#Layer_4_);}
	.st2{clip-path:url(#SVGID_2_);fill:none;}
	.st3{fill:#FFFFFF;}
</style>
<g>
	<defs>
		<path id="SVGID_1_" d="M465,485H35c-11,0-20-9-20-20V35c0-11,9-20,20-20h430c11,0,20,9,20,20v430C485,476,476,485,465,485z"/>
	</defs>
	<clipPath id="SVGID_2_">
		<use xlink:href="#SVGID_1_"  style="overflow:visible;"/>
	</clipPath>
	
		<linearGradient id="Layer_3_" gradientUnits="userSpaceOnUse" x1="51.4839" y1="426.164" x2="183.8796" y2="426.164" gradientTransform="matrix(3.3273 0 0 -3.3273 -1.8727 1667.9636)">
		<stop  offset="0" style="stop-color:#CD2027"/>
		<stop  offset="1" style="stop-color:#A61E25"/>
	</linearGradient>
	<path id="Layer" class="st0" d="M609.9,106.1v287.9c0,12.1-2.6,23.4-6.9,34.7c-4.3,11.3-11.3,20.8-19.9,29.5
		c-8.7,8.7-18.2,15.6-29.5,19.9c-11.3,4.3-22.5,6.9-34.7,6.9H169.4c0.6-6,29.6-21,18.6-61c36-49,212-169,229.9-215.6
		C406.6,195.4,476,59,464.3,15h54.6c12.1,0,23.4,2.6,34.7,6.9s20.8,11.3,29.5,19.9s15.6,18.2,19.9,29.5
		C607.3,82.6,609.9,93.9,609.9,106.1L609.9,106.1z"/>
	
		<linearGradient id="Layer_4_" gradientUnits="userSpaceOnUse" x1="-207.0525" y1="426.1639" x2="140.0953" y2="426.1639" gradientTransform="matrix(3.3273 0 0 -3.3273 -1.8727 1667.9636)">
		<stop  offset="0" style="stop-color:#182C51"/>
		<stop  offset="1" style="stop-color:#1F3E77"/>
	</linearGradient>
	<path id="Layer_1_" class="st1" d="M424,175c-53.6,85.6-106,110-146,150c-43,41-73,69-86,95c-1,56-20.8,65-22.6,65h-769.2
		c-12.1,0-23.4-2.6-34.7-6.9c-11.3-4.3-20.8-11.3-29.5-19.1c-8.7-8.7-14.7-19.1-19.9-29.5c-4.3-11.3-6.9-22.5-6.9-34.7V106.9
		c0-12.1,1.7-24.3,6.9-34.7c4.3-11.3,11.3-21.7,19.1-30.4c8.7-8.7,19.1-15.6,30.4-19.9c10.4-4.3,22.5-6.9,34.7-6.9h1064
		C461,71,459,74,424,175z"/>
	<path class="st2" d="M465,485H35c-11,0-20-9-20-20V35c0-11,9-20,20-20h430c11,0,20,9,20,20v430C485,476,476,485,465,485z"/>
</g>
<path id="Layer_2_" class="st3" d="M475.1,63.3c-0.6,1.2-1.5,2.3-2.6,3.5c-0.6,1.2-1.2,2.3-1.8,3.5c0,1.2-0.3,2.3-0.9,3.5
	c-0.6,1.8-0.9,3.2-0.9,4.4c1.8,1.8,1.8,1.8,0,6.1c-1.8,4.4-2.6,9.6-6.1,10.5c-3.5,0.9-7,21.9-8.8,37.7c0,4.7-0.6,9.6-1.8,14.9
	c-0.6,4.7-1.8,9.4-3.5,14c-1.8,4.7-3.8,9.4-6.1,14c-2.3,4.1-5,8.2-7.9,12.3c-2.6,3.5,0,13.2-0.9,20.2c-0.9,7,7.9,35.9-10.5,48.2
	c-18.4,12.3-32.4,16.7-60.5,61.4c-5.3,7-7.9,7-7.9,7c-1.8,1.2-3.8,2.3-6.1,3.5c-2.3,1.2-4.4,2.3-6.1,3.5c-2.3,0.6-4.4,1.5-6.1,2.6
	c-2.3,1.2-4.7,2-7,2.6c-2.6,0.9-3.5,0-3.5,0c-1.8,1.2-3.2,2-4.4,2.6c-1.8,0.6-3.5,1.2-5.3,1.8c-1.8,0.6-3.5,0.9-5.3,0.9
	c-1.8,0.6-3.5,0.9-5.3,0.9c-7,17.5-22.8,21-28.1,26.3c-5.3,5.3-5.3,5.3-15.8,14L234,405.2c-2.9,2.3-5.8,4.7-8.8,7
	c-2.3,2.3-5,4.4-7.9,6.1c-2.9,2.3-6.1,4.4-9.6,6.1c-2.9,2.3-5.8,4.4-8.8,6.1c0,0.6,0,0.9,0,0.9c0.6,0.6,0.9,1.2,0.9,1.8
	c0,0.6,0,0.9,0,0.9c0,0.6,0,1.2,0,1.8c0,0.9,0,4.4,7,0c7-4.4,9.6,2.6,11.4,5.3c1.8,2.6,1.8,7-4.4,14c-1.8,2.3-3.2,4.4-4.4,6.1
	c-1.8,2.3-3.5,4.7-5.3,7c-1.8,1.8-3.5,3.8-5.3,6.1c-2.3,1.8-4.4,3.5-6.1,5.3H191c-1.2,1.2-2.6,2.3-4.4,3.5c-1.2,0.6-2.6,1.5-4.4,2.6
	c-1.8,0.6-3.5,0.9-5.3,0.9c-1.8,0.6-3.5,0.9-5.3,0.9c-13.2,0-16.7-13.2,4.4-27.2l-14.9-6.1c-7.9-1.8-26.3-14-6.1-35.9
	c20.2-21.9,18.4-21.9,25.4-28.1c7-6.1,24.5-23.7,27.2-27.2c0.6-1.2,1.2-2.3,1.8-3.5c1.2-0.6,2-1.5,2.6-2.6c0.6-1.2,1.2-2.3,1.8-3.5
	c0.6-1.2,1.2-2.3,1.8-3.5c0-1.2,0.3-2.3,0.9-3.5c0-1.2,0-2.6,0-4.4c0-1.2-0.3-2.3-0.9-3.5c0-1.2-0.3-2.3-0.9-3.5l-21.9-2.6
	c-7.9-0.9-23.7-4.4-32.4-4.4h-12.3c-0.6,0-1.2,0-1.8,0s-0.9-0.3-0.9-0.9c-0.6,0-1.2-0.3-1.8-0.9c0,0-0.3-0.3-0.9-0.9
	c-2.3,0.6-4.7,1.2-7,1.8c-2.3,0.6-4.7,0.9-7,0.9c-2.9,0.6-5.6,0.9-7.9,0.9c-2.3,0.6-4.7,0.9-7,0.9c-11.4-0.9-28.9-5.3-37.7-5.3H65.7
	c-1.2,1.2-2.6,2.3-4.4,3.5c-1.2,1.2-2.6,2-4.4,2.6c-1.2,0.6-2.6,1.2-4.4,1.8c-1.8,0.6-3.5,0.9-5.3,0.9c-4.4,0-6.1-5.3-13.2-9.6
	c-1.2-0.6-2.6-1.5-4.4-2.6c-1.8-0.6-3.2-1.2-4.4-1.8c-1.8-0.6-3.5-1.2-5.3-1.8c-1.2-0.6-2.6-1.2-4.4-1.8c-3.5,0-7.9-0.9-14.9-14V300
	c-3.5-12.3,14-10.5,21.9-7c7.9,3.5,21,5.3,24.5,9.6c3.5,4.4,7-0.9,14.9,0.9l2.6,1.8c3.5-0.6,7-1.2,10.5-1.8c3.5-0.6,6.7-1.2,9.6-1.8
	c3.5-1.2,7-2,10.5-2.6c2.9-1.2,6.1-2.3,9.6-3.5h12.3c1.8,0,3.2,0.3,4.4,0.9c1.8,0,3.5,0,5.3,0c1.8,0.6,3.2,0.9,4.4,0.9
	c1.8,0,3.5,0,5.3,0c2.6,0,3.5,0,3.5,0.9c3.5-1.8,7-3.2,10.5-4.4c4.1-1.8,7.9-3.2,11.4-4.4c3.5-1.2,7.3-2.3,11.4-3.5
	c3.5-1.2,7.3-2,11.4-2.6c0.9-0.9,2.6,0,2.6,0c1.8-1.2,3.5-2,5.3-2.6c1.8-1.2,3.5-1.8,5.3-1.8c2.3-0.6,4.4-0.9,6.1-0.9
	c2.3,0,4.4,0,6.1,0c2.3,0.6,5,0.9,7.9,0.9c2.3,0,4.7,0.3,7,0.9c2.9,0,5.6,0,7.9,0c2.9-0.6,5.6-0.9,7.9-0.9c3.5-0.9,6.1,0.9,7.9,0.9
	c1.2-0.6,2.6-1.2,4.4-1.8c1.2-0.6,2.3-1.2,3.5-1.8c1.2-0.6,2.3-1.5,3.5-2.6c1.2-0.6,2.3-1.5,3.5-2.6c0.6-0.6,1.2-0.9,1.8-0.9
	c0.6-0.6,1.2-0.9,1.8-0.9c0.6-0.6,1.2-0.9,1.8-0.9c0.6-0.6,1.2-0.9,1.8-0.9c0.6-1.2,1.2-2,1.8-2.6c1.2-1.2,2-2,2.6-2.6
	c0.6-0.6,1.5-1.5,2.6-2.6c0.6-0.6,1.5-1.2,2.6-1.8l6.1-7c0.6-1.2,0.9-2,0.9-2.6c0.6-1.2,1.2-2,1.8-2.6c0-1.2,0.3-2,0.9-2.6
	c0.6-1.2,1.2-2,1.8-2.6v-7c0,0-29.8,11.4-50.9,3.5c-2.9,0-5.8-0.6-8.8-1.8c-2.9-1.2-5.6-2.6-7.9-4.4c-2.3-1.8-4.4-4.1-6.1-7
	c-1.8-2.3-2.9-5-3.5-7.9c-0.9-2.6-7.9-0.9-7.9-5.3s-6.1-1.8-6.1-4.4s-7,7-7.9-1.8c-0.9-8.8,7-13.2,21.9-14.9c14.9-1.8,4.4,0.9,7,0.9
	h4.4c0.6,0,1.2,0.3,1.8,0.9c1.2,0.6,1.8,1.2,1.8,1.8c0.6,0.6,1.2,1.2,1.8,1.8c0,1.2,0,2,0,2.6c0,2.6,1.8,3.5,1.8,4.4h1.8
	c1.2,0,2.3,0,3.5,0c1.2,0,2.3,0.3,3.5,0.9c1.2,0,2,0.3,2.6,0.9c1.2,0,2.3,0.3,3.5,0.9c0.6,0,1.5,0.3,2.6,0.9c0.6,0,1.2,0.3,1.8,0.9
	c1.2,0,2,0,2.6,0c1.2,0,2,0,2.6,0l19.3-1.8c5.3,0,5.3,0.9,4.4,1.8l7-3.5h2.6c0,0,17.5-28.1,35.9-28.1s17.5,1.8,20.2,3.5
	c2.6,1.8,3.5,0.9,5.3,0.9c0.6,0,1.2,0,1.8,0c0.6,0.6,0.9,0.9,0.9,0.9c0.6,0,1.2,0.3,1.8,0.9c0,0,0.3,0.3,0.9,0.9l3.5-9.6
	c0,0-1.8,0-2.6-2.6v-1.8c0,0-4.4,0.9-2.6-4.4c0.6-0.6,0.9-1.5,0.9-2.6c0.6-0.6,0.9-1.2,0.9-1.8c0.6-1.2,0.9-2,0.9-2.6
	c0.6-1.2,0.9-2,0.9-2.6c0-1.2,0.3-2.6,0.9-4.4c0.6-1.2,1.2-2.3,1.8-3.5c1.2-1.8,2-3.2,2.6-4.4c1.2-0.6,2.3-1.5,3.5-2.6
	c2.6-2.6,2.6-4.4,4.4-6.1c1.8-1.8,3.5-3.2,5.3-4.4c1.8-1.2,3.8-2.3,6.1-3.5c1.8-1.2,3.8-2,6.1-2.6c2.3-0.6,4.7-0.9,7-0.9
	c1.8,0,3.5,0,5.3,0c1.8,0.6,3.5,1.2,5.3,1.8c1.8,1.2,3.2,2.3,4.4,3.5c1.2,1.2,2.3,2.3,3.5,3.5c2.3-2.9,4.7-6.1,7-9.6
	c1.8-2.9,3.8-6.1,6.1-9.6c1.8-3.5,3.8-6.7,6.1-9.6c1.8-3.5,3.5-7,5.3-10.5c-1.2-1.2-2-2.3-2.6-3.5c-0.6-1.2-0.9-2.3-0.9-3.5
	c-0.6-1.2-0.6-2.6,0-4.4c0-1.2,0.3-2.3,0.9-3.5v-2.6c-1.8-0.6-3.8-1.2-6.1-1.8c-1.8-0.6-3.5-1.5-5.3-2.6c-2.3-0.6-4.1-1.8-5.3-3.5
	c-1.8-1.2-3.5-2.3-5.3-3.5c5.3-35.1,28.9-48.2,51.7-49.1h2.6c2.3,0,5,0.3,7.9,0.9c2.3,0,5,0.6,7.9,1.8c2.3,0.6,4.7,1.5,7,2.6
	c2.3,1.2,4.7,2.3,7,3.5C503.2,32.6,492.6,51.9,475.1,63.3L475.1,63.3z"/>
</svg>
